CooperHewittInterpol1-Bold.ufo
<glyph name="exclam" format="1">
  <advance width="265"/>
  <unicode hex="0021"/>
  <outline>
    <contour>
      <point x="216" y="167" type="line" smooth="yes"/>
      <point x="50" y="167" type="line" smooth="yes"/>
      <point x="50" y="0" type="line" smooth="yes"/>
      <point x="216" y="0" type="line" smooth="yes"/>
    </contour>
    <contour>
      <point x="35" y="780" type="line" smooth="yes"/>
      <point x="77" y="228" type="line" smooth="yes"/>
      <point x="189" y="228" type="line" smooth="yes"/>
      <point x="231" y="780" type="line" smooth="yes"/>
    </contour>
  </outline>
</glyph>
<glyph name="numbersign" format="1">
  <advance width="600"/>
  <unicode hex="0023"/>
  <outline>
    <contour>
      <point x="270" y="449" type="line" smooth="yes"/>
      <point x="351" y="449" type="line" smooth="yes"/>
      <point x="330" y="331" type="line" smooth="yes"/>
      <point x="249" y="331" type="line" smooth="yes"/>
    </contour>
    <contour>
      <point x="67" y="449" type="line" smooth="yes"/>
      <point x="132" y="449" type="line" smooth="yes"/>
      <point x="111" y="331" type="line" smooth="yes"/>
      <point x="23" y="331" type="line" smooth="yes"/>
      <point x="23" y="193" type="line" smooth="yes"/>
      <point x="86" y="193" type="line" smooth="yes"/>
      <point x="51" y="0" type="line" smooth="yes"/>
      <point x="188" y="0" type="line" smooth="yes"/>
      <point x="223" y="193" type="line" smooth="yes"/>
      <point x="304" y="193" type="line" smooth="yes"/>
      <point x="269" y="0" type="line" smooth="yes"/>
      <point x="407" y="0" type="line" smooth="yes"/>
      <point x="442" y="193" type="line" smooth="yes"/>
      <point x="533" y="193" type="line" smooth="yes"/>
      <point x="533" y="331" type="line" smooth="yes"/>
      <point x="467" y="331" type="line" smooth="yes"/>
      <point x="488" y="449" type="line" smooth="yes"/>
      <point x="577" y="449" type="line" smooth="yes"/>
      <point x="577" y="587" type="line" smooth="yes"/>
      <point x="513" y="587" type="line" smooth="yes"/>
      <point x="549" y="780" type="line" smooth="yes"/>
      <point x="412" y="780" type="line" smooth="yes"/>
      <point x="376" y="587" type="line" smooth="yes"/>
      <point x="295" y="587" type="line" smooth="yes"/>
      <point x="331" y="780" type="line" smooth="yes"/>
      <point x="193" y="780" type="line" smooth="yes"/>
      <point x="157" y="587" type="line" smooth="yes"/>
      <point x="67" y="587" type="line" smooth="yes"/>
    </contour>
  </outline>
</glyph>
<glyph name="dollar" format="1">
  <advance width="600"/>
  <unicode hex="0024"/>
  <outline>
    <contour>
      <point x="300" y="601" type="line" smooth="yes"/>
      <point x="372" y="572" type="line" smooth="yes"/>
      <point x="394" y="491" type="line" smooth="yes"/>
      <point x="551" y="491" type="line" smooth="yes"/>
      <point x="551" y="505" type="line" smooth="yes"/>
      <point x="523" y="629" type="line" smooth="yes"/>
      <point x="438" y="704" type="line" smooth="yes"/>
      <point x="470" y="840" type="line" smooth="yes"/>
      <point x="349" y="840" type="line" smooth="yes"/>
      <point x="322" y="731" type="line" smooth="yes"/>
      <point x="300" y="731" type="line" smooth="yes"/>
      <point x="119" y="680" type="line" smooth="yes"/>
      <point x="50" y="531" type="line" smooth="yes"/>
      <point x="50" y="521" type="line" smooth="yes"/>
      <point x="105" y="392" type="line" smooth="yes"/>
      <point x="267" y="332" type="line" smooth="yes"/>
      <point x="371" y="302" type="line" smooth="yes"/>
      <point x="396" y="251" type="line" smooth="yes"/>
      <point x="396" y="246" type="line" smooth="yes"/>
      <point x="374" y="198" type="line" smooth="yes"/>
      <point x="307" y="180" type="line" smooth="yes"/>
      <point x="302" y="180" type="line" smooth="yes"/>
      <point x="226" y="209" type="line" smooth="yes"/>
      <point x="202" y="281" type="line" smooth="yes"/>
      <point x="43" y="281" type="line" smooth="yes"/>
      <point x="43" y="275" type="line" smooth="yes"/>
      <point x="74" y="149" type="line" smooth="yes"/>
      <point x="166" y="75" type="line" smooth="yes"/>
      <point x="134" y="-60" type="line" smooth="yes"/>
      <point x="255" y="-60" type="line" smooth="yes"/>
      <point x="281" y="50" type="line" smooth="yes"/>
      <point x="302" y="50" type="line" smooth="yes"/>
      <point x="493" y="103" type="line" smooth="yes"/>
      <point x="558" y="253" type="line" smooth="yes"/>
      <point x="558" y="263" type="line" smooth="yes"/>
      <point x="502" y="394" type="line" smooth="yes"/>
      <point x="329" y="455" type="line" smooth="yes"/>
      <point x="231" y="484" type="line" smooth="yes"/>
      <point x="209" y="530" type="line" smooth="yes"/>
      <point x="209" y="535" type="line" smooth="yes"/>
      <point x="233" y="584" type="line" smooth="yes"/>
      <point x="292" y="601" type="line" smooth="yes"/>
    </contour>
  </outline>
</glyph>
<glyph name="percent" format="1">
  <advance width="981"/>
  <unicode hex="0025"/>
  <outline>
    <contour>
      <point x="289" y="605" type="line" smooth="yes"/>
      <point x="289" y="592" type="line" smooth="yes"/>
      <point x="270" y="541" type="line" smooth="yes"/>
      <point x="220" y="522" type="line" smooth="yes"/>
      <point x="214" y="522" type="line" smooth="yes"/>
      <point x="163" y="541" type="line" smooth="yes"/>
      <point x="144" y="592" type="line" smooth="yes"/>
      <point x="144" y="605" type="line" smooth="yes"/>
      <point x="163" y="656" type="line" smooth="yes"/>
      <point x="214" y="676" type="line" smooth="yes"/>
      <point x="220" y="676" type="line" smooth="yes"/>
      <point x="270" y="656" type="line" smooth="yes"/>
    </contour>
    <contour>
      <point x="692" y="175" type="line" smooth="yes"/>
      <point x="692" y="188" type="line" smooth="yes"/>
      <point x="711" y="239" type="line" smooth="yes"/>
      <point x="762" y="258" type="line" smooth="yes"/>
      <point x="768" y="258" type="line" smooth="yes"/>
      <point x="818" y="239" type="line" smooth="yes"/>
      <point x="837" y="188" type="line" smooth="yes"/>
      <point x="837" y="175" type="line" smooth="yes"/>
      <point x="818" y="124" type="line" smooth="yes"/>
      <point x="768" y="104" type="line" smooth="yes"/>
      <point x="762" y="104" type="line" smooth="yes"/>
      <point x="711" y="124" type="line" smooth="yes"/>
    </contour>
    <contour>
      <point x="575" y="187" type="line" smooth="yes"/>
      <point x="575" y="175" type="line" smooth="yes"/>
      <point x="629" y="35" type="line" smooth="yes"/>
      <point x="765" y="-13" type="line" smooth="yes"/>
      <point x="900" y="35" type="line" smooth="yes"/>
      <point x="954" y="175" type="line" smooth="yes"/>
      <point x="954" y="187" type="line" smooth="yes"/>
      <point x="900" y="327" type="line" smooth="yes"/>
      <point x="765" y="376" type="line" smooth="yes"/>
      <point x="629" y="327" type="line" smooth="yes"/>
    </contour>
    <contour>
      <point x="296" y="779" type="line" smooth="yes"/>
      <point x="258" y="789" type="line" smooth="yes"/>
      <point x="217" y="793" type="line" smooth="yes"/>
      <point x="81" y="745" type="line" smooth="yes"/>
      <point x="27" y="605" type="line" smooth="yes"/>
      <point x="27" y="593" type="line" smooth="yes"/>
      <point x="81" y="453" type="line" smooth="yes"/>
      <point x="217" y="404" type="line" smooth="yes"/>
      <point x="352" y="453" type="line" smooth="yes"/>
      <point x="406" y="593" type="line" smooth="yes"/>
      <point x="406" y="605" type="line" smooth="yes"/>
      <point x="406" y="617" type="line" smooth="yes"/>
      <point x="405" y="628" type="line" smooth="yes"/>
      <point x="428" y="626" type="line" smooth="yes"/>
      <point x="452" y="625" type="line" smooth="yes"/>
      <point x="494" y="628" type="line" smooth="yes"/>
      <point x="523" y="633" type="line" smooth="yes"/>
      <point x="259" y="0" type="line" smooth="yes"/>
      <point x="397" y="0" type="line" smooth="yes"/>
      <point x="692" y="708" type="line" smooth="yes"/>
      <point x="692" y="783" type="line" smooth="yes"/>
      <point x="608" y="763" type="line" smooth="yes"/>
      <point x="481" y="751" type="line" smooth="yes"/>
      <point x="378" y="757" type="line" smooth="yes"/>
    </contour>
  </outline>
</glyph>
<glyph name="ampersand" format="1">
  <advance width="691"/>
  <unicode hex="0026"/>
  <outline>
    <contour>
      <point x="224" y="608" type="line" smooth="yes"/>
      <point x="238" y="648" type="line" smooth="yes"/>
      <point x="278" y="663" type="line" smooth="yes"/>
      <point x="284" y="663" type="line" smooth="yes"/>
      <point x="323" y="648" type="line" smooth="yes"/>
      <point x="337" y="608" type="line" smooth="yes"/>
      <point x="337" y="602" type="line" smooth="yes"/>
      <point x="314" y="547" type="line" smooth="yes"/>
      <point x="256" y="503" type="line" smooth="yes"/>
      <point x="233" y="551" type="line" smooth="yes"/>
      <point x="224" y="602" type="line" smooth="yes"/>
    </contour>
    <contour>
      <point x="276" y="123" type="line" smooth="yes"/>
      <point x="204" y="150" type="line" smooth="yes"/>
      <point x="180" y="225" type="line" smooth="yes"/>
      <point x="180" y="231" type="line" smooth="yes"/>
      <point x="191" y="280" type="line" smooth="yes"/>
      <point x="219" y="319" type="line" smooth="yes"/>
      <point x="368" y="143" type="line" smooth="yes"/>
      <point x="327" y="128" type="line" smooth="yes"/>
      <point x="281" y="123" type="line" smooth="yes"/>
    </contour>
    <contour>
      <point x="250" y="-13" type="line" smooth="yes"/>
      <point x="363" y="0" type="line" smooth="yes"/>
      <point x="457" y="37" type="line" smooth="yes"/>
      <point x="489" y="0" type="line" smooth="yes"/>
      <point x="679" y="0" type="line" smooth="yes"/>
      <point x="568" y="131" type="line" smooth="yes"/>
      <point x="638" y="257" type="line" smooth="yes"/>
      <point x="661" y="391" type="line" smooth="yes"/>
      <point x="661" y="395" type="line" smooth="yes"/>
      <point x="495" y="395" type="line" smooth="yes"/>
      <point x="495" y="392" type="line" smooth="yes"/>
      <point x="487" y="319" type="line" smooth="yes"/>
      <point x="466" y="252" type="line" smooth="yes"/>
      <point x="342" y="399" type="line" smooth="yes"/>
      <point x="448" y="476" type="line" smooth="yes"/>
      <point x="496" y="603" type="line" smooth="yes"/>
      <point x="496" y="614" type="line" smooth="yes"/>
      <point x="446" y="740" type="line" smooth="yes"/>
      <point x="281" y="793" type="line" smooth="yes"/>
      <point x="116" y="740" type="line" smooth="yes"/>
      <point x="65" y="614" type="line" smooth="yes"/>
      <point x="65" y="603" type="line" smooth="yes"/>
      <point x="82" y="507" type="line" smooth="yes"/>
      <point x="129" y="428" type="line" smooth="yes"/>
      <point x="52" y="346" type="line" smooth="yes"/>
      <point x="19" y="221" type="line" smooth="yes"/>
      <point x="19" y="211" type="line" smooth="yes"/>
      <point x="79" y="48" type="line" smooth="yes"/>
    </contour>
  </outline>
</glyph>
<glyph name="parenleft" format="1">
  <advance width="365"/>
  <unicode hex="0028"/>
  <outline>
    <contour>
      <point x="39" y="350" type="line" smooth="yes"/>
      <point x="81" y="72" type="line" smooth="yes"/>
      <point x="182" y="-120" type="line" smooth="yes"/>
      <point x="346" y="-120" type="line" smooth="yes"/>
      <point x="240" y="86" type="line" smooth="yes"/>
      <point x="197" y="350" type="line" smooth="yes"/>
      <point x="197" y="370" type="line" smooth="yes"/>
      <point x="240" y="634" type="line" smooth="yes"/>
      <point x="346" y="840" type="line" smooth="yes"/>
      <point x="182" y="840" type="line" smooth="yes"/>
      <point x="81" y="648" type="line" smooth="yes"/>
      <point x="39" y="370" type="line" smooth="yes"/>
    </contour>
  </outline>
</glyph>
<glyph name="parenright" format="1">
  <advance width="365"/>
  <unicode hex="0029"/>
  <outline>
    <contour>
      <point x="326" y="370" type="line" smooth="yes"/>
      <point x="285" y="648" type="line" smooth="yes"/>
      <point x="183" y="840" type="line" smooth="yes"/>
      <point x="19" y="840" type="line" smooth="yes"/>
      <point x="125" y="634" type="line" smooth="yes"/>
      <point x="168" y="370" type="line" smooth="yes"/>
      <point x="168" y="350" type="line" smooth="yes"/>
      <point x="125" y="86" type="line" smooth="yes"/>
      <point x="19" y="-120" type="line" smooth="yes"/>
      <point x="183" y="-120" type="line" smooth="yes"/>
      <point x="285" y="72" type="line" smooth="yes"/>
      <point x="326" y="350" type="line" smooth="yes"/>
    </contour>
  </outline>
</glyph>
<glyph name="comma" format="1">
  <advance width="266"/>
  <unicode hex="002C"/>
  <outline>
    <contour>
      <point x="216" y="167" type="line" smooth="yes"/>
      <point x="50" y="167" type="line" smooth="yes"/>
      <point x="50" y="0" type="line" smooth="yes"/>
      <point x="134" y="0" type="line" smooth="yes"/>
      <point x="104" y="-48" type="line" smooth="yes"/>
      <point x="45" y="-64" type="line" smooth="yes"/>
      <point x="45" y="-143" type="line" smooth="yes"/>
      <point x="173" y="-98" type="line" smooth="yes"/>
      <point x="216" y="35" type="line" smooth="yes"/>
    </contour>
  </outline>
</glyph>
<glyph name="zero" format="1">
  <advance width="600"/>
  <unicode hex="0030"/>
  <outline>
    <contour>
      <point x="395" y="557" type="line" smooth="yes"/>
      <point x="395" y="223" type="line" smooth="yes"/>
      <point x="373" y="154" type="line" smooth="yes"/>
      <point x="302" y="127" type="line" smooth="yes"/>
      <point x="298" y="127" type="line" smooth="yes"/>
      <point x="228" y="154" type="line" smooth="yes"/>
      <point x="205" y="223" type="line" smooth="yes"/>
      <point x="205" y="557" type="line" smooth="yes"/>
      <point x="228" y="626" type="line" smooth="yes"/>
      <point x="298" y="653" type="line" smooth="yes"/>
      <point x="302" y="653" type="line" smooth="yes"/>
      <point x="373" y="626" type="line" smooth="yes"/>
    </contour>
    <contour>
      <point x="555" y="221" type="line" smooth="yes"/>
      <point x="555" y="559" type="line" smooth="yes"/>
      <point x="491" y="727" type="line" smooth="yes"/>
      <point x="300" y="793" type="line" smooth="yes"/>
      <point x="109" y="727" type="line" smooth="yes"/>
      <point x="45" y="559" type="line" smooth="yes"/>
      <point x="45" y="221" type="line" smooth="yes"/>
      <point x="109" y="53" type="line" smooth="yes"/>
      <point x="300" y="-13" type="line" smooth="yes"/>
      <point x="491" y="53" type="line" smooth="yes"/>
    </contour>
  </outline>
</glyph>
<glyph name="three" format="1">
  <advance width="600"/>
  <unicode hex="0033"/>
  <outline>
    <contour>
      <point x="199" y="250" type="line" smooth="yes"/>
      <point x="39" y="250" type="line" smooth="yes"/>
      <point x="39" y="237" type="line" smooth="yes"/>
      <point x="104" y="52" type="line" smooth="yes"/>
      <point x="300" y="-13" type="line" smooth="yes"/>
      <point x="501" y="61" type="line" smooth="yes"/>
      <point x="561" y="209" type="line" smooth="yes"/>
      <point x="561" y="228" type="line" smooth="yes"/>
      <point x="533" y="334" type="line" smooth="yes"/>
      <point x="465" y="399" type="line" smooth="yes"/>
      <point x="530" y="463" type="line" smooth="yes"/>
      <point x="556" y="566" type="line" smooth="yes"/>
      <point x="556" y="585" type="line" smooth="yes"/>
      <point x="499" y="724" type="line" smooth="yes"/>
      <point x="300" y="793" type="line" smooth="yes"/>
      <point x="107" y="730" type="line" smooth="yes"/>
      <point x="44" y="540" type="line" smooth="yes"/>
      <point x="44" y="520" type="line" smooth="yes"/>
      <point x="204" y="520" type="line" smooth="yes"/>
      <point x="229" y="624" type="line" smooth="yes"/>
      <point x="295" y="653" type="line" smooth="yes"/>
      <point x="305" y="653" type="line" smooth="yes"/>
      <point x="370" y="629" type="line" smooth="yes"/>
      <point x="396" y="566" type="line" smooth="yes"/>
      <point x="396" y="557" type="line" smooth="yes"/>
      <point x="372" y="490" type="line" smooth="yes"/>
      <point x="304" y="468" type="line" smooth="yes"/>
      <point x="200" y="468" type="line" smooth="yes"/>
      <point x="200" y="328" type="line" smooth="yes"/>
      <point x="307" y="328" type="line" smooth="yes"/>
      <point x="376" y="305" type="line" smooth="yes"/>
      <point x="401" y="237" type="line" smooth="yes"/>
      <point x="401" y="226" type="line" smooth="yes"/>
      <point x="372" y="151" type="line" smooth="yes"/>
      <point x="305" y="127" type="line" smooth="yes"/>
      <point x="295" y="127" type="line" smooth="yes"/>
      <point x="227" y="154" type="line" smooth="yes"/>
    </contour>
  </outline>
</glyph>
<glyph name="five" format="1">
  <advance width="600"/>
  <unicode hex="0035"/>
  <outline>
    <contour>
      <point x="39" y="250" type="line" smooth="yes"/>
      <point x="39" y="237" type="line" smooth="yes"/>
      <point x="104" y="52" type="line" smooth="yes"/>
      <point x="300" y="-13" type="line" smooth="yes"/>
      <point x="495" y="55" type="line" smooth="yes"/>
      <point x="561" y="237" type="line" smooth="yes"/>
      <point x="561" y="256" type="line" smooth="yes"/>
      <point x="496" y="438" type="line" smooth="yes"/>
      <point x="308" y="506" type="line" smooth="yes"/>
      <point x="246" y="500" type="line" smooth="yes"/>
      <point x="190" y="482" type="line" smooth="yes"/>
      <point x="197" y="640" type="line" smooth="yes"/>
      <point x="551" y="640" type="line" smooth="yes"/>
      <point x="551" y="780" type="line" smooth="yes"/>
      <point x="63" y="780" type="line" smooth="yes"/>
      <point x="45" y="352" type="line" smooth="yes"/>
      <point x="182" y="305" type="line" smooth="yes"/>
      <point x="229" y="352" type="line" smooth="yes"/>
      <point x="291" y="367" type="line" smooth="yes"/>
      <point x="297" y="367" type="line" smooth="yes"/>
      <point x="371" y="341" type="line" smooth="yes"/>
      <point x="401" y="252" type="line" smooth="yes"/>
      <point x="401" y="241" type="line" smooth="yes"/>
      <point x="372" y="153" type="line" smooth="yes"/>
      <point x="305" y="127" type="line" smooth="yes"/>
      <point x="295" y="127" type="line" smooth="yes"/>
      <point x="227" y="154" type="line" smooth="yes"/>
      <point x="199" y="250" type="line" smooth="yes"/>
    </contour>
  </outline>
</glyph>
<glyph name="six" format="1">
  <advance width="600"/>
  <unicode hex="0036"/>
  <outline>
    <contour>
      <point x="303" y="352" type="line" smooth="yes"/>
      <point x="308" y="352" type="line" smooth="yes"/>
      <point x="375" y="328" type="line" smooth="yes"/>
      <point x="402" y="250" type="line" smooth="yes"/>
      <point x="402" y="231" type="line" smooth="yes"/>
      <point x="373" y="154" type="line" smooth="yes"/>
      <point x="304" y="127" type="line" smooth="yes"/>
      <point x="298" y="127" type="line" smooth="yes"/>
      <point x="228" y="161" type="line" smooth="yes"/>
      <point x="199" y="260" type="line" smooth="yes"/>
      <point x="199" y="292" type="line" smooth="yes"/>
      <point x="244" y="337" type="line" smooth="yes"/>
    </contour>
    <contour>
      <point x="523" y="793" type="line" smooth="yes"/>
      <point x="309" y="763" type="line" smooth="yes"/>
      <point x="149" y="646" type="line" smooth="yes"/>
      <point x="63" y="471" type="line" smooth="yes"/>
      <point x="39" y="286" type="line" smooth="yes"/>
      <point x="39" y="273" type="line" smooth="yes"/>
      <point x="107" y="66" type="line" smooth="yes"/>
      <point x="301" y="-13" type="line" smooth="yes"/>
      <point x="496" y="54" type="line" smooth="yes"/>
      <point x="562" y="236" type="line" smooth="yes"/>
      <point x="562" y="246" type="line" smooth="yes"/>
      <point x="502" y="427" type="line" smooth="yes"/>
      <point x="344" y="492" type="line" smooth="yes"/>
      <point x="276" y="482" type="line" smooth="yes"/>
      <point x="221" y="455" type="line" smooth="yes"/>
      <point x="243" y="510" type="line" smooth="yes"/>
      <point x="273" y="556" type="line" smooth="yes"/>
      <point x="376" y="629" type="line" smooth="yes"/>
      <point x="523" y="651" type="line" smooth="yes"/>
    </contour>
  </outline>
</glyph>
<glyph name="eight" format="1">
  <advance width="600"/>
  <unicode hex="0038"/>
  <outline>
    <contour>
      <point x="305" y="653" type="line" smooth="yes"/>
      <point x="370" y="630" type="line" smooth="yes"/>
      <point x="396" y="567" type="line" smooth="yes"/>
      <point x="396" y="557" type="line" smooth="yes"/>
      <point x="372" y="490" type="line" smooth="yes"/>
      <point x="304" y="468" type="line" smooth="yes"/>
      <point x="296" y="468" type="line" smooth="yes"/>
      <point x="228" y="490" type="line" smooth="yes"/>
      <point x="204" y="557" type="line" smooth="yes"/>
      <point x="204" y="567" type="line" smooth="yes"/>
      <point x="230" y="630" type="line" smooth="yes"/>
      <point x="295" y="653" type="line" smooth="yes"/>
    </contour>
    <contour>
      <point x="293" y="328" type="line" smooth="yes"/>
      <point x="307" y="328" type="line" smooth="yes"/>
      <point x="376" y="305" type="line" smooth="yes"/>
      <point x="401" y="237" type="line" smooth="yes"/>
      <point x="401" y="226" type="line" smooth="yes"/>
      <point x="372" y="150" type="line" smooth="yes"/>
      <point x="305" y="127" type="line" smooth="yes"/>
      <point x="295" y="127" type="line" smooth="yes"/>
      <point x="228" y="150" type="line" smooth="yes"/>
      <point x="199" y="226" type="line" smooth="yes"/>
      <point x="199" y="237" type="line" smooth="yes"/>
      <point x="224" y="305" type="line" smooth="yes"/>
    </contour>
    <contour>
      <point x="300" y="-13" type="line" smooth="yes"/>
      <point x="501" y="60" type="line" smooth="yes"/>
      <point x="561" y="208" type="line" smooth="yes"/>
      <point x="561" y="227" type="line" smooth="yes"/>
      <point x="533" y="334" type="line" smooth="yes"/>
      <point x="465" y="399" type="line" smooth="yes"/>
      <point x="530" y="463" type="line" smooth="yes"/>
      <point x="556" y="567" type="line" smooth="yes"/>
      <point x="556" y="586" type="line" smooth="yes"/>
      <point x="499" y="724" type="line" smooth="yes"/>
      <point x="300" y="793" type="line" smooth="yes"/>
      <point x="101" y="724" type="line" smooth="yes"/>
      <point x="44" y="586" type="line" smooth="yes"/>
      <point x="44" y="567" type="line" smooth="yes"/>
      <point x="70" y="463" type="line" smooth="yes"/>
      <point x="135" y="399" type="line" smooth="yes"/>
      <point x="67" y="334" type="line" smooth="yes"/>
      <point x="39" y="227" type="line" smooth="yes"/>
      <point x="39" y="208" type="line" smooth="yes"/>
      <point x="99" y="60" type="line" smooth="yes"/>
    </contour>
  </outline>
</glyph>
<glyph name="nine" format="1">
  <advance width="600"/>
  <unicode hex="0039"/>
  <outline>
    <contour>
      <point x="297" y="428" type="line" smooth="yes"/>
      <point x="292" y="428" type="line" smooth="yes"/>
      <point x="225" y="452" type="line" smooth="yes"/>
      <point x="198" y="530" type="line" smooth="yes"/>
      <point x="198" y="549" type="line" smooth="yes"/>
      <point x="227" y="626" type="line" smooth="yes"/>
      <point x="296" y="653" type="line" smooth="yes"/>
      <point x="302" y="653" type="line" smooth="yes"/>
      <point x="372" y="619" type="line" smooth="yes"/>
      <point x="401" y="520" type="line" smooth="yes"/>
      <point x="401" y="488" type="line" smooth="yes"/>
      <point x="355" y="443" type="line" smooth="yes"/>
    </contour>
    <contour>
      <point x="77" y="-13" type="line" smooth="yes"/>
      <point x="291" y="17" type="line" smooth="yes"/>
      <point x="451" y="134" type="line" smooth="yes"/>
      <point x="537" y="309" type="line" smooth="yes"/>
      <point x="561" y="494" type="line" smooth="yes"/>
      <point x="561" y="507" type="line" smooth="yes"/>
      <point x="493" y="715" type="line" smooth="yes"/>
      <point x="299" y="793" type="line" smooth="yes"/>
      <point x="104" y="726" type="line" smooth="yes"/>
      <point x="38" y="544" type="line" smooth="yes"/>
      <point x="38" y="534" type="line" smooth="yes"/>
      <point x="98" y="353" type="line" smooth="yes"/>
      <point x="256" y="288" type="line" smooth="yes"/>
      <point x="323" y="298" type="line" smooth="yes"/>
      <point x="378" y="324" type="line" smooth="yes"/>
      <point x="357" y="270" type="line" smooth="yes"/>
      <point x="327" y="224" type="line" smooth="yes"/>
      <point x="225" y="151" type="line" smooth="yes"/>
      <point x="77" y="129" type="line" smooth="yes"/>
    </contour>
  </outline>
</glyph>
<glyph name="question" format="1">
  <advance width="497"/>
  <unicode hex="003F"/>
  <outline>
    <contour>
      <point x="328" y="167" type="line" smooth="yes"/>
      <point x="162" y="167" type="line" smooth="yes"/>
      <point x="162" y="0" type="line" smooth="yes"/>
      <point x="328" y="0" type="line" smooth="yes"/>
    </contour>
    <contour>
      <point x="253" y="654" type="line" smooth="yes"/>
      <point x="305" y="634" type="line" smooth="yes"/>
      <point x="320" y="579" type="line" smooth="yes"/>
      <point x="249" y="441" type="line" smooth="yes"/>
      <point x="189" y="228" type="line" smooth="yes"/>
      <point x="300" y="228" type="line" smooth="yes"/>
      <point x="395" y="406" type="line" smooth="yes"/>
      <point x="479" y="592" type="line" smooth="yes"/>
      <point x="432" y="730" type="line" smooth="yes"/>
      <point x="253" y="793" type="line" smooth="yes"/>
      <point x="72" y="726" type="line" smooth="yes"/>
      <point x="21" y="534" type="line" smooth="yes"/>
      <point x="21" y="516" type="line" smooth="yes"/>
      <point x="180" y="516" type="line" smooth="yes"/>
      <point x="196" y="622" type="line" smooth="yes"/>
    </contour>
  </outline>
</glyph>
<glyph name="at" format="1">
  <advance width="991"/>
  <unicode hex="0040"/>
  <outline>
    <contour>
      <point x="563" y="374" type="line" smooth="yes"/>
      <point x="563" y="216" type="line" smooth="yes"/>
      <point x="533" y="185" type="line" smooth="yes"/>
      <point x="479" y="169" type="line" smooth="yes"/>
      <point x="415" y="198" type="line" smooth="yes"/>
      <point x="395" y="278" type="line" smooth="yes"/>
      <point x="395" y="312" type="line" smooth="yes"/>
      <point x="415" y="392" type="line" smooth="yes"/>
      <point x="479" y="421" type="line" smooth="yes"/>
      <point x="533" y="405" type="line" smooth="yes"/>
    </contour>
    <contour>
      <point x="513" y="-110" type="line" smooth="yes"/>
      <point x="239" y="-16" type="line" smooth="yes"/>
      <point x="132" y="270" type="line" smooth="yes"/>
      <point x="132" y="310" type="line" smooth="yes"/>
      <point x="238" y="595" type="line" smooth="yes"/>
      <point x="508" y="690" type="line" smooth="yes"/>
      <point x="514" y="690" type="line" smooth="yes"/>
      <point x="749" y="631" type="line" smooth="yes"/>
      <point x="857" y="398" type="line" smooth="yes"/>
      <point x="857" y="368" type="line" smooth="yes"/>
      <point x="822" y="210" type="line" smooth="yes"/>
      <point x="700" y="162" type="line" smooth="yes"/>
      <point x="700" y="393" type="line" smooth="yes"/>
      <point x="709" y="530" type="line" smooth="yes"/>
      <point x="586" y="530" type="line" smooth="yes"/>
      <point x="575" y="471" type="line" smooth="yes"/>
      <point x="521" y="523" type="line" smooth="yes"/>
      <point x="436" y="543" type="line" smooth="yes"/>
      <point x="297" y="478" type="line" smooth="yes"/>
      <point x="251" y="312" type="line" smooth="yes"/>
      <point x="251" y="278" type="line" smooth="yes"/>
      <point x="297" y="112" type="line" smooth="yes"/>
      <point x="436" y="47" type="line" smooth="yes"/>
      <point x="521" y="67" type="line" smooth="yes"/>
      <point x="575" y="119" type="line" smooth="yes"/>
      <point x="586" y="60" type="line" smooth="yes"/>
      <point x="691" y="60" type="line" smooth="yes"/>
      <point x="886" y="124" type="line" smooth="yes"/>
      <point x="964" y="368" type="line" smooth="yes"/>
      <point x="964" y="398" type="line" smooth="yes"/>
      <point x="828" y="701" type="line" smooth="yes"/>
      <point x="511" y="793" type="line" smooth="yes"/>
      <point x="164" y="669" type="line" smooth="yes"/>
      <point x="27" y="310" type="line" smooth="yes"/>
      <point x="27" y="270" type="line" smooth="yes"/>
      <point x="165" y="-89" type="line" smooth="yes"/>
      <point x="516" y="-213" type="line" smooth="yes"/>
      <point x="704" y="-188" type="line" smooth="yes"/>
      <point x="908" y="-81" type="line" smooth="yes"/>
      <point x="849" y="-1" type="line" smooth="yes"/>
      <point x="693" y="-83" type="line" smooth="yes"/>
      <point x="519" y="-110" type="line" smooth="yes"/>
    </contour>
  </outline>
</glyph>
<glyph name="B" format="1">
  <advance width="631"/>
  <unicode hex="0042"/>
  <outline>
    <contour>
      <point x="311" y="640" type="line" smooth="yes"/>
      <point x="371" y="625" type="line" smooth="yes"/>
      <point x="399" y="561" type="line" smooth="yes"/>
      <point x="399" y="548" type="line" smooth="yes"/>
      <point x="371" y="485" type="line" smooth="yes"/>
      <point x="311" y="469" type="line" smooth="yes"/>
      <point x="218" y="469" type="line" smooth="yes"/>
      <point x="218" y="640" type="line" smooth="yes"/>
    </contour>
    <contour>
      <point x="325" y="328" type="line" smooth="yes"/>
      <point x="389" y="310" type="line" smooth="yes"/>
      <point x="419" y="239" type="line" smooth="yes"/>
      <point x="419" y="230" type="line" smooth="yes"/>
      <point x="389" y="158" type="line" smooth="yes"/>
      <point x="325" y="140" type="line" smooth="yes"/>
      <point x="218" y="140" type="line" smooth="yes"/>
      <point x="218" y="328" type="line" smooth="yes"/>
    </contour>
    <contour>
      <point x="56" y="780" type="line" smooth="yes"/>
      <point x="56" y="0" type="line" smooth="yes"/>
      <point x="320" y="0" type="line" smooth="yes"/>
      <point x="499" y="41" type="line" smooth="yes"/>
      <point x="583" y="224" type="line" smooth="yes"/>
      <point x="583" y="244" type="line" smooth="yes"/>
      <point x="556" y="345" type="line" smooth="yes"/>
      <point x="487" y="403" type="line" smooth="yes"/>
      <point x="542" y="457" type="line" smooth="yes"/>
      <point x="563" y="544" type="line" smooth="yes"/>
      <point x="563" y="564" type="line" smooth="yes"/>
      <point x="483" y="741" type="line" smooth="yes"/>
      <point x="312" y="780" type="line" smooth="yes"/>
    </contour>
  </outline>
</glyph>
<glyph name="K" format="1">
  <advance width="625"/>
  <unicode hex="004B"/>
  <outline>
    <contour>
      <point x="218" y="780" type="line" smooth="yes"/>
      <point x="56" y="780" type="line" smooth="yes"/>
      <point x="56" y="0" type="line" smooth="yes"/>
      <point x="218" y="0" type="line" smooth="yes"/>
      <point x="218" y="225" type="line" smooth="yes"/>
      <point x="284" y="319" type="line" smooth="yes"/>
      <point x="426" y="0" type="line" smooth="yes"/>
      <point x="606" y="0" type="line" smooth="yes"/>
      <point x="387" y="467" type="line" smooth="yes"/>
      <point x="606" y="780" type="line" smooth="yes"/>
      <point x="410" y="780" type="line" smooth="yes"/>
      <point x="218" y="474" type="line" smooth="yes"/>
    </contour>
  </outline>
</glyph>
<glyph name="O" format="1">
  <advance width="673"/>
  <unicode hex="004F"/>
  <outline>
    <contour>
      <point x="332" y="127" type="line" smooth="yes"/>
      <point x="230" y="190" type="line" smooth="yes"/>
      <point x="203" y="370" type="line" smooth="yes"/>
      <point x="203" y="410" type="line" smooth="yes"/>
      <point x="230" y="590" type="line" smooth="yes"/>
      <point x="332" y="653" type="line" smooth="yes"/>
      <point x="341" y="653" type="line" smooth="yes"/>
      <point x="443" y="590" type="line" smooth="yes"/>
      <point x="469" y="410" type="line" smooth="yes"/>
      <point x="469" y="370" type="line" smooth="yes"/>
      <point x="443" y="190" type="line" smooth="yes"/>
      <point x="341" y="127" type="line" smooth="yes"/>
    </contour>
    <contour>
      <point x="336" y="-13" type="line" smooth="yes"/>
      <point x="561" y="77" type="line" smooth="yes"/>
      <point x="634" y="370" type="line" smooth="yes"/>
      <point x="634" y="410" type="line" smooth="yes"/>
      <point x="561" y="703" type="line" smooth="yes"/>
      <point x="336" y="793" type="line" smooth="yes"/>
      <point x="112" y="703" type="line" smooth="yes"/>
      <point x="39" y="410" type="line" smooth="yes"/>
      <point x="39" y="370" type="line" smooth="yes"/>
      <point x="112" y="77" type="line" smooth="yes"/>
    </contour>
  </outline>
</glyph>
<glyph name="P" format="1">
  <advance width="609"/>
  <unicode hex="0050"/>
  <outline>
    <contour>
      <point x="218" y="420" type="line" smooth="yes"/>
      <point x="218" y="640" type="line" smooth="yes"/>
      <point x="319" y="640" type="line" smooth="yes"/>
      <point x="386" y="621" type="line" smooth="yes"/>
      <point x="419" y="535" type="line" smooth="yes"/>
      <point x="419" y="525" type="line" smooth="yes"/>
      <point x="386" y="440" type="line" smooth="yes"/>
      <point x="319" y="420" type="line" smooth="yes"/>
    </contour>
    <contour>
      <point x="218" y="280" type="line" smooth="yes"/>
      <point x="312" y="280" type="line" smooth="yes"/>
      <point x="495" y="322" type="line" smooth="yes"/>
      <point x="583" y="520" type="line" smooth="yes"/>
      <point x="583" y="540" type="line" smooth="yes"/>
      <point x="495" y="738" type="line" smooth="yes"/>
      <point x="312" y="780" type="line" smooth="yes"/>
      <point x="56" y="780" type="line" smooth="yes"/>
      <point x="56" y="0" type="line" smooth="yes"/>
      <point x="218" y="0" type="line" smooth="yes"/>
    </contour>
  </outline>
</glyph>
<glyph name="Q" format="1">
  <advance width="673"/>
  <unicode hex="0051"/>
  <outline>
    <contour>
      <point x="389" y="262" type="line" smooth="yes"/>
      <point x="267" y="262" type="line" smooth="yes"/>
      <point x="319" y="127" type="line" smooth="yes"/>
      <point x="227" y="196" type="line" smooth="yes"/>
      <point x="203" y="370" type="line" smooth="yes"/>
      <point x="203" y="410" type="line" smooth="yes"/>
      <point x="230" y="590" type="line" smooth="yes"/>
      <point x="332" y="653" type="line" smooth="yes"/>
      <point x="341" y="653" type="line" smooth="yes"/>
      <point x="443" y="590" type="line" smooth="yes"/>
      <point x="469" y="410" type="line" smooth="yes"/>
      <point x="469" y="370" type="line" smooth="yes"/>
      <point x="460" y="246" type="line" smooth="yes"/>
      <point x="427" y="165" type="line" smooth="yes"/>
    </contour>
    <contour>
      <point x="336" y="-13" type="line" smooth="yes"/>
      <point x="355" y="-12" type="line" smooth="yes"/>
      <point x="373" y="-11" type="line" smooth="yes"/>
      <point x="407" y="-100" type="line" smooth="yes"/>
      <point x="533" y="-100" type="line" smooth="yes"/>
      <point x="486" y="17" type="line" smooth="yes"/>
      <point x="598" y="140" type="line" smooth="yes"/>
      <point x="634" y="370" type="line" smooth="yes"/>
      <point x="634" y="410" type="line" smooth="yes"/>
      <point x="561" y="703" type="line" smooth="yes"/>
      <point x="336" y="793" type="line" smooth="yes"/>
      <point x="112" y="703" type="line" smooth="yes"/>
      <point x="39" y="410" type="line" smooth="yes"/>
      <point x="39" y="370" type="line" smooth="yes"/>
      <point x="112" y="77" type="line" smooth="yes"/>
    </contour>
  </outline>
</glyph>
<glyph name="U" format="1">
  <advance width="663"/>
  <unicode hex="0055"/>
  <outline>
    <contour>
      <point x="331" y="-13" type="line" smooth="yes"/>
      <point x="551" y="53" type="line" smooth="yes"/>
      <point x="612" y="247" type="line" smooth="yes"/>
      <point x="612" y="780" type="line" smooth="yes"/>
      <point x="450" y="780" type="line" smooth="yes"/>
      <point x="450" y="252" type="line" smooth="yes"/>
      <point x="425" y="158" type="line" smooth="yes"/>
      <point x="331" y="127" type="line" smooth="yes"/>
      <point x="238" y="158" type="line" smooth="yes"/>
      <point x="213" y="252" type="line" smooth="yes"/>
      <point x="213" y="780" type="line" smooth="yes"/>
      <point x="51" y="780" type="line" smooth="yes"/>
      <point x="51" y="247" type="line" smooth="yes"/>
      <point x="112" y="53" type="line" smooth="yes"/>
    </contour>
  </outline>
</glyph>
<glyph name="underscore" format="1">
  <advance width="320"/>
  <unicode hex="005F"/>
  <outline>
    <contour>
      <point x="42" y="-185" type="line" smooth="yes"/>
      <point x="278" y="-185" type="line" smooth="yes"/>
      <point x="278" y="-47" type="line" smooth="yes"/>
      <point x="42" y="-47" type="line" smooth="yes"/>
    </contour>
  </outline>
</glyph>
<glyph name="b" format="1">
  <advance width="574"/>
  <unicode hex="0062"/>
  <outline>
    <contour>
      <point x="211" y="357" type="line" smooth="yes"/>
      <point x="243" y="389" type="line" smooth="yes"/>
      <point x="301" y="407" type="line" smooth="yes"/>
      <point x="366" y="374" type="line" smooth="yes"/>
      <point x="386" y="283" type="line" smooth="yes"/>
      <point x="386" y="247" type="line" smooth="yes"/>
      <point x="366" y="156" type="line" smooth="yes"/>
      <point x="301" y="123" type="line" smooth="yes"/>
      <point x="243" y="141" type="line" smooth="yes"/>
      <point x="211" y="173" type="line" smooth="yes"/>
    </contour>
    <contour>
      <point x="211" y="800" type="line" smooth="yes"/>
      <point x="53" y="800" type="line" smooth="yes"/>
      <point x="53" y="150" type="line" smooth="yes"/>
      <point x="44" y="0" type="line" smooth="yes"/>
      <point x="185" y="0" type="line" smooth="yes"/>
      <point x="196" y="64" type="line" smooth="yes"/>
      <point x="255" y="9" type="line" smooth="yes"/>
      <point x="347" y="-13" type="line" smooth="yes"/>
      <point x="500" y="60" type="line" smooth="yes"/>
      <point x="544" y="247" type="line" smooth="yes"/>
      <point x="544" y="283" type="line" smooth="yes"/>
      <point x="500" y="470" type="line" smooth="yes"/>
      <point x="347" y="543" type="line" smooth="yes"/>
      <point x="267" y="527" type="line" smooth="yes"/>
      <point x="211" y="485" type="line" smooth="yes"/>
    </contour>
  </outline>
</glyph>
<glyph name="d" format="1">
  <advance width="582"/>
  <unicode hex="0064"/>
  <outline>
    <contour>
      <point x="371" y="357" type="line" smooth="yes"/>
      <point x="371" y="173" type="line" smooth="yes"/>
      <point x="339" y="141" type="line" smooth="yes"/>
      <point x="281" y="123" type="line" smooth="yes"/>
      <point x="215" y="156" type="line" smooth="yes"/>
      <point x="195" y="247" type="line" smooth="yes"/>
      <point x="195" y="283" type="line" smooth="yes"/>
      <point x="215" y="374" type="line" smooth="yes"/>
      <point x="281" y="407" type="line" smooth="yes"/>
      <point x="339" y="389" type="line" smooth="yes"/>
    </contour>
    <contour>
      <point x="235" y="543" type="line" smooth="yes"/>
      <point x="82" y="470" type="line" smooth="yes"/>
      <point x="38" y="283" type="line" smooth="yes"/>
      <point x="38" y="247" type="line" smooth="yes"/>
      <point x="82" y="60" type="line" smooth="yes"/>
      <point x="235" y="-13" type="line" smooth="yes"/>
      <point x="326" y="9" type="line" smooth="yes"/>
      <point x="385" y="63" type="line" smooth="yes"/>
      <point x="396" y="0" type="line" smooth="yes"/>
      <point x="538" y="0" type="line" smooth="yes"/>
      <point x="529" y="150" type="line" smooth="yes"/>
      <point x="529" y="800" type="line" smooth="yes"/>
      <point x="371" y="800" type="line" smooth="yes"/>
      <point x="371" y="485" type="line" smooth="yes"/>
      <point x="315" y="527" type="line" smooth="yes"/>
    </contour>
  </outline>
</glyph>
<glyph name="h" format="1">
  <advance width="580"/>
  <unicode hex="0068"/>
  <outline>
    <contour>
      <point x="212" y="800" type="line" smooth="yes"/>
      <point x="54" y="800" type="line" smooth="yes"/>
      <point x="54" y="0" type="line" smooth="yes"/>
      <point x="212" y="0" type="line" smooth="yes"/>
      <point x="212" y="357" type="line" smooth="yes"/>
      <point x="244" y="389" type="line" smooth="yes"/>
      <point x="305" y="407" type="line" smooth="yes"/>
      <point x="360" y="384" type="line" smooth="yes"/>
      <point x="375" y="333" type="line" smooth="yes"/>
      <point x="375" y="0" type="line" smooth="yes"/>
      <point x="532" y="0" type="line" smooth="yes"/>
      <point x="532" y="359" type="line" smooth="yes"/>
      <point x="495" y="487" type="line" smooth="yes"/>
      <point x="368" y="543" type="line" smooth="yes"/>
      <point x="276" y="525" type="line" smooth="yes"/>
      <point x="212" y="479" type="line" smooth="yes"/>
    </contour>
  </outline>
</glyph>
<glyph name="j" format="1">
  <advance width="268"/>
  <unicode hex="006A"/>
  <outline>
    <contour>
      <point x="216" y="772" type="line" smooth="yes"/>
      <point x="50" y="772" type="line" smooth="yes"/>
      <point x="50" y="605" type="line" smooth="yes"/>
      <point x="216" y="605" type="line" smooth="yes"/>
    </contour>
    <contour>
      <point x="54" y="1" type="line" smooth="yes"/>
      <point x="33" y="-62" type="line" smooth="yes"/>
      <point x="-24" y="-77" type="line" smooth="yes"/>
      <point x="-53" y="-75" type="line" smooth="yes"/>
      <point x="-73" y="-70" type="line" smooth="yes"/>
      <point x="-73" y="-200" type="line" smooth="yes"/>
      <point x="-45" y="-208" type="line" smooth="yes"/>
      <point x="13" y="-213" type="line" smooth="yes"/>
      <point x="157" y="-169" type="line" smooth="yes"/>
      <point x="212" y="-16" type="line" smooth="yes"/>
      <point x="212" y="530" type="line" smooth="yes"/>
      <point x="54" y="530" type="line" smooth="yes"/>
    </contour>
  </outline>
</glyph>
<glyph name="n" format="1">
  <advance width="580"/>
  <unicode hex="006E"/>
  <outline>
    <contour>
      <point x="532" y="0" type="line" smooth="yes"/>
      <point x="532" y="359" type="line" smooth="yes"/>
      <point x="495" y="487" type="line" smooth="yes"/>
      <point x="368" y="543" type="line" smooth="yes"/>
      <point x="265" y="520" type="line" smooth="yes"/>
      <point x="198" y="462" type="line" smooth="yes"/>
      <point x="186" y="530" type="line" smooth="yes"/>
      <point x="45" y="530" type="line" smooth="yes"/>
      <point x="54" y="380" type="line" smooth="yes"/>
      <point x="54" y="0" type="line" smooth="yes"/>
      <point x="212" y="0" type="line" smooth="yes"/>
      <point x="212" y="357" type="line" smooth="yes"/>
      <point x="244" y="389" type="line" smooth="yes"/>
      <point x="305" y="407" type="line" smooth="yes"/>
      <point x="360" y="384" type="line" smooth="yes"/>
      <point x="375" y="333" type="line" smooth="yes"/>
      <point x="375" y="0" type="line" smooth="yes"/>
    </contour>
  </outline>
</glyph>
<glyph name="q" format="1">
  <advance width="581"/>
  <unicode hex="0071"/>
  <outline>
    <contour>
      <point x="366" y="173" type="line" smooth="yes"/>
      <point x="334" y="141" type="line" smooth="yes"/>
      <point x="276" y="123" type="line" smooth="yes"/>
      <point x="210" y="156" type="line" smooth="yes"/>
      <point x="190" y="247" type="line" smooth="yes"/>
      <point x="190" y="283" type="line" smooth="yes"/>
      <point x="210" y="374" type="line" smooth="yes"/>
      <point x="276" y="407" type="line" smooth="yes"/>
      <point x="334" y="389" type="line" smooth="yes"/>
      <point x="366" y="357" type="line" smooth="yes"/>
    </contour>
    <contour>
      <point x="366" y="-200" type="line" smooth="yes"/>
      <point x="524" y="-200" type="line" smooth="yes"/>
      <point x="524" y="380" type="line" smooth="yes"/>
      <point x="533" y="530" type="line" smooth="yes"/>
      <point x="391" y="530" type="line" smooth="yes"/>
      <point x="380" y="466" type="line" smooth="yes"/>
      <point x="321" y="521" type="line" smooth="yes"/>
      <point x="230" y="543" type="line" smooth="yes"/>
      <point x="77" y="470" type="line" smooth="yes"/>
      <point x="33" y="283" type="line" smooth="yes"/>
      <point x="33" y="247" type="line" smooth="yes"/>
      <point x="77" y="60" type="line" smooth="yes"/>
      <point x="230" y="-13" type="line" smooth="yes"/>
      <point x="310" y="3" type="line" smooth="yes"/>
      <point x="366" y="45" type="line" smooth="yes"/>
    </contour>
  </outline>
</glyph>
<glyph name="r" format="1">
  <advance width="385"/>
  <unicode hex="0072"/>
  <outline>
    <contour>
      <point x="338" y="543" type="line" smooth="yes"/>
      <point x="256" y="522" type="line" smooth="yes"/>
      <point x="197" y="468" type="line" smooth="yes"/>
      <point x="186" y="530" type="line" smooth="yes"/>
      <point x="45" y="530" type="line" smooth="yes"/>
      <point x="54" y="380" type="line" smooth="yes"/>
      <point x="54" y="0" type="line" smooth="yes"/>
      <point x="212" y="0" type="line" smooth="yes"/>
      <point x="212" y="344" type="line" smooth="yes"/>
      <point x="250" y="375" type="line" smooth="yes"/>
      <point x="326" y="390" type="line" smooth="yes"/>
      <point x="353" y="390" type="line" smooth="yes"/>
      <point x="353" y="542" type="line" smooth="yes"/>
      <point x="346" y="543" type="line" smooth="yes"/>
    </contour>
  </outline>
</glyph>
<glyph name="s" format="1">
  <advance width="528"/>
  <unicode hex="0073"/>
  <outline>
    <contour>
      <point x="264" y="107" type="line" smooth="yes"/>
      <point x="208" y="124" type="line" smooth="yes"/>
      <point x="192" y="168" type="line" smooth="yes"/>
      <point x="35" y="168" type="line" smooth="yes"/>
      <point x="35" y="163" type="line" smooth="yes"/>
      <point x="91" y="36" type="line" smooth="yes"/>
      <point x="264" y="-13" type="line" smooth="yes"/>
      <point x="436" y="35" type="line" smooth="yes"/>
      <point x="494" y="165" type="line" smooth="yes"/>
      <point x="494" y="174" type="line" smooth="yes"/>
      <point x="433" y="287" type="line" smooth="yes"/>
      <point x="273" y="324" type="line" smooth="yes"/>
      <point x="212" y="339" type="line" smooth="yes"/>
      <point x="197" y="375" type="line" smooth="yes"/>
      <point x="214" y="410" type="line" smooth="yes"/>
      <point x="264" y="423" type="line" smooth="yes"/>
      <point x="316" y="405" type="line" smooth="yes"/>
      <point x="332" y="356" type="line" smooth="yes"/>
      <point x="487" y="356" type="line" smooth="yes"/>
      <point x="487" y="361" type="line" smooth="yes"/>
      <point x="434" y="495" type="line" smooth="yes"/>
      <point x="264" y="543" type="line" smooth="yes"/>
      <point x="105" y="502" type="line" smooth="yes"/>
      <point x="41" y="370" type="line" smooth="yes"/>
      <point x="41" y="361" type="line" smooth="yes"/>
      <point x="92" y="254" type="line" smooth="yes"/>
      <point x="256" y="212" type="line" smooth="yes"/>
      <point x="319" y="196" type="line" smooth="yes"/>
      <point x="335" y="159" type="line" smooth="yes"/>
      <point x="319" y="122" type="line" smooth="yes"/>
    </contour>
  </outline>
</glyph>
<glyph name="braceleft" format="1">
  <advance width="365"/>
  <unicode hex="007B"/>
  <outline>
    <contour>
      <point x="332" y="840" type="line" smooth="yes"/>
      <point x="305" y="840" type="line" smooth="yes"/>
      <point x="156" y="801" type="line" smooth="yes"/>
      <point x="99" y="662" type="line" smooth="yes"/>
      <point x="99" y="511" type="line" smooth="yes"/>
      <point x="81" y="448" type="line" smooth="yes"/>
      <point x="24" y="429" type="line" smooth="yes"/>
      <point x="24" y="291" type="line" smooth="yes"/>
      <point x="78" y="274" type="line" smooth="yes"/>
      <point x="99" y="217" type="line" smooth="yes"/>
      <point x="99" y="58" type="line" smooth="yes"/>
      <point x="156" y="-81" type="line" smooth="yes"/>
      <point x="305" y="-120" type="line" smooth="yes"/>
      <point x="332" y="-120" type="line" smooth="yes"/>
      <point x="332" y="18" type="line" smooth="yes"/>
      <point x="275" y="38" type="line" smooth="yes"/>
      <point x="256" y="103" type="line" smooth="yes"/>
      <point x="256" y="244" type="line" smooth="yes"/>
      <point x="241" y="315" type="line" smooth="yes"/>
      <point x="196" y="360" type="line" smooth="yes"/>
      <point x="241" y="405" type="line" smooth="yes"/>
      <point x="256" y="476" type="line" smooth="yes"/>
      <point x="256" y="626" type="line" smooth="yes"/>
      <point x="276" y="684" type="line" smooth="yes"/>
      <point x="332" y="702" type="line" smooth="yes"/>
    </contour>
  </outline>
</glyph>
<glyph name="braceright" format="1">
  <advance width="365"/>
  <unicode hex="007D"/>
  <outline>
    <contour>
      <point x="33" y="-120" type="line" smooth="yes"/>
      <point x="60" y="-120" type="line" smooth="yes"/>
      <point x="210" y="-81" type="line" smooth="yes"/>
      <point x="266" y="58" type="line" smooth="yes"/>
      <point x="266" y="209" type="line" smooth="yes"/>
      <point x="284" y="272" type="line" smooth="yes"/>
      <point x="341" y="291" type="line" smooth="yes"/>
      <point x="341" y="429" type="line" smooth="yes"/>
      <point x="286" y="446" type="line" smooth="yes"/>
      <point x="266" y="502" type="line" smooth="yes"/>
      <point x="266" y="662" type="line" smooth="yes"/>
      <point x="210" y="801" type="line" smooth="yes"/>
      <point x="60" y="840" type="line" smooth="yes"/>
      <point x="33" y="840" type="line" smooth="yes"/>
      <point x="33" y="702" type="line" smooth="yes"/>
      <point x="90" y="682" type="line" smooth="yes"/>
      <point x="109" y="617" type="line" smooth="yes"/>
      <point x="109" y="476" type="line" smooth="yes"/>
      <point x="124" y="405" type="line" smooth="yes"/>
      <point x="168" y="360" type="line" smooth="yes"/>
      <point x="124" y="315" type="line" smooth="yes"/>
      <point x="109" y="244" type="line" smooth="yes"/>
      <point x="109" y="103" type="line" smooth="yes"/>
      <point x="90" y="38" type="line" smooth="yes"/>
      <point x="33" y="18" type="line" smooth="yes"/>
    </contour>
  </outline>
</glyph>
<glyph name="asciitilde" format="1">
  <advance width="600"/>
  <unicode hex="007E"/>
  <outline>
    <contour>
      <point x="184" y="482" type="line" smooth="yes"/>
      <point x="91" y="454" type="line" smooth="yes"/>
      <point x="28" y="387" type="line" smooth="yes"/>
      <point x="102" y="313" type="line" smooth="yes"/>
      <point x="137" y="344" type="line" smooth="yes"/>
      <point x="190" y="361" type="line" smooth="yes"/>
      <point x="291" y="329" type="line" smooth="yes"/>
      <point x="416" y="296" type="line" smooth="yes"/>
      <point x="509" y="324" type="line" smooth="yes"/>
      <point x="572" y="391" type="line" smooth="yes"/>
      <point x="498" y="465" type="line" smooth="yes"/>
      <point x="463" y="434" type="line" smooth="yes"/>
      <point x="410" y="417" type="line" smooth="yes"/>
      <point x="309" y="450" type="line" smooth="yes"/>
    </contour>
  </outline>
</glyph>
<glyph name="cent" format="1">
  <advance width="600"/>
  <unicode hex="00A2"/>
  <outline>
    <contour>
      <point x="561" y="466" type="line" smooth="yes"/>
      <point x="561" y="496" type="line" smooth="yes"/>
      <point x="529" y="632" type="line" smooth="yes"/>
      <point x="433" y="711" type="line" smooth="yes"/>
      <point x="464" y="840" type="line" smooth="yes"/>
      <point x="342" y="840" type="line" smooth="yes"/>
      <point x="316" y="731" type="line" smooth="yes"/>
      <point x="307" y="731" type="line" smooth="yes"/>
      <point x="104" y="650" type="line" smooth="yes"/>
      <point x="39" y="409" type="line" smooth="yes"/>
      <point x="39" y="371" type="line" smooth="yes"/>
      <point x="69" y="191" type="line" smooth="yes"/>
      <point x="161" y="83" type="line" smooth="yes"/>
      <point x="127" y="-60" type="line" smooth="yes"/>
      <point x="249" y="-60" type="line" smooth="yes"/>
      <point x="275" y="51" type="line" smooth="yes"/>
      <point x="291" y="50" type="line" smooth="yes"/>
      <point x="307" y="50" type="line" smooth="yes"/>
      <point x="497" y="108" type="line" smooth="yes"/>
      <point x="561" y="278" type="line" smooth="yes"/>
      <point x="561" y="294" type="line" smooth="yes"/>
      <point x="405" y="294" type="line" smooth="yes"/>
      <point x="385" y="218" type="line" smooth="yes"/>
      <point x="314" y="189" type="line" smooth="yes"/>
      <point x="307" y="189" type="line" smooth="yes"/>
      <point x="224" y="239" type="line" smooth="yes"/>
      <point x="200" y="373" type="line" smooth="yes"/>
      <point x="200" y="409" type="line" smooth="yes"/>
      <point x="224" y="543" type="line" smooth="yes"/>
      <point x="307" y="593" type="line" smooth="yes"/>
      <point x="314" y="593" type="line" smooth="yes"/>
      <point x="385" y="560" type="line" smooth="yes"/>
      <point x="405" y="466" type="line" smooth="yes"/>
    </contour>
  </outline>
</glyph>
<glyph name="sterling" format="1">
  <advance width="600"/>
  <unicode hex="00A3"/>
  <outline>
    <contour>
      <point x="322" y="654" type="line" smooth="yes"/>
      <point x="381" y="613" type="line" smooth="yes"/>
      <point x="398" y="500" type="line" smooth="yes"/>
      <point x="557" y="500" type="line" smooth="yes"/>
      <point x="557" y="517" type="line" smooth="yes"/>
      <point x="504" y="724" type="line" smooth="yes"/>
      <point x="322" y="793" type="line" smooth="yes"/>
      <point x="141" y="727" type="line" smooth="yes"/>
      <point x="92" y="583" type="line" smooth="yes"/>
      <point x="98" y="504" type="line" smooth="yes"/>
      <point x="112" y="434" type="line" smooth="yes"/>
      <point x="44" y="434" type="line" smooth="yes"/>
      <point x="44" y="297" type="line" smooth="yes"/>
      <point x="157" y="297" type="line" smooth="yes"/>
      <point x="180" y="221" type="line" smooth="yes"/>
      <point x="197" y="139" type="line" smooth="yes"/>
      <point x="44" y="139" type="line" smooth="yes"/>
      <point x="44" y="0" type="line" smooth="yes"/>
      <point x="556" y="0" type="line" smooth="yes"/>
      <point x="556" y="139" type="line" smooth="yes"/>
      <point x="335" y="139" type="line" smooth="yes"/>
      <point x="325" y="222" type="line" smooth="yes"/>
      <point x="310" y="297" type="line" smooth="yes"/>
      <point x="450" y="297" type="line" smooth="yes"/>
      <point x="450" y="434" type="line" smooth="yes"/>
      <point x="274" y="434" type="line" smooth="yes"/>
      <point x="258" y="504" type="line" smooth="yes"/>
      <point x="252" y="570" type="line" smooth="yes"/>
      <point x="268" y="631" type="line" smooth="yes"/>
    </contour>
  </outline>
</glyph>
<glyph name="section" format="1">
  <advance width="549"/>
  <unicode hex="00A7"/>
  <outline>
    <contour>
      <point x="273" y="455" type="line" smooth="yes"/>
      <point x="340" y="437" type="line" smooth="yes"/>
      <point x="360" y="390" type="line" smooth="yes"/>
      <point x="342" y="345" type="line" smooth="yes"/>
      <point x="284" y="325" type="line" smooth="yes"/>
      <point x="275" y="325" type="line" smooth="yes"/>
      <point x="209" y="343" type="line" smooth="yes"/>
      <point x="189" y="390" type="line" smooth="yes"/>
      <point x="207" y="435" type="line" smooth="yes"/>
      <point x="264" y="455" type="line" smooth="yes"/>
    </contour>
    <contour>
      <point x="518" y="393" type="line" smooth="yes"/>
      <point x="518" y="402" type="line" smooth="yes"/>
      <point x="458" y="524" type="line" smooth="yes"/>
      <point x="298" y="565" type="line" smooth="yes"/>
      <point x="236" y="585" type="line" smooth="yes"/>
      <point x="220" y="625" type="line" smooth="yes"/>
      <point x="238" y="661" type="line" smooth="yes"/>
      <point x="288" y="674" type="line" smooth="yes"/>
      <point x="341" y="656" type="line" smooth="yes"/>
      <point x="357" y="606" type="line" smooth="yes"/>
      <point x="511" y="606" type="line" smooth="yes"/>
      <point x="511" y="611" type="line" smooth="yes"/>
      <point x="458" y="745" type="line" smooth="yes"/>
      <point x="288" y="793" type="line" smooth="yes"/>
      <point x="130" y="752" type="line" smooth="yes"/>
      <point x="66" y="620" type="line" smooth="yes"/>
      <point x="66" y="611" type="line" smooth="yes"/>
      <point x="74" y="556" type="line" smooth="yes"/>
      <point x="100" y="512" type="line" smooth="yes"/>
      <point x="49" y="462" type="line" smooth="yes"/>
      <point x="31" y="387" type="line" smooth="yes"/>
      <point x="31" y="378" type="line" smooth="yes"/>
      <point x="91" y="256" type="line" smooth="yes"/>
      <point x="251" y="215" type="line" smooth="yes"/>
      <point x="312" y="195" type="line" smooth="yes"/>
      <point x="328" y="155" type="line" smooth="yes"/>
      <point x="311" y="119" type="line" smooth="yes"/>
      <point x="260" y="106" type="line" smooth="yes"/>
      <point x="208" y="124" type="line" smooth="yes"/>
      <point x="192" y="174" type="line" smooth="yes"/>
      <point x="38" y="174" type="line" smooth="yes"/>
      <point x="38" y="169" type="line" smooth="yes"/>
      <point x="91" y="35" type="line" smooth="yes"/>
      <point x="260" y="-13" type="line" smooth="yes"/>
      <point x="419" y="28" type="line" smooth="yes"/>
      <point x="483" y="160" type="line" smooth="yes"/>
      <point x="483" y="169" type="line" smooth="yes"/>
      <point x="474" y="224" type="line" smooth="yes"/>
      <point x="448" y="267" type="line" smooth="yes"/>
      <point x="500" y="318" type="line" smooth="yes"/>
    </contour>
  </outline>
</glyph>
<glyph name="guillemotleft" format="1">
  <advance width="565"/>
  <unicode hex="00AB"/>
  <outline>
    <contour>
      <point x="515" y="563" type="line" smooth="yes"/>
      <point x="299" y="416" type="line" smooth="yes"/>
      <point x="299" y="264" type="line" smooth="yes"/>
      <point x="515" y="117" type="line" smooth="yes"/>
      <point x="515" y="256" type="line" smooth="yes"/>
      <point x="406" y="340" type="line" smooth="yes"/>
      <point x="515" y="424" type="line" smooth="yes"/>
    </contour>
    <contour>
      <point x="266" y="563" type="line" smooth="yes"/>
      <point x="50" y="416" type="line" smooth="yes"/>
      <point x="50" y="264" type="line" smooth="yes"/>
      <point x="266" y="117" type="line" smooth="yes"/>
      <point x="266" y="256" type="line" smooth="yes"/>
      <point x="157" y="340" type="line" smooth="yes"/>
      <point x="266" y="424" type="line" smooth="yes"/>
    </contour>
  </outline>
</glyph>
<glyph name="twosuperior" format="1">
  <advance width="300"/>
  <unicode hex="00B2"/>
  <outline>
    <contour>
      <point x="284" y="493" type="line" smooth="yes"/>
      <point x="179" y="493" type="line" smooth="yes"/>
      <point x="241" y="562" type="line" smooth="yes"/>
      <point x="273" y="606" type="line" smooth="yes"/>
      <point x="284" y="659" type="line" smooth="yes"/>
      <point x="284" y="677" type="line" smooth="yes"/>
      <point x="257" y="751" type="line" smooth="yes"/>
      <point x="149" y="793" type="line" smooth="yes"/>
      <point x="40" y="749" type="line" smooth="yes"/>
      <point x="13" y="665" type="line" smooth="yes"/>
      <point x="13" y="650" type="line" smooth="yes"/>
      <point x="133" y="650" type="line" smooth="yes"/>
      <point x="136" y="679" type="line" smooth="yes"/>
      <point x="147" y="689" type="line" smooth="yes"/>
      <point x="150" y="689" type="line" smooth="yes"/>
      <point x="161" y="680" type="line" smooth="yes"/>
      <point x="164" y="662" type="line" smooth="yes"/>
      <point x="164" y="651" type="line" smooth="yes"/>
      <point x="161" y="634" type="line" smooth="yes"/>
      <point x="151" y="619" type="line" smooth="yes"/>
      <point x="13" y="466" type="line" smooth="yes"/>
      <point x="13" y="390" type="line" smooth="yes"/>
      <point x="284" y="390" type="line" smooth="yes"/>
    </contour>
  </outline>
</glyph>
<glyph name="threesuperior" format="1">
  <advance width="300"/>
  <unicode hex="00B3"/>
  <outline>
    <contour>
      <point x="131" y="515" type="line" smooth="yes"/>
      <point x="11" y="515" type="line" smooth="yes"/>
      <point x="11" y="507" type="line" smooth="yes"/>
      <point x="49" y="412" type="line" smooth="yes"/>
      <point x="150" y="377" type="line" smooth="yes"/>
      <point x="251" y="409" type="line" smooth="yes"/>
      <point x="288" y="492" type="line" smooth="yes"/>
      <point x="288" y="502" type="line" smooth="yes"/>
      <point x="272" y="557" type="line" smooth="yes"/>
      <point x="236" y="589" type="line" smooth="yes"/>
      <point x="270" y="620" type="line" smooth="yes"/>
      <point x="284" y="674" type="line" smooth="yes"/>
      <point x="284" y="684" type="line" smooth="yes"/>
      <point x="257" y="752" type="line" smooth="yes"/>
      <point x="149" y="793" type="line" smooth="yes"/>
      <point x="40" y="749" type="line" smooth="yes"/>
      <point x="13" y="659" type="line" smooth="yes"/>
      <point x="13" y="650" type="line" smooth="yes"/>
      <point x="133" y="650" type="line" smooth="yes"/>
      <point x="136" y="679" type="line" smooth="yes"/>
      <point x="147" y="689" type="line" smooth="yes"/>
      <point x="150" y="689" type="line" smooth="yes"/>
      <point x="161" y="679" type="line" smooth="yes"/>
      <point x="164" y="664" type="line" smooth="yes"/>
      <point x="164" y="662" type="line" smooth="yes"/>
      <point x="161" y="644" type="line" smooth="yes"/>
      <point x="149" y="637" type="line" smooth="yes"/>
      <point x="100" y="637" type="line" smooth="yes"/>
      <point x="100" y="541" type="line" smooth="yes"/>
      <point x="150" y="541" type="line" smooth="yes"/>
      <point x="164" y="534" type="line" smooth="yes"/>
      <point x="169" y="516" type="line" smooth="yes"/>
      <point x="169" y="511" type="line" smooth="yes"/>
      <point x="163" y="489" type="line" smooth="yes"/>
      <point x="152" y="481" type="line" smooth="yes"/>
      <point x="149" y="481" type="line" smooth="yes"/>
      <point x="137" y="488" type="line" smooth="yes"/>
    </contour>
  </outline>
</glyph>
<glyph name="cedilla" format="1">
  <advance width="602"/>
  <unicode hex="00B8"/>
  <outline>
    <contour>
      <point x="144" y="-190" type="line" smooth="yes"/>
      <point x="186" y="-207" type="line" smooth="yes"/>
      <point x="251" y="-215" type="line" smooth="yes"/>
      <point x="341" y="-192" type="line" smooth="yes"/>
      <point x="371" y="-127" type="line" smooth="yes"/>
      <point x="342" y="-64" type="line" smooth="yes"/>
      <point x="271" y="-40" type="line" smooth="yes"/>
      <point x="286" y="0" type="line" smooth="yes"/>
      <point x="214" y="0" type="line" smooth="yes"/>
      <point x="185" y="-72" type="line" smooth="yes"/>
      <point x="200" y="-100" type="line" smooth="yes"/>
      <point x="212" y="-98" type="line" smooth="yes"/>
      <point x="238" y="-95" type="line" smooth="yes"/>
      <point x="274" y="-101" type="line" smooth="yes"/>
      <point x="286" y="-118" type="line" smooth="yes"/>
      <point x="276" y="-135" type="line" smooth="yes"/>
      <point x="239" y="-141" type="line" smooth="yes"/>
      <point x="199" y="-136" type="line" smooth="yes"/>
      <point x="167" y="-124" type="line" smooth="yes"/>
    </contour>
  </outline>
</glyph>
<glyph name="onequarter" format="1">
  <advance width="800"/>
  <unicode hex="00BC"/>
  <outline>
    <contour>
      <point x="637" y="229" type="line" smooth="yes"/>
      <point x="637" y="172" type="line" smooth="yes"/>
      <point x="606" y="172" type="line" smooth="yes"/>
    </contour>
    <contour>
      <point x="290" y="390" type="line" smooth="yes"/>
      <point x="290" y="493" type="line" smooth="yes"/>
      <point x="219" y="493" type="line" smooth="yes"/>
      <point x="219" y="781" type="line" smooth="yes"/>
      <point x="129" y="781" type="line" smooth="yes"/>
      <point x="5" y="697" type="line" smooth="yes"/>
      <point x="64" y="612" type="line" smooth="yes"/>
      <point x="99" y="635" type="line" smooth="yes"/>
      <point x="99" y="493" type="line" smooth="yes"/>
      <point x="27" y="493" type="line" smooth="yes"/>
      <point x="27" y="390" type="line" smooth="yes"/>
    </contour>
    <contour>
      <point x="757" y="0" type="line" smooth="yes"/>
      <point x="757" y="68" type="line" smooth="yes"/>
      <point x="789" y="68" type="line" smooth="yes"/>
      <point x="789" y="172" type="line" smooth="yes"/>
      <point x="757" y="172" type="line" smooth="yes"/>
      <point x="757" y="390" type="line" smooth="yes"/>
      <point x="636" y="390" type="line" smooth="yes"/>
      <point x="510" y="160" type="line" smooth="yes"/>
      <point x="510" y="68" type="line" smooth="yes"/>
      <point x="637" y="68" type="line" smooth="yes"/>
      <point x="637" y="0" type="line" smooth="yes"/>
    </contour>
    <contour>
      <point x="179" y="0" type="line" smooth="yes"/>
      <point x="755" y="780" type="line" smooth="yes"/>
      <point x="621" y="780" type="line" smooth="yes"/>
      <point x="45" y="0" type="line" smooth="yes"/>
    </contour>
  </outline>
</glyph>
<glyph name="threequarters" format="1">
  <advance width="800"/>
  <unicode hex="00BE"/>
  <outline>
    <contour>
      <point x="637" y="229" type="line" smooth="yes"/>
      <point x="637" y="172" type="line" smooth="yes"/>
      <point x="606" y="172" type="line" smooth="yes"/>
    </contour>
    <contour>
      <point x="757" y="0" type="line" smooth="yes"/>
      <point x="757" y="68" type="line" smooth="yes"/>
      <point x="789" y="68" type="line" smooth="yes"/>
      <point x="789" y="172" type="line" smooth="yes"/>
      <point x="757" y="172" type="line" smooth="yes"/>
      <point x="757" y="390" type="line" smooth="yes"/>
      <point x="636" y="390" type="line" smooth="yes"/>
      <point x="510" y="160" type="line" smooth="yes"/>
      <point x="510" y="68" type="line" smooth="yes"/>
      <point x="637" y="68" type="line" smooth="yes"/>
      <point x="637" y="0" type="line" smooth="yes"/>
    </contour>
    <contour>
      <point x="131" y="515" type="line" smooth="yes"/>
      <point x="11" y="515" type="line" smooth="yes"/>
      <point x="11" y="507" type="line" smooth="yes"/>
      <point x="49" y="412" type="line" smooth="yes"/>
      <point x="150" y="377" type="line" smooth="yes"/>
      <point x="251" y="409" type="line" smooth="yes"/>
      <point x="288" y="492" type="line" smooth="yes"/>
      <point x="288" y="502" type="line" smooth="yes"/>
      <point x="272" y="557" type="line" smooth="yes"/>
      <point x="236" y="589" type="line" smooth="yes"/>
      <point x="270" y="620" type="line" smooth="yes"/>
      <point x="284" y="674" type="line" smooth="yes"/>
      <point x="284" y="684" type="line" smooth="yes"/>
      <point x="257" y="752" type="line" smooth="yes"/>
      <point x="149" y="793" type="line" smooth="yes"/>
      <point x="40" y="749" type="line" smooth="yes"/>
      <point x="13" y="659" type="line" smooth="yes"/>
      <point x="13" y="650" type="line" smooth="yes"/>
      <point x="133" y="650" type="line" smooth="yes"/>
      <point x="136" y="679" type="line" smooth="yes"/>
      <point x="147" y="689" type="line" smooth="yes"/>
      <point x="150" y="689" type="line" smooth="yes"/>
      <point x="161" y="679" type="line" smooth="yes"/>
      <point x="164" y="664" type="line" smooth="yes"/>
      <point x="164" y="662" type="line" smooth="yes"/>
      <point x="161" y="644" type="line" smooth="yes"/>
      <point x="149" y="637" type="line" smooth="yes"/>
      <point x="100" y="637" type="line" smooth="yes"/>
      <point x="100" y="541" type="line" smooth="yes"/>
      <point x="150" y="541" type="line" smooth="yes"/>
      <point x="164" y="534" type="line" smooth="yes"/>
      <point x="169" y="516" type="line" smooth="yes"/>
      <point x="169" y="511" type="line" smooth="yes"/>
      <point x="163" y="489" type="line" smooth="yes"/>
      <point x="152" y="481" type="line" smooth="yes"/>
      <point x="149" y="481" type="line" smooth="yes"/>
      <point x="137" y="488" type="line" smooth="yes"/>
    </contour>
    <contour>
      <point x="179" y="0" type="line" smooth="yes"/>
      <point x="755" y="780" type="line" smooth="yes"/>
      <point x="621" y="780" type="line" smooth="yes"/>
      <point x="45" y="0" type="line" smooth="yes"/>
    </contour>
  </outline>
</glyph>
<glyph name="questiondown" format="1">
  <advance width="497"/>
  <unicode hex="00BF"/>
  <outline>
    <contour>
      <point x="169" y="363" type="line" smooth="yes"/>
      <point x="335" y="363" type="line" smooth="yes"/>
      <point x="335" y="530" type="line" smooth="yes"/>
      <point x="169" y="530" type="line" smooth="yes"/>
    </contour>
    <contour>
      <point x="244" y="-74" type="line" smooth="yes"/>
      <point x="193" y="-58" type="line" smooth="yes"/>
      <point x="177" y="-13" type="line" smooth="yes"/>
      <point x="247" y="118" type="line" smooth="yes"/>
      <point x="308" y="302" type="line" smooth="yes"/>
      <point x="197" y="302" type="line" smooth="yes"/>
      <point x="103" y="153" type="line" smooth="yes"/>
      <point x="18" y="-26" type="line" smooth="yes"/>
      <point x="66" y="-154" type="line" smooth="yes"/>
      <point x="244" y="-213" type="line" smooth="yes"/>
      <point x="424" y="-147" type="line" smooth="yes"/>
      <point x="475" y="43" type="line" smooth="yes"/>
      <point x="475" y="60" type="line" smooth="yes"/>
      <point x="317" y="60" type="line" smooth="yes"/>
      <point x="301" y="-43" type="line" smooth="yes"/>
    </contour>
  </outline>
</glyph>
<glyph name="Aacute" format="1">
  <advance width="641"/>
  <unicode hex="00C1"/>
  <outline>
    <contour>
      <point x="297" y="950" type="line" smooth="yes"/>
      <point x="242" y="840" type="line" smooth="yes"/>
      <point x="398" y="840" type="line" smooth="yes"/>
      <point x="462" y="950" type="line" smooth="yes"/>
    </contour>
    <contour>
      <point x="320" y="595" type="line" smooth="yes"/>
      <point x="384" y="308" type="line" smooth="yes"/>
      <point x="256" y="308" type="line" smooth="yes"/>
    </contour>
    <contour>
      <point x="209" y="782" type="line" smooth="yes"/>
      <point x="14" y="0" type="line" smooth="yes"/>
      <point x="188" y="0" type="line" smooth="yes"/>
      <point x="225" y="168" type="line" smooth="yes"/>
      <point x="416" y="168" type="line" smooth="yes"/>
      <point x="454" y="0" type="line" smooth="yes"/>
      <point x="627" y="0" type="line" smooth="yes"/>
      <point x="432" y="782" type="line" smooth="yes"/>
    </contour>
  </outline>
</glyph>
<glyph name="Atilde" format="1">
  <advance width="641"/>
  <unicode hex="00C3"/>
  <outline>
    <contour>
      <point x="320" y="595" type="line" smooth="yes"/>
      <point x="384" y="308" type="line" smooth="yes"/>
      <point x="256" y="308" type="line" smooth="yes"/>
    </contour>
    <contour>
      <point x="420" y="947" type="line" smooth="yes"/>
      <point x="410" y="921" type="line" smooth="yes"/>
      <point x="387" y="914" type="line" smooth="yes"/>
      <point x="322" y="938" type="line" smooth="yes"/>
      <point x="238" y="962" type="line" smooth="yes"/>
      <point x="166" y="936" type="line" smooth="yes"/>
      <point x="135" y="843" type="line" smooth="yes"/>
      <point x="220" y="843" type="line" smooth="yes"/>
      <point x="230" y="869" type="line" smooth="yes"/>
      <point x="253" y="876" type="line" smooth="yes"/>
      <point x="318" y="852" type="line" smooth="yes"/>
      <point x="402" y="828" type="line" smooth="yes"/>
      <point x="474" y="855" type="line" smooth="yes"/>
      <point x="505" y="947" type="line" smooth="yes"/>
    </contour>
    <contour>
      <point x="209" y="782" type="line" smooth="yes"/>
      <point x="14" y="0" type="line" smooth="yes"/>
      <point x="188" y="0" type="line" smooth="yes"/>
      <point x="225" y="168" type="line" smooth="yes"/>
      <point x="416" y="168" type="line" smooth="yes"/>
      <point x="454" y="0" type="line" smooth="yes"/>
      <point x="627" y="0" type="line" smooth="yes"/>
      <point x="432" y="782" type="line" smooth="yes"/>
    </contour>
  </outline>
</glyph>
<glyph name="Adieresis" format="1">
  <advance width="641"/>
  <unicode hex="00C4"/>
  <outline>
    <contour>
      <point x="474" y="945" type="line" smooth="yes"/>
      <point x="341" y="945" type="line" smooth="yes"/>
      <point x="341" y="845" type="line" smooth="yes"/>
      <point x="474" y="845" type="line" smooth="yes"/>
    </contour>
    <contour>
      <point x="299" y="945" type="line" smooth="yes"/>
      <point x="166" y="945" type="line" smooth="yes"/>
      <point x="166" y="845" type="line" smooth="yes"/>
      <point x="299" y="845" type="line" smooth="yes"/>
    </contour>
    <contour>
      <point x="320" y="595" type="line" smooth="yes"/>
      <point x="384" y="308" type="line" smooth="yes"/>
      <point x="256" y="308" type="line" smooth="yes"/>
    </contour>
    <contour>
      <point x="209" y="782" type="line" smooth="yes"/>
      <point x="14" y="0" type="line" smooth="yes"/>
      <point x="188" y="0" type="line" smooth="yes"/>
      <point x="225" y="168" type="line" smooth="yes"/>
      <point x="416" y="168" type="line" smooth="yes"/>
      <point x="454" y="0" type="line" smooth="yes"/>
      <point x="627" y="0" type="line" smooth="yes"/>
      <point x="432" y="782" type="line" smooth="yes"/>
    </contour>
  </outline>
</glyph>
<glyph name="Aring" format="1">
  <advance width="641"/>
  <unicode hex="00C5"/>
  <outline>
    <contour>
      <point x="269" y="858" type="line" smooth="yes"/>
      <point x="284" y="894" type="line" smooth="yes"/>
      <point x="320" y="908" type="line" smooth="yes"/>
      <point x="356" y="894" type="line" smooth="yes"/>
      <point x="371" y="858" type="line" smooth="yes"/>
      <point x="356" y="822" type="line" smooth="yes"/>
      <point x="320" y="807" type="line" smooth="yes"/>
      <point x="284" y="822" type="line" smooth="yes"/>
    </contour>
    <contour>
      <point x="320" y="595" type="line" smooth="yes"/>
      <point x="384" y="308" type="line" smooth="yes"/>
      <point x="256" y="308" type="line" smooth="yes"/>
    </contour>
    <contour>
      <point x="215" y="858" type="line" smooth="yes"/>
      <point x="224" y="816" type="line" smooth="yes"/>
      <point x="247" y="782" type="line" smooth="yes"/>
      <point x="209" y="782" type="line" smooth="yes"/>
      <point x="14" y="0" type="line" smooth="yes"/>
      <point x="188" y="0" type="line" smooth="yes"/>
      <point x="225" y="168" type="line" smooth="yes"/>
      <point x="416" y="168" type="line" smooth="yes"/>
      <point x="454" y="0" type="line" smooth="yes"/>
      <point x="627" y="0" type="line" smooth="yes"/>
      <point x="432" y="782" type="line" smooth="yes"/>
      <point x="393" y="782" type="line" smooth="yes"/>
      <point x="416" y="816" type="line" smooth="yes"/>
      <point x="425" y="858" type="line" smooth="yes"/>
      <point x="394" y="932" type="line" smooth="yes"/>
      <point x="320" y="963" type="line" smooth="yes"/>
      <point x="246" y="932" type="line" smooth="yes"/>
    </contour>
  </outline>
</glyph>
<glyph name="Ccedilla" format="1">
  <advance width="650"/>
  <unicode hex="00C7"/>
  <outline>
    <contour>
      <point x="235" y="-190" type="line" smooth="yes"/>
      <point x="277" y="-207" type="line" smooth="yes"/>
      <point x="342" y="-215" type="line" smooth="yes"/>
      <point x="432" y="-192" type="line" smooth="yes"/>
      <point x="462" y="-127" type="line" smooth="yes"/>
      <point x="433" y="-64" type="line" smooth="yes"/>
      <point x="362" y="-40" type="line" smooth="yes"/>
      <point x="373" y="-11" type="line" smooth="yes"/>
      <point x="551" y="61" type="line" smooth="yes"/>
      <point x="611" y="257" type="line" smooth="yes"/>
      <point x="611" y="266" type="line" smooth="yes"/>
      <point x="449" y="266" type="line" smooth="yes"/>
      <point x="425" y="165" type="line" smooth="yes"/>
      <point x="341" y="127" type="line" smooth="yes"/>
      <point x="332" y="127" type="line" smooth="yes"/>
      <point x="229" y="190" type="line" smooth="yes"/>
      <point x="203" y="370" type="line" smooth="yes"/>
      <point x="203" y="410" type="line" smooth="yes"/>
      <point x="229" y="590" type="line" smooth="yes"/>
      <point x="332" y="653" type="line" smooth="yes"/>
      <point x="341" y="653" type="line" smooth="yes"/>
      <point x="427" y="609" type="line" smooth="yes"/>
      <point x="449" y="484" type="line" smooth="yes"/>
      <point x="611" y="484" type="line" smooth="yes"/>
      <point x="611" y="520" type="line" smooth="yes"/>
      <point x="541" y="730" type="line" smooth="yes"/>
      <point x="332" y="793" type="line" smooth="yes"/>
      <point x="109" y="703" type="line" smooth="yes"/>
      <point x="39" y="410" type="line" smooth="yes"/>
      <point x="39" y="370" type="line" smooth="yes"/>
      <point x="102" y="88" type="line" smooth="yes"/>
      <point x="300" y="-12" type="line" smooth="yes"/>
      <point x="276" y="-72" type="line" smooth="yes"/>
      <point x="291" y="-100" type="line" smooth="yes"/>
      <point x="303" y="-98" type="line" smooth="yes"/>
      <point x="329" y="-95" type="line" smooth="yes"/>
      <point x="365" y="-101" type="line" smooth="yes"/>
      <point x="377" y="-118" type="line" smooth="yes"/>
      <point x="367" y="-135" type="line" smooth="yes"/>
      <point x="330" y="-141" type="line" smooth="yes"/>
      <point x="290" y="-136" type="line" smooth="yes"/>
      <point x="258" y="-124" type="line" smooth="yes"/>
    </contour>
  </outline>
</glyph>
<glyph name="Egrave" format="1">
  <advance width="573"/>
  <unicode hex="00C8"/>
  <outline>
    <contour>
      <point x="154" y="950" type="line" smooth="yes"/>
      <point x="218" y="840" type="line" smooth="yes"/>
      <point x="374" y="840" type="line" smooth="yes"/>
      <point x="319" y="950" type="line" smooth="yes"/>
    </contour>
    <contour>
      <point x="56" y="780" type="line" smooth="yes"/>
      <point x="56" y="0" type="line" smooth="yes"/>
      <point x="533" y="0" type="line" smooth="yes"/>
      <point x="533" y="140" type="line" smooth="yes"/>
      <point x="218" y="140" type="line" smooth="yes"/>
      <point x="218" y="328" type="line" smooth="yes"/>
      <point x="483" y="328" type="line" smooth="yes"/>
      <point x="483" y="468" type="line" smooth="yes"/>
      <point x="218" y="468" type="line" smooth="yes"/>
      <point x="218" y="640" type="line" smooth="yes"/>
      <point x="533" y="640" type="line" smooth="yes"/>
      <point x="533" y="780" type="line" smooth="yes"/>
    </contour>
  </outline>
</glyph>
<glyph name="Eacute" format="1">
  <advance width="573"/>
  <unicode hex="00C9"/>
  <outline>
    <contour>
      <point x="273" y="950" type="line" smooth="yes"/>
      <point x="218" y="840" type="line" smooth="yes"/>
      <point x="374" y="840" type="line" smooth="yes"/>
      <point x="438" y="950" type="line" smooth="yes"/>
    </contour>
    <contour>
      <point x="56" y="780" type="line" smooth="yes"/>
      <point x="56" y="0" type="line" smooth="yes"/>
      <point x="533" y="0" type="line" smooth="yes"/>
      <point x="533" y="140" type="line" smooth="yes"/>
      <point x="218" y="140" type="line" smooth="yes"/>
      <point x="218" y="328" type="line" smooth="yes"/>
      <point x="483" y="328" type="line" smooth="yes"/>
      <point x="483" y="468" type="line" smooth="yes"/>
      <point x="218" y="468" type="line" smooth="yes"/>
      <point x="218" y="640" type="line" smooth="yes"/>
      <point x="533" y="640" type="line" smooth="yes"/>
      <point x="533" y="780" type="line" smooth="yes"/>
    </contour>
  </outline>
</glyph>
<glyph name="Igrave" format="1">
  <advance width="283"/>
  <unicode hex="00CC"/>
  <outline>
    <contour>
      <point x="0" y="950" type="line" smooth="yes"/>
      <point x="64" y="840" type="line" smooth="yes"/>
      <point x="220" y="840" type="line" smooth="yes"/>
      <point x="165" y="950" type="line" smooth="yes"/>
    </contour>
    <contour>
      <point x="223" y="780" type="line" smooth="yes"/>
      <point x="61" y="780" type="line" smooth="yes"/>
      <point x="61" y="0" type="line" smooth="yes"/>
      <point x="223" y="0" type="line" smooth="yes"/>
    </contour>
  </outline>
</glyph>
<glyph name="Iacute" format="1">
  <advance width="283"/>
  <unicode hex="00CD"/>
  <outline>
    <contour>
      <point x="119" y="950" type="line" smooth="yes"/>
      <point x="64" y="840" type="line" smooth="yes"/>
      <point x="220" y="840" type="line" smooth="yes"/>
      <point x="284" y="950" type="line" smooth="yes"/>
    </contour>
    <contour>
      <point x="223" y="780" type="line" smooth="yes"/>
      <point x="61" y="780" type="line" smooth="yes"/>
      <point x="61" y="0" type="line" smooth="yes"/>
      <point x="223" y="0" type="line" smooth="yes"/>
    </contour>
  </outline>
</glyph>
<glyph name="Ntilde" format="1">
  <advance width="683"/>
  <unicode hex="00D1"/>
  <outline>
    <contour>
      <point x="441" y="947" type="line" smooth="yes"/>
      <point x="431" y="921" type="line" smooth="yes"/>
      <point x="408" y="914" type="line" smooth="yes"/>
      <point x="343" y="938" type="line" smooth="yes"/>
      <point x="259" y="962" type="line" smooth="yes"/>
      <point x="187" y="936" type="line" smooth="yes"/>
      <point x="156" y="843" type="line" smooth="yes"/>
      <point x="241" y="843" type="line" smooth="yes"/>
      <point x="251" y="869" type="line" smooth="yes"/>
      <point x="274" y="876" type="line" smooth="yes"/>
      <point x="339" y="852" type="line" smooth="yes"/>
      <point x="423" y="828" type="line" smooth="yes"/>
      <point x="495" y="855" type="line" smooth="yes"/>
      <point x="526" y="947" type="line" smooth="yes"/>
    </contour>
    <contour>
      <point x="627" y="780" type="line" smooth="yes"/>
      <point x="473" y="780" type="line" smooth="yes"/>
      <point x="473" y="453" type="line" smooth="yes"/>
      <point x="478" y="296" type="line" smooth="yes"/>
      <point x="227" y="780" type="line" smooth="yes"/>
      <point x="56" y="780" type="line" smooth="yes"/>
      <point x="56" y="0" type="line" smooth="yes"/>
      <point x="209" y="0" type="line" smooth="yes"/>
      <point x="209" y="327" type="line" smooth="yes"/>
      <point x="204" y="484" type="line" smooth="yes"/>
      <point x="456" y="0" type="line" smooth="yes"/>
      <point x="627" y="0" type="line" smooth="yes"/>
    </contour>
  </outline>
</glyph>
<glyph name="Ocircumflex" format="1">
  <advance width="673"/>
  <unicode hex="00D4"/>
  <outline>
    <contour>
      <point x="274" y="840" type="line" smooth="yes"/>
      <point x="336" y="884" type="line" smooth="yes"/>
      <point x="398" y="840" type="line" smooth="yes"/>
      <point x="540" y="840" type="line" smooth="yes"/>
      <point x="416" y="950" type="line" smooth="yes"/>
      <point x="256" y="950" type="line" smooth="yes"/>
      <point x="132" y="840" type="line" smooth="yes"/>
    </contour>
    <contour>
      <point x="332" y="127" type="line" smooth="yes"/>
      <point x="230" y="190" type="line" smooth="yes"/>
      <point x="203" y="370" type="line" smooth="yes"/>
      <point x="203" y="410" type="line" smooth="yes"/>
      <point x="230" y="590" type="line" smooth="yes"/>
      <point x="332" y="653" type="line" smooth="yes"/>
      <point x="341" y="653" type="line" smooth="yes"/>
      <point x="443" y="590" type="line" smooth="yes"/>
      <point x="469" y="410" type="line" smooth="yes"/>
      <point x="469" y="370" type="line" smooth="yes"/>
      <point x="443" y="190" type="line" smooth="yes"/>
      <point x="341" y="127" type="line" smooth="yes"/>
    </contour>
    <contour>
      <point x="336" y="-13" type="line" smooth="yes"/>
      <point x="561" y="77" type="line" smooth="yes"/>
      <point x="634" y="370" type="line" smooth="yes"/>
      <point x="634" y="410" type="line" smooth="yes"/>
      <point x="561" y="703" type="line" smooth="yes"/>
      <point x="336" y="793" type="line" smooth="yes"/>
      <point x="112" y="703" type="line" smooth="yes"/>
      <point x="39" y="410" type="line" smooth="yes"/>
      <point x="39" y="370" type="line" smooth="yes"/>
      <point x="112" y="77" type="line" smooth="yes"/>
    </contour>
  </outline>
</glyph>
<glyph name="Otilde" format="1">
  <advance width="673"/>
  <unicode hex="00D5"/>
  <outline>
    <contour>
      <point x="436" y="947" type="line" smooth="yes"/>
      <point x="426" y="921" type="line" smooth="yes"/>
      <point x="403" y="914" type="line" smooth="yes"/>
      <point x="338" y="938" type="line" smooth="yes"/>
      <point x="254" y="962" type="line" smooth="yes"/>
      <point x="182" y="936" type="line" smooth="yes"/>
      <point x="151" y="843" type="line" smooth="yes"/>
      <point x="236" y="843" type="line" smooth="yes"/>
      <point x="246" y="869" type="line" smooth="yes"/>
      <point x="269" y="876" type="line" smooth="yes"/>
      <point x="334" y="852" type="line" smooth="yes"/>
      <point x="418" y="828" type="line" smooth="yes"/>
      <point x="490" y="855" type="line" smooth="yes"/>
      <point x="521" y="947" type="line" smooth="yes"/>
    </contour>
    <contour>
      <point x="332" y="127" type="line" smooth="yes"/>
      <point x="230" y="190" type="line" smooth="yes"/>
      <point x="203" y="370" type="line" smooth="yes"/>
      <point x="203" y="410" type="line" smooth="yes"/>
      <point x="230" y="590" type="line" smooth="yes"/>
      <point x="332" y="653" type="line" smooth="yes"/>
      <point x="341" y="653" type="line" smooth="yes"/>
      <point x="443" y="590" type="line" smooth="yes"/>
      <point x="469" y="410" type="line" smooth="yes"/>
      <point x="469" y="370" type="line" smooth="yes"/>
      <point x="443" y="190" type="line" smooth="yes"/>
      <point x="341" y="127" type="line" smooth="yes"/>
    </contour>
    <contour>
      <point x="336" y="-13" type="line" smooth="yes"/>
      <point x="561" y="77" type="line" smooth="yes"/>
      <point x="634" y="370" type="line" smooth="yes"/>
      <point x="634" y="410" type="line" smooth="yes"/>
      <point x="561" y="703" type="line" smooth="yes"/>
      <point x="336" y="793" type="line" smooth="yes"/>
      <point x="112" y="703" type="line" smooth="yes"/>
      <point x="39" y="410" type="line" smooth="yes"/>
      <point x="39" y="370" type="line" smooth="yes"/>
      <point x="112" y="77" type="line" smooth="yes"/>
    </contour>
  </outline>
</glyph>
<glyph name="Oslash" format="1">
  <advance width="670"/>
  <unicode hex="00D8"/>
  <outline>
    <contour>
      <point x="203" y="370" type="line" smooth="yes"/>
      <point x="203" y="410" type="line" smooth="yes"/>
      <point x="230" y="590" type="line" smooth="yes"/>
      <point x="332" y="653" type="line" smooth="yes"/>
      <point x="341" y="653" type="line" smooth="yes"/>
      <point x="392" y="643" type="line" smooth="yes"/>
      <point x="429" y="613" type="line" smooth="yes"/>
      <point x="209" y="268" type="line" smooth="yes"/>
      <point x="205" y="316" type="line" smooth="yes"/>
    </contour>
    <contour>
      <point x="469" y="410" type="line" smooth="yes"/>
      <point x="469" y="370" type="line" smooth="yes"/>
      <point x="443" y="190" type="line" smooth="yes"/>
      <point x="341" y="127" type="line" smooth="yes"/>
      <point x="332" y="127" type="line" smooth="yes"/>
      <point x="280" y="137" type="line" smooth="yes"/>
      <point x="243" y="168" type="line" smooth="yes"/>
      <point x="463" y="513" type="line" smooth="yes"/>
      <point x="468" y="465" type="line" smooth="yes"/>
    </contour>
    <contour>
      <point x="39" y="410" type="line" smooth="yes"/>
      <point x="39" y="370" type="line" smooth="yes"/>
      <point x="54" y="210" type="line" smooth="yes"/>
      <point x="99" y="95" type="line" smooth="yes"/>
      <point x="38" y="0" type="line" smooth="yes"/>
      <point x="136" y="0" type="line" smooth="yes"/>
      <point x="157" y="34" type="line" smooth="yes"/>
      <point x="236" y="-2" type="line" smooth="yes"/>
      <point x="336" y="-13" type="line" smooth="yes"/>
      <point x="561" y="77" type="line" smooth="yes"/>
      <point x="634" y="370" type="line" smooth="yes"/>
      <point x="634" y="410" type="line" smooth="yes"/>
      <point x="619" y="571" type="line" smooth="yes"/>
      <point x="573" y="686" type="line" smooth="yes"/>
      <point x="633" y="780" type="line" smooth="yes"/>
      <point x="535" y="780" type="line" smooth="yes"/>
      <point x="514" y="747" type="line" smooth="yes"/>
      <point x="435" y="782" type="line" smooth="yes"/>
      <point x="336" y="793" type="line" smooth="yes"/>
      <point x="112" y="703" type="line" smooth="yes"/>
    </contour>
  </outline>
</glyph>
<glyph name="Ucircumflex" format="1">
  <advance width="663"/>
  <unicode hex="00DB"/>
  <outline>
    <contour>
      <point x="269" y="840" type="line" smooth="yes"/>
      <point x="331" y="884" type="line" smooth="yes"/>
      <point x="393" y="840" type="line" smooth="yes"/>
      <point x="535" y="840" type="line" smooth="yes"/>
      <point x="411" y="950" type="line" smooth="yes"/>
      <point x="251" y="950" type="line" smooth="yes"/>
      <point x="127" y="840" type="line" smooth="yes"/>
    </contour>
    <contour>
      <point x="331" y="-13" type="line" smooth="yes"/>
      <point x="551" y="53" type="line" smooth="yes"/>
      <point x="612" y="247" type="line" smooth="yes"/>
      <point x="612" y="780" type="line" smooth="yes"/>
      <point x="450" y="780" type="line" smooth="yes"/>
      <point x="450" y="252" type="line" smooth="yes"/>
      <point x="425" y="158" type="line" smooth="yes"/>
      <point x="331" y="127" type="line" smooth="yes"/>
      <point x="238" y="158" type="line" smooth="yes"/>
      <point x="213" y="252" type="line" smooth="yes"/>
      <point x="213" y="780" type="line" smooth="yes"/>
      <point x="51" y="780" type="line" smooth="yes"/>
      <point x="51" y="247" type="line" smooth="yes"/>
      <point x="112" y="53" type="line" smooth="yes"/>
    </contour>
  </outline>
</glyph>
<glyph name="Thorn" format="1">
  <advance width="609"/>
  <unicode hex="00DE"/>
  <outline>
    <contour>
      <point x="218" y="280" type="line" smooth="yes"/>
      <point x="218" y="500" type="line" smooth="yes"/>
      <point x="319" y="500" type="line" smooth="yes"/>
      <point x="386" y="481" type="line" smooth="yes"/>
      <point x="419" y="395" type="line" smooth="yes"/>
      <point x="419" y="385" type="line" smooth="yes"/>
      <point x="386" y="300" type="line" smooth="yes"/>
      <point x="319" y="280" type="line" smooth="yes"/>
    </contour>
    <contour>
      <point x="218" y="780" type="line" smooth="yes"/>
      <point x="56" y="780" type="line" smooth="yes"/>
      <point x="56" y="0" type="line" smooth="yes"/>
      <point x="218" y="0" type="line" smooth="yes"/>
      <point x="218" y="140" type="line" smooth="yes"/>
      <point x="312" y="140" type="line" smooth="yes"/>
      <point x="495" y="182" type="line" smooth="yes"/>
      <point x="583" y="380" type="line" smooth="yes"/>
      <point x="583" y="400" type="line" smooth="yes"/>
      <point x="495" y="598" type="line" smooth="yes"/>
      <point x="312" y="640" type="line" smooth="yes"/>
      <point x="218" y="640" type="line" smooth="yes"/>
    </contour>
  </outline>
</glyph>
<glyph name="germandbls" format="1">
  <advance width="632"/>
  <unicode hex="00DF"/>
  <outline>
    <contour>
      <point x="285" y="334" type="line" smooth="yes"/>
      <point x="378" y="270" type="line" smooth="yes"/>
      <point x="437" y="213" type="line" smooth="yes"/>
      <point x="454" y="162" type="line" smooth="yes"/>
      <point x="447" y="124" type="line" smooth="yes"/>
      <point x="417" y="107" type="line" smooth="yes"/>
      <point x="388" y="123" type="line" smooth="yes"/>
      <point x="378" y="168" type="line" smooth="yes"/>
      <point x="244" y="168" type="line" smooth="yes"/>
      <point x="244" y="160" type="line" smooth="yes"/>
      <point x="278" y="36" type="line" smooth="yes"/>
      <point x="420" y="-13" type="line" smooth="yes"/>
      <point x="567" y="41" type="line" smooth="yes"/>
      <point x="612" y="164" type="line" smooth="yes"/>
      <point x="612" y="173" type="line" smooth="yes"/>
      <point x="576" y="285" type="line" smooth="yes"/>
      <point x="471" y="382" type="line" smooth="yes"/>
      <point x="447" y="398" type="line" smooth="yes"/>
      <point x="521" y="476" type="line" smooth="yes"/>
      <point x="548" y="584" type="line" smooth="yes"/>
      <point x="548" y="594" type="line" smooth="yes"/>
      <point x="488" y="747" type="line" smooth="yes"/>
      <point x="299" y="813" type="line" smooth="yes"/>
      <point x="105" y="749" type="line" smooth="yes"/>
      <point x="49" y="594" type="line" smooth="yes"/>
      <point x="49" y="0" type="line" smooth="yes"/>
      <point x="207" y="0" type="line" smooth="yes"/>
      <point x="207" y="585" type="line" smooth="yes"/>
      <point x="228" y="648" type="line" smooth="yes"/>
      <point x="299" y="677" type="line" smooth="yes"/>
      <point x="369" y="649" type="line" smooth="yes"/>
      <point x="390" y="577" type="line" smooth="yes"/>
      <point x="361" y="495" type="line" smooth="yes"/>
      <point x="285" y="434" type="line" smooth="yes"/>
    </contour>
  </outline>
</glyph>
<glyph name="adieresis" format="1">
  <advance width="549"/>
  <unicode hex="00E4"/>
  <outline>
    <contour>
      <point x="250" y="115" type="line" smooth="yes"/>
      <point x="201" y="132" type="line" smooth="yes"/>
      <point x="187" y="169" type="line" smooth="yes"/>
      <point x="187" y="175" type="line" smooth="yes"/>
      <point x="201" y="216" type="line" smooth="yes"/>
      <point x="252" y="238" type="line" smooth="yes"/>
      <point x="342" y="252" type="line" smooth="yes"/>
      <point x="342" y="155" type="line" smooth="yes"/>
      <point x="307" y="128" type="line" smooth="yes"/>
    </contour>
    <contour>
      <point x="464" y="772" type="line" smooth="yes"/>
      <point x="299" y="772" type="line" smooth="yes"/>
      <point x="299" y="606" type="line" smooth="yes"/>
      <point x="464" y="606" type="line" smooth="yes"/>
    </contour>
    <contour>
      <point x="249" y="772" type="line" smooth="yes"/>
      <point x="84" y="772" type="line" smooth="yes"/>
      <point x="84" y="606" type="line" smooth="yes"/>
      <point x="249" y="606" type="line" smooth="yes"/>
    </contour>
    <contour>
      <point x="368" y="0" type="line" smooth="yes"/>
      <point x="510" y="0" type="line" smooth="yes"/>
      <point x="500" y="150" type="line" smooth="yes"/>
      <point x="500" y="341" type="line" smooth="yes"/>
      <point x="452" y="490" type="line" smooth="yes"/>
      <point x="275" y="543" type="line" smooth="yes"/>
      <point x="97" y="488" type="line" smooth="yes"/>
      <point x="50" y="364" type="line" smooth="yes"/>
      <point x="50" y="355" type="line" smooth="yes"/>
      <point x="199" y="355" type="line" smooth="yes"/>
      <point x="213" y="402" type="line" smooth="yes"/>
      <point x="270" y="423" type="line" smooth="yes"/>
      <point x="326" y="404" type="line" smooth="yes"/>
      <point x="342" y="345" type="line" smooth="yes"/>
      <point x="220" y="326" type="line" smooth="yes"/>
      <point x="83" y="278" type="line" smooth="yes"/>
      <point x="30" y="156" type="line" smooth="yes"/>
      <point x="30" y="146" type="line" smooth="yes"/>
      <point x="66" y="35" type="line" smooth="yes"/>
      <point x="192" y="-13" type="line" smooth="yes"/>
      <point x="289" y="6" type="line" smooth="yes"/>
      <point x="358" y="55" type="line" smooth="yes"/>
    </contour>
  </outline>
</glyph>
<glyph name="ae" format="1">
  <advance width="859"/>
  <unicode hex="00E6"/>
  <outline>
    <contour>
      <point x="590" y="423" type="line" smooth="yes"/>
      <point x="654" y="398" type="line" smooth="yes"/>
      <point x="679" y="322" type="line" smooth="yes"/>
      <point x="501" y="322" type="line" smooth="yes"/>
      <point x="526" y="398" type="line" smooth="yes"/>
    </contour>
    <contour>
      <point x="351" y="163" type="line" smooth="yes"/>
      <point x="317" y="130" type="line" smooth="yes"/>
      <point x="250" y="111" type="line" smooth="yes"/>
      <point x="201" y="128" type="line" smooth="yes"/>
      <point x="187" y="164" type="line" smooth="yes"/>
      <point x="187" y="171" type="line" smooth="yes"/>
      <point x="202" y="212" type="line" smooth="yes"/>
      <point x="253" y="234" type="line" smooth="yes"/>
      <point x="342" y="248" type="line" smooth="yes"/>
      <point x="345" y="205" type="line" smooth="yes"/>
      <point x="352" y="164" type="line" smooth="yes"/>
    </contour>
    <contour>
      <point x="838" y="208" type="line" smooth="yes"/>
      <point x="838" y="279" type="line" smooth="yes"/>
      <point x="779" y="468" type="line" smooth="yes"/>
      <point x="594" y="543" type="line" smooth="yes"/>
      <point x="503" y="527" type="line" smooth="yes"/>
      <point x="438" y="484" type="line" smooth="yes"/>
      <point x="377" y="527" type="line" smooth="yes"/>
      <point x="275" y="543" type="line" smooth="yes"/>
      <point x="97" y="488" type="line" smooth="yes"/>
      <point x="50" y="364" type="line" smooth="yes"/>
      <point x="50" y="355" type="line" smooth="yes"/>
      <point x="199" y="355" type="line" smooth="yes"/>
      <point x="213" y="402" type="line" smooth="yes"/>
      <point x="270" y="423" type="line" smooth="yes"/>
      <point x="326" y="404" type="line" smooth="yes"/>
      <point x="342" y="345" type="line" smooth="yes"/>
      <point x="221" y="326" type="line" smooth="yes"/>
      <point x="84" y="278" type="line" smooth="yes"/>
      <point x="30" y="156" type="line" smooth="yes"/>
      <point x="30" y="146" type="line" smooth="yes"/>
      <point x="69" y="35" type="line" smooth="yes"/>
      <point x="204" y="-13" type="line" smooth="yes"/>
      <point x="315" y="8" type="line" smooth="yes"/>
      <point x="405" y="61" type="line" smooth="yes"/>
      <point x="485" y="6" type="line" smooth="yes"/>
      <point x="599" y="-13" type="line" smooth="yes"/>
      <point x="776" y="39" type="line" smooth="yes"/>
      <point x="838" y="166" type="line" smooth="yes"/>
      <point x="838" y="170" type="line" smooth="yes"/>
      <point x="689" y="170" type="line" smooth="yes"/>
      <point x="665" y="127" type="line" smooth="yes"/>
      <point x="600" y="107" type="line" smooth="yes"/>
      <point x="530" y="130" type="line" smooth="yes"/>
      <point x="500" y="208" type="line" smooth="yes"/>
    </contour>
  </outline>
</glyph>
<glyph name="ccedilla" format="1">
  <advance width="527"/>
  <unicode hex="00E7"/>
  <outline>
    <contour>
      <point x="165" y="-190" type="line" smooth="yes"/>
      <point x="207" y="-207" type="line" smooth="yes"/>
      <point x="272" y="-215" type="line" smooth="yes"/>
      <point x="362" y="-192" type="line" smooth="yes"/>
      <point x="392" y="-127" type="line" smooth="yes"/>
      <point x="363" y="-64" type="line" smooth="yes"/>
      <point x="292" y="-40" type="line" smooth="yes"/>
      <point x="302" y="-11" type="line" smooth="yes"/>
      <point x="449" y="47" type="line" smooth="yes"/>
      <point x="498" y="174" type="line" smooth="yes"/>
      <point x="498" y="196" type="line" smooth="yes"/>
      <point x="349" y="196" type="line" smooth="yes"/>
      <point x="330" y="144" type="line" smooth="yes"/>
      <point x="273" y="123" type="line" smooth="yes"/>
      <point x="208" y="156" type="line" smooth="yes"/>
      <point x="188" y="247" type="line" smooth="yes"/>
      <point x="188" y="283" type="line" smooth="yes"/>
      <point x="208" y="374" type="line" smooth="yes"/>
      <point x="273" y="407" type="line" smooth="yes"/>
      <point x="330" y="386" type="line" smooth="yes"/>
      <point x="349" y="324" type="line" smooth="yes"/>
      <point x="498" y="324" type="line" smooth="yes"/>
      <point x="498" y="347" type="line" smooth="yes"/>
      <point x="441" y="489" type="line" smooth="yes"/>
      <point x="270" y="543" type="line" smooth="yes"/>
      <point x="87" y="470" type="line" smooth="yes"/>
      <point x="30" y="283" type="line" smooth="yes"/>
      <point x="30" y="247" type="line" smooth="yes"/>
      <point x="78" y="71" type="line" smooth="yes"/>
      <point x="230" y="-10" type="line" smooth="yes"/>
      <point x="206" y="-72" type="line" smooth="yes"/>
      <point x="221" y="-100" type="line" smooth="yes"/>
      <point x="233" y="-98" type="line" smooth="yes"/>
      <point x="259" y="-95" type="line" smooth="yes"/>
      <point x="295" y="-101" type="line" smooth="yes"/>
      <point x="307" y="-118" type="line" smooth="yes"/>
      <point x="297" y="-135" type="line" smooth="yes"/>
      <point x="260" y="-141" type="line" smooth="yes"/>
      <point x="220" y="-136" type="line" smooth="yes"/>
      <point x="188" y="-124" type="line" smooth="yes"/>
    </contour>
  </outline>
</glyph>
<glyph name="ecircumflex" format="1">
  <advance width="556"/>
  <unicode hex="00EA"/>
  <outline>
    <contour>
      <point x="278" y="423" type="line" smooth="yes"/>
      <point x="342" y="398" type="line" smooth="yes"/>
      <point x="367" y="322" type="line" smooth="yes"/>
      <point x="189" y="322" type="line" smooth="yes"/>
      <point x="214" y="398" type="line" smooth="yes"/>
    </contour>
    <contour>
      <point x="209" y="596" type="line" smooth="yes"/>
      <point x="281" y="678" type="line" smooth="yes"/>
      <point x="353" y="596" type="line" smooth="yes"/>
      <point x="491" y="596" type="line" smooth="yes"/>
      <point x="357" y="780" type="line" smooth="yes"/>
      <point x="205" y="780" type="line" smooth="yes"/>
      <point x="71" y="596" type="line" smooth="yes"/>
    </contour>
    <contour>
      <point x="526" y="208" type="line" smooth="yes"/>
      <point x="526" y="279" type="line" smooth="yes"/>
      <point x="467" y="468" type="line" smooth="yes"/>
      <point x="281" y="543" type="line" smooth="yes"/>
      <point x="93" y="468" type="line" smooth="yes"/>
      <point x="30" y="279" type="line" smooth="yes"/>
      <point x="30" y="251" type="line" smooth="yes"/>
      <point x="93" y="62" type="line" smooth="yes"/>
      <point x="287" y="-13" type="line" smooth="yes"/>
      <point x="464" y="39" type="line" smooth="yes"/>
      <point x="526" y="166" type="line" smooth="yes"/>
      <point x="526" y="170" type="line" smooth="yes"/>
      <point x="377" y="170" type="line" smooth="yes"/>
      <point x="353" y="127" type="line" smooth="yes"/>
      <point x="288" y="107" type="line" smooth="yes"/>
      <point x="218" y="130" type="line" smooth="yes"/>
      <point x="188" y="208" type="line" smooth="yes"/>
    </contour>
  </outline>
</glyph>
<glyph name="idieresis" format="1">
  <advance width="265"/>
  <unicode hex="00EF"/>
  <outline>
    <contour>
      <point x="323" y="772" type="line" smooth="yes"/>
      <point x="158" y="772" type="line" smooth="yes"/>
      <point x="158" y="606" type="line" smooth="yes"/>
      <point x="323" y="606" type="line" smooth="yes"/>
    </contour>
    <contour>
      <point x="108" y="772" type="line" smooth="yes"/>
      <point x="-57" y="772" type="line" smooth="yes"/>
      <point x="-57" y="606" type="line" smooth="yes"/>
      <point x="108" y="606" type="line" smooth="yes"/>
    </contour>
    <contour>
      <point x="54" y="0" type="line" smooth="yes"/>
      <point x="211" y="0" type="line" smooth="yes"/>
      <point x="211" y="530" type="line" smooth="yes"/>
      <point x="54" y="530" type="line" smooth="yes"/>
    </contour>
  </outline>
</glyph>
<glyph name="eth" format="1">
  <advance width="556"/>
  <unicode hex="00F0"/>
  <outline>
    <contour>
      <point x="278" y="122" type="line" smooth="yes"/>
      <point x="209" y="155" type="line" smooth="yes"/>
      <point x="187" y="247" type="line" smooth="yes"/>
      <point x="187" y="283" type="line" smooth="yes"/>
      <point x="209" y="375" type="line" smooth="yes"/>
      <point x="278" y="408" type="line" smooth="yes"/>
      <point x="347" y="375" type="line" smooth="yes"/>
      <point x="369" y="283" type="line" smooth="yes"/>
      <point x="369" y="247" type="line" smooth="yes"/>
      <point x="347" y="155" type="line" smooth="yes"/>
    </contour>
    <contour>
      <point x="31" y="673" type="line" smooth="yes"/>
      <point x="89" y="665" type="line" smooth="yes"/>
      <point x="143" y="653" type="line" smooth="yes"/>
      <point x="59" y="607" type="line" smooth="yes"/>
      <point x="59" y="518" type="line" smooth="yes"/>
      <point x="235" y="616" type="line" smooth="yes"/>
      <point x="269" y="593" type="line" smooth="yes"/>
      <point x="297" y="566" type="line" smooth="yes"/>
      <point x="310" y="550" type="line" smooth="yes"/>
      <point x="322" y="533" type="line" smooth="yes"/>
      <point x="289" y="541" type="line" smooth="yes"/>
      <point x="254" y="543" type="line" smooth="yes"/>
      <point x="88" y="470" type="line" smooth="yes"/>
      <point x="31" y="283" type="line" smooth="yes"/>
      <point x="31" y="247" type="line" smooth="yes"/>
      <point x="91" y="60" type="line" smooth="yes"/>
      <point x="278" y="-13" type="line" smooth="yes"/>
      <point x="466" y="60" type="line" smooth="yes"/>
      <point x="526" y="247" type="line" smooth="yes"/>
      <point x="526" y="283" type="line" smooth="yes"/>
      <point x="505" y="474" type="line" smooth="yes"/>
      <point x="420" y="655" type="line" smooth="yes"/>
      <point x="401" y="677" type="line" smooth="yes"/>
      <point x="381" y="697" type="line" smooth="yes"/>
      <point x="430" y="724" type="line" smooth="yes"/>
      <point x="430" y="813" type="line" smooth="yes"/>
      <point x="310" y="746" type="line" smooth="yes"/>
      <point x="179" y="793" type="line" smooth="yes"/>
      <point x="31" y="813" type="line" smooth="yes"/>
    </contour>
  </outline>
</glyph>
<glyph name="ntilde" format="1">
  <advance width="580"/>
  <unicode hex="00F1"/>
  <outline>
    <contour>
      <point x="389" y="772" type="line" smooth="yes"/>
      <point x="380" y="743" type="line" smooth="yes"/>
      <point x="358" y="735" type="line" smooth="yes"/>
      <point x="290" y="761" type="line" smooth="yes"/>
      <point x="203" y="787" type="line" smooth="yes"/>
      <point x="124" y="750" type="line" smooth="yes"/>
      <point x="92" y="628" type="line" smooth="yes"/>
      <point x="197" y="628" type="line" smooth="yes"/>
      <point x="206" y="657" type="line" smooth="yes"/>
      <point x="228" y="665" type="line" smooth="yes"/>
      <point x="297" y="639" type="line" smooth="yes"/>
      <point x="383" y="613" type="line" smooth="yes"/>
      <point x="462" y="651" type="line" smooth="yes"/>
      <point x="494" y="772" type="line" smooth="yes"/>
    </contour>
    <contour>
      <point x="532" y="0" type="line" smooth="yes"/>
      <point x="532" y="359" type="line" smooth="yes"/>
      <point x="495" y="487" type="line" smooth="yes"/>
      <point x="368" y="543" type="line" smooth="yes"/>
      <point x="265" y="520" type="line" smooth="yes"/>
      <point x="198" y="462" type="line" smooth="yes"/>
      <point x="186" y="530" type="line" smooth="yes"/>
      <point x="45" y="530" type="line" smooth="yes"/>
      <point x="54" y="380" type="line" smooth="yes"/>
      <point x="54" y="0" type="line" smooth="yes"/>
      <point x="212" y="0" type="line" smooth="yes"/>
      <point x="212" y="357" type="line" smooth="yes"/>
      <point x="244" y="389" type="line" smooth="yes"/>
      <point x="305" y="407" type="line" smooth="yes"/>
      <point x="360" y="384" type="line" smooth="yes"/>
      <point x="375" y="333" type="line" smooth="yes"/>
      <point x="375" y="0" type="line" smooth="yes"/>
    </contour>
  </outline>
</glyph>
<glyph name="oacute" format="1">
  <advance width="556"/>
  <unicode hex="00F3"/>
  <outline>
    <contour>
      <point x="291" y="780" type="line" smooth="yes"/>
      <point x="200" y="596" type="line" smooth="yes"/>
      <point x="356" y="596" type="line" smooth="yes"/>
      <point x="463" y="780" type="line" smooth="yes"/>
    </contour>
    <contour>
      <point x="278" y="123" type="line" smooth="yes"/>
      <point x="210" y="156" type="line" smooth="yes"/>
      <point x="188" y="247" type="line" smooth="yes"/>
      <point x="188" y="283" type="line" smooth="yes"/>
      <point x="210" y="374" type="line" smooth="yes"/>
      <point x="278" y="407" type="line" smooth="yes"/>
      <point x="347" y="374" type="line" smooth="yes"/>
      <point x="368" y="283" type="line" smooth="yes"/>
      <point x="368" y="247" type="line" smooth="yes"/>
      <point x="347" y="156" type="line" smooth="yes"/>
    </contour>
    <contour>
      <point x="278" y="-13" type="line" smooth="yes"/>
      <point x="466" y="60" type="line" smooth="yes"/>
      <point x="526" y="247" type="line" smooth="yes"/>
      <point x="526" y="283" type="line" smooth="yes"/>
      <point x="466" y="470" type="line" smooth="yes"/>
      <point x="278" y="543" type="line" smooth="yes"/>
      <point x="90" y="470" type="line" smooth="yes"/>
      <point x="30" y="283" type="line" smooth="yes"/>
      <point x="30" y="247" type="line" smooth="yes"/>
      <point x="90" y="60" type="line" smooth="yes"/>
    </contour>
  </outline>
</glyph>
<glyph name="ocircumflex" format="1">
  <advance width="556"/>
  <unicode hex="00F4"/>
  <outline>
    <contour>
      <point x="278" y="123" type="line" smooth="yes"/>
      <point x="210" y="156" type="line" smooth="yes"/>
      <point x="188" y="247" type="line" smooth="yes"/>
      <point x="188" y="283" type="line" smooth="yes"/>
      <point x="210" y="374" type="line" smooth="yes"/>
      <point x="278" y="407" type="line" smooth="yes"/>
      <point x="347" y="374" type="line" smooth="yes"/>
      <point x="368" y="283" type="line" smooth="yes"/>
      <point x="368" y="247" type="line" smooth="yes"/>
      <point x="347" y="156" type="line" smooth="yes"/>
    </contour>
    <contour>
      <point x="206" y="596" type="line" smooth="yes"/>
      <point x="278" y="678" type="line" smooth="yes"/>
      <point x="350" y="596" type="line" smooth="yes"/>
      <point x="488" y="596" type="line" smooth="yes"/>
      <point x="354" y="780" type="line" smooth="yes"/>
      <point x="202" y="780" type="line" smooth="yes"/>
      <point x="68" y="596" type="line" smooth="yes"/>
    </contour>
    <contour>
      <point x="278" y="-13" type="line" smooth="yes"/>
      <point x="466" y="60" type="line" smooth="yes"/>
      <point x="526" y="247" type="line" smooth="yes"/>
      <point x="526" y="283" type="line" smooth="yes"/>
      <point x="466" y="470" type="line" smooth="yes"/>
      <point x="278" y="543" type="line" smooth="yes"/>
      <point x="90" y="470" type="line" smooth="yes"/>
      <point x="30" y="283" type="line" smooth="yes"/>
      <point x="30" y="247" type="line" smooth="yes"/>
      <point x="90" y="60" type="line" smooth="yes"/>
    </contour>
  </outline>
</glyph>
<glyph name="otilde" format="1">
  <advance width="556"/>
  <unicode hex="00F5"/>
  <outline>
    <contour>
      <point x="278" y="123" type="line" smooth="yes"/>
      <point x="210" y="156" type="line" smooth="yes"/>
      <point x="188" y="247" type="line" smooth="yes"/>
      <point x="188" y="283" type="line" smooth="yes"/>
      <point x="210" y="374" type="line" smooth="yes"/>
      <point x="278" y="407" type="line" smooth="yes"/>
      <point x="347" y="374" type="line" smooth="yes"/>
      <point x="368" y="283" type="line" smooth="yes"/>
      <point x="368" y="247" type="line" smooth="yes"/>
      <point x="347" y="156" type="line" smooth="yes"/>
    </contour>
    <contour>
      <point x="374" y="772" type="line" smooth="yes"/>
      <point x="365" y="743" type="line" smooth="yes"/>
      <point x="343" y="735" type="line" smooth="yes"/>
      <point x="275" y="761" type="line" smooth="yes"/>
      <point x="188" y="787" type="line" smooth="yes"/>
      <point x="109" y="750" type="line" smooth="yes"/>
      <point x="77" y="628" type="line" smooth="yes"/>
      <point x="182" y="628" type="line" smooth="yes"/>
      <point x="191" y="657" type="line" smooth="yes"/>
      <point x="213" y="665" type="line" smooth="yes"/>
      <point x="282" y="639" type="line" smooth="yes"/>
      <point x="368" y="613" type="line" smooth="yes"/>
      <point x="447" y="651" type="line" smooth="yes"/>
      <point x="479" y="772" type="line" smooth="yes"/>
    </contour>
    <contour>
      <point x="278" y="-13" type="line" smooth="yes"/>
      <point x="466" y="60" type="line" smooth="yes"/>
      <point x="526" y="247" type="line" smooth="yes"/>
      <point x="526" y="283" type="line" smooth="yes"/>
      <point x="466" y="470" type="line" smooth="yes"/>
      <point x="278" y="543" type="line" smooth="yes"/>
      <point x="90" y="470" type="line" smooth="yes"/>
      <point x="30" y="283" type="line" smooth="yes"/>
      <point x="30" y="247" type="line" smooth="yes"/>
      <point x="90" y="60" type="line" smooth="yes"/>
    </contour>
  </outline>
</glyph>
<glyph name="odieresis" format="1">
  <advance width="556"/>
  <unicode hex="00F6"/>
  <outline>
    <contour>
      <point x="468" y="772" type="line" smooth="yes"/>
      <point x="303" y="772" type="line" smooth="yes"/>
      <point x="303" y="606" type="line" smooth="yes"/>
      <point x="468" y="606" type="line" smooth="yes"/>
    </contour>
    <contour>
      <point x="253" y="772" type="line" smooth="yes"/>
      <point x="88" y="772" type="line" smooth="yes"/>
      <point x="88" y="606" type="line" smooth="yes"/>
      <point x="253" y="606" type="line" smooth="yes"/>
    </contour>
    <contour>
      <point x="278" y="123" type="line" smooth="yes"/>
      <point x="210" y="156" type="line" smooth="yes"/>
      <point x="188" y="247" type="line" smooth="yes"/>
      <point x="188" y="283" type="line" smooth="yes"/>
      <point x="210" y="374" type="line" smooth="yes"/>
      <point x="278" y="407" type="line" smooth="yes"/>
      <point x="347" y="374" type="line" smooth="yes"/>
      <point x="368" y="283" type="line" smooth="yes"/>
      <point x="368" y="247" type="line" smooth="yes"/>
      <point x="347" y="156" type="line" smooth="yes"/>
    </contour>
    <contour>
      <point x="278" y="-13" type="line" smooth="yes"/>
      <point x="466" y="60" type="line" smooth="yes"/>
      <point x="526" y="247" type="line" smooth="yes"/>
      <point x="526" y="283" type="line" smooth="yes"/>
      <point x="466" y="470" type="line" smooth="yes"/>
      <point x="278" y="543" type="line" smooth="yes"/>
      <point x="90" y="470" type="line" smooth="yes"/>
      <point x="30" y="283" type="line" smooth="yes"/>
      <point x="30" y="247" type="line" smooth="yes"/>
      <point x="90" y="60" type="line" smooth="yes"/>
    </contour>
  </outline>
</glyph>
<glyph name="divide" format="1">
  <advance width="600"/>
  <unicode hex="00F7"/>
  <outline>
    <contour>
      <point x="383" y="681" type="line" smooth="yes"/>
      <point x="217" y="681" type="line" smooth="yes"/>
      <point x="217" y="515" type="line" smooth="yes"/>
      <point x="383" y="515" type="line" smooth="yes"/>
    </contour>
    <contour>
      <point x="383" y="265" type="line" smooth="yes"/>
      <point x="217" y="265" type="line" smooth="yes"/>
      <point x="217" y="99" type="line" smooth="yes"/>
      <point x="383" y="99" type="line" smooth="yes"/>
    </contour>
    <contour>
      <point x="42" y="320" type="line" smooth="yes"/>
      <point x="558" y="320" type="line" smooth="yes"/>
      <point x="558" y="460" type="line" smooth="yes"/>
      <point x="42" y="460" type="line" smooth="yes"/>
    </contour>
  </outline>
</glyph>
<glyph name="oslash" format="1">
  <advance width="556"/>
  <unicode hex="00F8"/>
  <outline>
    <contour>
      <point x="188" y="247" type="line" smooth="yes"/>
      <point x="188" y="283" type="line" smooth="yes"/>
      <point x="210" y="374" type="line" smooth="yes"/>
      <point x="278" y="407" type="line" smooth="yes"/>
      <point x="309" y="403" type="line" smooth="yes"/>
      <point x="333" y="389" type="line" smooth="yes"/>
      <point x="191" y="206" type="line" smooth="yes"/>
      <point x="189" y="226" type="line" smooth="yes"/>
    </contour>
    <contour>
      <point x="368" y="283" type="line" smooth="yes"/>
      <point x="368" y="247" type="line" smooth="yes"/>
      <point x="347" y="156" type="line" smooth="yes"/>
      <point x="278" y="123" type="line" smooth="yes"/>
      <point x="246" y="128" type="line" smooth="yes"/>
      <point x="222" y="142" type="line" smooth="yes"/>
      <point x="365" y="324" type="line" smooth="yes"/>
      <point x="367" y="305" type="line" smooth="yes"/>
    </contour>
    <contour>
      <point x="526" y="530" type="line" smooth="yes"/>
      <point x="444" y="530" type="line" smooth="yes"/>
      <point x="425" y="505" type="line" smooth="yes"/>
      <point x="360" y="533" type="line" smooth="yes"/>
      <point x="278" y="543" type="line" smooth="yes"/>
      <point x="90" y="470" type="line" smooth="yes"/>
      <point x="30" y="283" type="line" smooth="yes"/>
      <point x="30" y="247" type="line" smooth="yes"/>
      <point x="43" y="147" type="line" smooth="yes"/>
      <point x="83" y="68" type="line" smooth="yes"/>
      <point x="30" y="0" type="line" smooth="yes"/>
      <point x="111" y="0" type="line" smooth="yes"/>
      <point x="130" y="25" type="line" smooth="yes"/>
      <point x="195" y="-3" type="line" smooth="yes"/>
      <point x="278" y="-13" type="line" smooth="yes"/>
      <point x="466" y="60" type="line" smooth="yes"/>
      <point x="526" y="247" type="line" smooth="yes"/>
      <point x="526" y="283" type="line" smooth="yes"/>
      <point x="513" y="382" type="line" smooth="yes"/>
      <point x="473" y="462" type="line" smooth="yes"/>
    </contour>
  </outline>
</glyph>
<glyph name="ugrave" format="1">
  <advance width="580"/>
  <unicode hex="00F9"/>
  <outline>
    <contour>
      <point x="101" y="780" type="line" smooth="yes"/>
      <point x="208" y="596" type="line" smooth="yes"/>
      <point x="364" y="596" type="line" smooth="yes"/>
      <point x="273" y="780" type="line" smooth="yes"/>
    </contour>
    <contour>
      <point x="48" y="530" type="line" smooth="yes"/>
      <point x="48" y="171" type="line" smooth="yes"/>
      <point x="85" y="43" type="line" smooth="yes"/>
      <point x="212" y="-13" type="line" smooth="yes"/>
      <point x="315" y="9" type="line" smooth="yes"/>
      <point x="382" y="67" type="line" smooth="yes"/>
      <point x="394" y="0" type="line" smooth="yes"/>
      <point x="535" y="0" type="line" smooth="yes"/>
      <point x="526" y="150" type="line" smooth="yes"/>
      <point x="526" y="530" type="line" smooth="yes"/>
      <point x="368" y="530" type="line" smooth="yes"/>
      <point x="368" y="173" type="line" smooth="yes"/>
      <point x="335" y="141" type="line" smooth="yes"/>
      <point x="275" y="123" type="line" smooth="yes"/>
      <point x="220" y="146" type="line" smooth="yes"/>
      <point x="205" y="197" type="line" smooth="yes"/>
      <point x="205" y="530" type="line" smooth="yes"/>
    </contour>
  </outline>
</glyph>
<glyph name="ydieresis" format="1">
  <advance width="551"/>
  <unicode hex="00FF"/>
  <outline>
    <contour>
      <point x="252" y="772" type="line" smooth="yes"/>
      <point x="87" y="772" type="line" smooth="yes"/>
      <point x="87" y="606" type="line" smooth="yes"/>
      <point x="252" y="606" type="line" smooth="yes"/>
    </contour>
    <contour>
      <point x="467" y="772" type="line" smooth="yes"/>
      <point x="302" y="772" type="line" smooth="yes"/>
      <point x="302" y="606" type="line" smooth="yes"/>
      <point x="467" y="606" type="line" smooth="yes"/>
    </contour>
    <contour>
      <point x="277" y="192" type="line" smooth="yes"/>
      <point x="177" y="530" type="line" smooth="yes"/>
      <point x="5" y="530" type="line" smooth="yes"/>
      <point x="191" y="28" type="line" smooth="yes"/>
      <point x="106" y="-200" type="line" smooth="yes"/>
      <point x="294" y="-200" type="line" smooth="yes"/>
      <point x="362" y="28" type="line" smooth="yes"/>
      <point x="549" y="530" type="line" smooth="yes"/>
      <point x="377" y="530" type="line" smooth="yes"/>
    </contour>
  </outline>
</glyph>
<glyph name="Aogonek" format="1">
  <advance width="641"/>
  <unicode hex="0104"/>
  <outline>
    <contour>
      <point x="320" y="595" type="line" smooth="yes"/>
      <point x="384" y="308" type="line" smooth="yes"/>
      <point x="256" y="308" type="line" smooth="yes"/>
    </contour>
    <contour>
      <point x="565" y="-69" type="line" smooth="yes"/>
      <point x="581" y="-30" type="line" smooth="yes"/>
      <point x="627" y="0" type="line" smooth="yes"/>
      <point x="432" y="782" type="line" smooth="yes"/>
      <point x="209" y="782" type="line" smooth="yes"/>
      <point x="14" y="0" type="line" smooth="yes"/>
      <point x="188" y="0" type="line" smooth="yes"/>
      <point x="225" y="168" type="line" smooth="yes"/>
      <point x="416" y="168" type="line" smooth="yes"/>
      <point x="454" y="0" type="line" smooth="yes"/>
      <point x="492" y="0" type="line" smooth="yes"/>
      <point x="460" y="-48" type="line" smooth="yes"/>
      <point x="448" y="-107" type="line" smooth="yes"/>
      <point x="485" y="-188" type="line" smooth="yes"/>
      <point x="583" y="-215" type="line" smooth="yes"/>
      <point x="642" y="-207" type="line" smooth="yes"/>
      <point x="686" y="-190" type="line" smooth="yes"/>
      <point x="650" y="-94" type="line" smooth="yes"/>
      <point x="633" y="-101" type="line" smooth="yes"/>
      <point x="608" y="-105" type="line" smooth="yes"/>
      <point x="577" y="-95" type="line" smooth="yes"/>
    </contour>
  </outline>
</glyph>
<glyph name="aogonek" format="1">
  <advance width="549"/>
  <unicode hex="0105"/>
  <outline>
    <contour>
      <point x="329" y="-107" type="line" smooth="yes"/>
      <point x="366" y="-188" type="line" smooth="yes"/>
      <point x="464" y="-215" type="line" smooth="yes"/>
      <point x="523" y="-207" type="line" smooth="yes"/>
      <point x="567" y="-190" type="line" smooth="yes"/>
      <point x="531" y="-94" type="line" smooth="yes"/>
      <point x="514" y="-101" type="line" smooth="yes"/>
      <point x="489" y="-105" type="line" smooth="yes"/>
      <point x="458" y="-95" type="line" smooth="yes"/>
      <point x="446" y="-69" type="line" smooth="yes"/>
      <point x="462" y="-30" type="line" smooth="yes"/>
      <point x="508" y="0" type="line" smooth="yes"/>
      <point x="510" y="0" type="line" smooth="yes"/>
      <point x="500" y="150" type="line" smooth="yes"/>
      <point x="500" y="341" type="line" smooth="yes"/>
      <point x="452" y="490" type="line" smooth="yes"/>
      <point x="275" y="543" type="line" smooth="yes"/>
      <point x="97" y="488" type="line" smooth="yes"/>
      <point x="50" y="364" type="line" smooth="yes"/>
      <point x="50" y="355" type="line" smooth="yes"/>
      <point x="199" y="355" type="line" smooth="yes"/>
      <point x="213" y="402" type="line" smooth="yes"/>
      <point x="270" y="423" type="line" smooth="yes"/>
      <point x="326" y="404" type="line" smooth="yes"/>
      <point x="342" y="345" type="line" smooth="yes"/>
      <point x="220" y="326" type="line" smooth="yes"/>
      <point x="83" y="278" type="line" smooth="yes"/>
      <point x="30" y="156" type="line" smooth="yes"/>
      <point x="30" y="146" type="line" smooth="yes"/>
      <point x="66" y="35" type="line" smooth="yes"/>
      <point x="192" y="-13" type="line" smooth="yes"/>
      <point x="289" y="6" type="line" smooth="yes"/>
      <point x="358" y="55" type="line" smooth="yes"/>
      <point x="369" y="-4" type="line" smooth="yes"/>
      <point x="340" y="-51" type="line" smooth="yes"/>
    </contour>
    <contour>
      <point x="250" y="115" type="line" smooth="yes"/>
      <point x="201" y="132" type="line" smooth="yes"/>
      <point x="187" y="169" type="line" smooth="yes"/>
      <point x="187" y="175" type="line" smooth="yes"/>
      <point x="201" y="216" type="line" smooth="yes"/>
      <point x="252" y="238" type="line" smooth="yes"/>
      <point x="342" y="252" type="line" smooth="yes"/>
      <point x="342" y="155" type="line" smooth="yes"/>
      <point x="307" y="128" type="line" smooth="yes"/>
    </contour>
  </outline>
</glyph>
<glyph name="Cacute" format="1">
  <advance width="650"/>
  <unicode hex="0106"/>
  <outline>
    <contour>
      <point x="309" y="950" type="line" smooth="yes"/>
      <point x="254" y="840" type="line" smooth="yes"/>
      <point x="410" y="840" type="line" smooth="yes"/>
      <point x="474" y="950" type="line" smooth="yes"/>
    </contour>
    <contour>
      <point x="203" y="370" type="line" smooth="yes"/>
      <point x="203" y="410" type="line" smooth="yes"/>
      <point x="229" y="590" type="line" smooth="yes"/>
      <point x="332" y="653" type="line" smooth="yes"/>
      <point x="341" y="653" type="line" smooth="yes"/>
      <point x="427" y="609" type="line" smooth="yes"/>
      <point x="449" y="484" type="line" smooth="yes"/>
      <point x="611" y="484" type="line" smooth="yes"/>
      <point x="611" y="520" type="line" smooth="yes"/>
      <point x="541" y="730" type="line" smooth="yes"/>
      <point x="332" y="793" type="line" smooth="yes"/>
      <point x="109" y="703" type="line" smooth="yes"/>
      <point x="39" y="410" type="line" smooth="yes"/>
      <point x="39" y="370" type="line" smooth="yes"/>
      <point x="109" y="77" type="line" smooth="yes"/>
      <point x="332" y="-13" type="line" smooth="yes"/>
      <point x="541" y="50" type="line" smooth="yes"/>
      <point x="611" y="257" type="line" smooth="yes"/>
      <point x="611" y="266" type="line" smooth="yes"/>
      <point x="449" y="266" type="line" smooth="yes"/>
      <point x="425" y="165" type="line" smooth="yes"/>
      <point x="341" y="127" type="line" smooth="yes"/>
      <point x="332" y="127" type="line" smooth="yes"/>
      <point x="229" y="190" type="line" smooth="yes"/>
    </contour>
  </outline>
</glyph>
<glyph name="Ccircumflex" format="1">
  <advance width="650"/>
  <unicode hex="0108"/>
  <outline>
    <contour>
      <point x="270" y="840" type="line" smooth="yes"/>
      <point x="332" y="884" type="line" smooth="yes"/>
      <point x="394" y="840" type="line" smooth="yes"/>
      <point x="536" y="840" type="line" smooth="yes"/>
      <point x="412" y="950" type="line" smooth="yes"/>
      <point x="252" y="950" type="line" smooth="yes"/>
      <point x="128" y="840" type="line" smooth="yes"/>
    </contour>
    <contour>
      <point x="203" y="370" type="line" smooth="yes"/>
      <point x="203" y="410" type="line" smooth="yes"/>
      <point x="229" y="590" type="line" smooth="yes"/>
      <point x="332" y="653" type="line" smooth="yes"/>
      <point x="341" y="653" type="line" smooth="yes"/>
      <point x="427" y="609" type="line" smooth="yes"/>
      <point x="449" y="484" type="line" smooth="yes"/>
      <point x="611" y="484" type="line" smooth="yes"/>
      <point x="611" y="520" type="line" smooth="yes"/>
      <point x="541" y="730" type="line" smooth="yes"/>
      <point x="332" y="793" type="line" smooth="yes"/>
      <point x="109" y="703" type="line" smooth="yes"/>
      <point x="39" y="410" type="line" smooth="yes"/>
      <point x="39" y="370" type="line" smooth="yes"/>
      <point x="109" y="77" type="line" smooth="yes"/>
      <point x="332" y="-13" type="line" smooth="yes"/>
      <point x="541" y="50" type="line" smooth="yes"/>
      <point x="611" y="257" type="line" smooth="yes"/>
      <point x="611" y="266" type="line" smooth="yes"/>
      <point x="449" y="266" type="line" smooth="yes"/>
      <point x="425" y="165" type="line" smooth="yes"/>
      <point x="341" y="127" type="line" smooth="yes"/>
      <point x="332" y="127" type="line" smooth="yes"/>
      <point x="229" y="190" type="line" smooth="yes"/>
    </contour>
  </outline>
</glyph>
<glyph name="Ccaron" format="1">
  <advance width="650"/>
  <unicode hex="010C"/>
  <outline>
    <contour>
      <point x="128" y="950" type="line" smooth="yes"/>
      <point x="252" y="840" type="line" smooth="yes"/>
      <point x="412" y="840" type="line" smooth="yes"/>
      <point x="536" y="950" type="line" smooth="yes"/>
      <point x="394" y="950" type="line" smooth="yes"/>
      <point x="332" y="905" type="line" smooth="yes"/>
      <point x="270" y="950" type="line" smooth="yes"/>
    </contour>
    <contour>
      <point x="203" y="370" type="line" smooth="yes"/>
      <point x="203" y="410" type="line" smooth="yes"/>
      <point x="229" y="590" type="line" smooth="yes"/>
      <point x="332" y="653" type="line" smooth="yes"/>
      <point x="341" y="653" type="line" smooth="yes"/>
      <point x="427" y="609" type="line" smooth="yes"/>
      <point x="449" y="484" type="line" smooth="yes"/>
      <point x="611" y="484" type="line" smooth="yes"/>
      <point x="611" y="520" type="line" smooth="yes"/>
      <point x="541" y="730" type="line" smooth="yes"/>
      <point x="332" y="793" type="line" smooth="yes"/>
      <point x="109" y="703" type="line" smooth="yes"/>
      <point x="39" y="410" type="line" smooth="yes"/>
      <point x="39" y="370" type="line" smooth="yes"/>
      <point x="109" y="77" type="line" smooth="yes"/>
      <point x="332" y="-13" type="line" smooth="yes"/>
      <point x="541" y="50" type="line" smooth="yes"/>
      <point x="611" y="257" type="line" smooth="yes"/>
      <point x="611" y="266" type="line" smooth="yes"/>
      <point x="449" y="266" type="line" smooth="yes"/>
      <point x="425" y="165" type="line" smooth="yes"/>
      <point x="341" y="127" type="line" smooth="yes"/>
      <point x="332" y="127" type="line" smooth="yes"/>
      <point x="229" y="190" type="line" smooth="yes"/>
    </contour>
  </outline>
</glyph>
<glyph name="Dcroat" format="1">
  <advance width="723"/>
  <unicode hex="0110"/>
  <outline>
    <contour>
      <point x="278" y="640" type="line" smooth="yes"/>
      <point x="346" y="640" type="line" smooth="yes"/>
      <point x="483" y="584" type="line" smooth="yes"/>
      <point x="519" y="410" type="line" smooth="yes"/>
      <point x="519" y="370" type="line" smooth="yes"/>
      <point x="483" y="197" type="line" smooth="yes"/>
      <point x="346" y="140" type="line" smooth="yes"/>
      <point x="278" y="140" type="line" smooth="yes"/>
      <point x="278" y="339" type="line" smooth="yes"/>
      <point x="443" y="339" type="line" smooth="yes"/>
      <point x="443" y="460" type="line" smooth="yes"/>
      <point x="278" y="460" type="line" smooth="yes"/>
    </contour>
    <contour>
      <point x="12" y="339" type="line" smooth="yes"/>
      <point x="116" y="339" type="line" smooth="yes"/>
      <point x="116" y="0" type="line" smooth="yes"/>
      <point x="355" y="0" type="line" smooth="yes"/>
      <point x="607" y="84" type="line" smooth="yes"/>
      <point x="684" y="370" type="line" smooth="yes"/>
      <point x="684" y="410" type="line" smooth="yes"/>
      <point x="607" y="696" type="line" smooth="yes"/>
      <point x="355" y="780" type="line" smooth="yes"/>
      <point x="116" y="780" type="line" smooth="yes"/>
      <point x="116" y="460" type="line" smooth="yes"/>
      <point x="12" y="460" type="line" smooth="yes"/>
    </contour>
  </outline>
</glyph>
<glyph name="dcroat" format="1">
  <advance width="582"/>
  <unicode hex="0111"/>
  <outline>
    <contour>
      <point x="371" y="357" type="line" smooth="yes"/>
      <point x="371" y="173" type="line" smooth="yes"/>
      <point x="339" y="140" type="line" smooth="yes"/>
      <point x="280" y="122" type="line" smooth="yes"/>
      <point x="215" y="155" type="line" smooth="yes"/>
      <point x="195" y="247" type="line" smooth="yes"/>
      <point x="195" y="283" type="line" smooth="yes"/>
      <point x="215" y="375" type="line" smooth="yes"/>
      <point x="280" y="408" type="line" smooth="yes"/>
      <point x="339" y="390" type="line" smooth="yes"/>
    </contour>
    <contour>
      <point x="596" y="721" type="line" smooth="yes"/>
      <point x="528" y="721" type="line" smooth="yes"/>
      <point x="528" y="800" type="line" smooth="yes"/>
      <point x="371" y="800" type="line" smooth="yes"/>
      <point x="371" y="721" type="line" smooth="yes"/>
      <point x="258" y="721" type="line" smooth="yes"/>
      <point x="258" y="609" type="line" smooth="yes"/>
      <point x="371" y="609" type="line" smooth="yes"/>
      <point x="371" y="485" type="line" smooth="yes"/>
      <point x="315" y="527" type="line" smooth="yes"/>
      <point x="235" y="543" type="line" smooth="yes"/>
      <point x="82" y="470" type="line" smooth="yes"/>
      <point x="38" y="283" type="line" smooth="yes"/>
      <point x="38" y="247" type="line" smooth="yes"/>
      <point x="82" y="60" type="line" smooth="yes"/>
      <point x="235" y="-13" type="line" smooth="yes"/>
      <point x="327" y="9" type="line" smooth="yes"/>
      <point x="385" y="64" type="line" smooth="yes"/>
      <point x="397" y="0" type="line" smooth="yes"/>
      <point x="537" y="0" type="line" smooth="yes"/>
      <point x="528" y="150" type="line" smooth="yes"/>
      <point x="528" y="609" type="line" smooth="yes"/>
      <point x="596" y="609" type="line" smooth="yes"/>
    </contour>
  </outline>
</glyph>
<glyph name="Ebreve" format="1">
  <advance width="573"/>
  <unicode hex="0114"/>
  <outline>
    <contour>
      <point x="56" y="780" type="line" smooth="yes"/>
      <point x="56" y="0" type="line" smooth="yes"/>
      <point x="533" y="0" type="line" smooth="yes"/>
      <point x="533" y="140" type="line" smooth="yes"/>
      <point x="218" y="140" type="line" smooth="yes"/>
      <point x="218" y="328" type="line" smooth="yes"/>
      <point x="483" y="328" type="line" smooth="yes"/>
      <point x="483" y="468" type="line" smooth="yes"/>
      <point x="218" y="468" type="line" smooth="yes"/>
      <point x="218" y="640" type="line" smooth="yes"/>
      <point x="533" y="640" type="line" smooth="yes"/>
      <point x="533" y="780" type="line" smooth="yes"/>
    </contour>
    <contour>
      <point x="296" y="825" type="line" smooth="yes"/>
      <point x="443" y="862" type="line" smooth="yes"/>
      <point x="479" y="950" type="line" smooth="yes"/>
      <point x="370" y="950" type="line" smooth="yes"/>
      <point x="353" y="920" type="line" smooth="yes"/>
      <point x="296" y="910" type="line" smooth="yes"/>
      <point x="239" y="920" type="line" smooth="yes"/>
      <point x="222" y="950" type="line" smooth="yes"/>
      <point x="113" y="950" type="line" smooth="yes"/>
      <point x="149" y="862" type="line" smooth="yes"/>
    </contour>
  </outline>
</glyph>
<glyph name="ebreve" format="1">
  <advance width="556"/>
  <unicode hex="0115"/>
  <outline>
    <contour>
      <point x="278" y="423" type="line" smooth="yes"/>
      <point x="342" y="398" type="line" smooth="yes"/>
      <point x="367" y="322" type="line" smooth="yes"/>
      <point x="189" y="322" type="line" smooth="yes"/>
      <point x="214" y="398" type="line" smooth="yes"/>
    </contour>
    <contour>
      <point x="281" y="582" type="line" smooth="yes"/>
      <point x="428" y="638" type="line" smooth="yes"/>
      <point x="468" y="780" type="line" smooth="yes"/>
      <point x="355" y="780" type="line" smooth="yes"/>
      <point x="334" y="719" type="line" smooth="yes"/>
      <point x="281" y="702" type="line" smooth="yes"/>
      <point x="228" y="719" type="line" smooth="yes"/>
      <point x="207" y="780" type="line" smooth="yes"/>
      <point x="94" y="780" type="line" smooth="yes"/>
      <point x="134" y="638" type="line" smooth="yes"/>
    </contour>
    <contour>
      <point x="526" y="208" type="line" smooth="yes"/>
      <point x="526" y="279" type="line" smooth="yes"/>
      <point x="467" y="468" type="line" smooth="yes"/>
      <point x="281" y="543" type="line" smooth="yes"/>
      <point x="93" y="468" type="line" smooth="yes"/>
      <point x="30" y="279" type="line" smooth="yes"/>
      <point x="30" y="251" type="line" smooth="yes"/>
      <point x="93" y="62" type="line" smooth="yes"/>
      <point x="287" y="-13" type="line" smooth="yes"/>
      <point x="464" y="39" type="line" smooth="yes"/>
      <point x="526" y="166" type="line" smooth="yes"/>
      <point x="526" y="170" type="line" smooth="yes"/>
      <point x="377" y="170" type="line" smooth="yes"/>
      <point x="353" y="127" type="line" smooth="yes"/>
      <point x="288" y="107" type="line" smooth="yes"/>
      <point x="218" y="130" type="line" smooth="yes"/>
      <point x="188" y="208" type="line" smooth="yes"/>
    </contour>
  </outline>
</glyph>
<glyph name="Eogonek" format="1">
  <advance width="573"/>
  <unicode hex="0118"/>
  <outline>
    <contour>
      <point x="56" y="780" type="line" smooth="yes"/>
      <point x="56" y="0" type="line" smooth="yes"/>
      <point x="397" y="0" type="line" smooth="yes"/>
      <point x="365" y="-48" type="line" smooth="yes"/>
      <point x="353" y="-107" type="line" smooth="yes"/>
      <point x="390" y="-188" type="line" smooth="yes"/>
      <point x="488" y="-215" type="line" smooth="yes"/>
      <point x="547" y="-207" type="line" smooth="yes"/>
      <point x="591" y="-190" type="line" smooth="yes"/>
      <point x="555" y="-94" type="line" smooth="yes"/>
      <point x="538" y="-101" type="line" smooth="yes"/>
      <point x="513" y="-105" type="line" smooth="yes"/>
      <point x="482" y="-95" type="line" smooth="yes"/>
      <point x="470" y="-69" type="line" smooth="yes"/>
      <point x="486" y="-30" type="line" smooth="yes"/>
      <point x="532" y="0" type="line" smooth="yes"/>
      <point x="533" y="0" type="line" smooth="yes"/>
      <point x="533" y="140" type="line" smooth="yes"/>
      <point x="218" y="140" type="line" smooth="yes"/>
      <point x="218" y="328" type="line" smooth="yes"/>
      <point x="483" y="328" type="line" smooth="yes"/>
      <point x="483" y="468" type="line" smooth="yes"/>
      <point x="218" y="468" type="line" smooth="yes"/>
      <point x="218" y="640" type="line" smooth="yes"/>
      <point x="533" y="640" type="line" smooth="yes"/>
      <point x="533" y="780" type="line" smooth="yes"/>
    </contour>
  </outline>
</glyph>
<glyph name="eogonek" format="1">
  <advance width="556"/>
  <unicode hex="0119"/>
  <outline>
    <contour>
      <point x="278" y="423" type="line" smooth="yes"/>
      <point x="342" y="398" type="line" smooth="yes"/>
      <point x="367" y="322" type="line" smooth="yes"/>
      <point x="189" y="322" type="line" smooth="yes"/>
      <point x="214" y="398" type="line" smooth="yes"/>
    </contour>
    <contour>
      <point x="526" y="208" type="line" smooth="yes"/>
      <point x="526" y="279" type="line" smooth="yes"/>
      <point x="467" y="468" type="line" smooth="yes"/>
      <point x="281" y="543" type="line" smooth="yes"/>
      <point x="93" y="468" type="line" smooth="yes"/>
      <point x="30" y="279" type="line" smooth="yes"/>
      <point x="30" y="251" type="line" smooth="yes"/>
      <point x="82" y="74" type="line" smooth="yes"/>
      <point x="243" y="-10" type="line" smooth="yes"/>
      <point x="217" y="-54" type="line" smooth="yes"/>
      <point x="208" y="-107" type="line" smooth="yes"/>
      <point x="245" y="-188" type="line" smooth="yes"/>
      <point x="343" y="-215" type="line" smooth="yes"/>
      <point x="402" y="-207" type="line" smooth="yes"/>
      <point x="446" y="-190" type="line" smooth="yes"/>
      <point x="410" y="-94" type="line" smooth="yes"/>
      <point x="393" y="-101" type="line" smooth="yes"/>
      <point x="368" y="-105" type="line" smooth="yes"/>
      <point x="337" y="-95" type="line" smooth="yes"/>
      <point x="325" y="-69" type="line" smooth="yes"/>
      <point x="341" y="-28" type="line" smooth="yes"/>
      <point x="387" y="0" type="line" smooth="yes"/>
      <point x="489" y="64" type="line" smooth="yes"/>
      <point x="526" y="166" type="line" smooth="yes"/>
      <point x="526" y="170" type="line" smooth="yes"/>
      <point x="377" y="170" type="line" smooth="yes"/>
      <point x="353" y="127" type="line" smooth="yes"/>
      <point x="288" y="107" type="line" smooth="yes"/>
      <point x="218" y="130" type="line" smooth="yes"/>
      <point x="188" y="208" type="line" smooth="yes"/>
    </contour>
  </outline>
</glyph>
<glyph name="Gbreve" format="1">
  <advance width="673"/>
  <unicode hex="011E"/>
  <outline>
    <contour>
      <point x="338" y="825" type="line" smooth="yes"/>
      <point x="485" y="862" type="line" smooth="yes"/>
      <point x="521" y="950" type="line" smooth="yes"/>
      <point x="412" y="950" type="line" smooth="yes"/>
      <point x="395" y="920" type="line" smooth="yes"/>
      <point x="338" y="910" type="line" smooth="yes"/>
      <point x="281" y="920" type="line" smooth="yes"/>
      <point x="264" y="950" type="line" smooth="yes"/>
      <point x="155" y="950" type="line" smooth="yes"/>
      <point x="191" y="862" type="line" smooth="yes"/>
    </contour>
    <contour>
      <point x="348" y="-13" type="line" smooth="yes"/>
      <point x="514" y="15" type="line" smooth="yes"/>
      <point x="621" y="78" type="line" smooth="yes"/>
      <point x="621" y="422" type="line" smooth="yes"/>
      <point x="356" y="422" type="line" smooth="yes"/>
      <point x="356" y="282" type="line" smooth="yes"/>
      <point x="459" y="282" type="line" smooth="yes"/>
      <point x="459" y="157" type="line" smooth="yes"/>
      <point x="414" y="136" type="line" smooth="yes"/>
      <point x="353" y="127" type="line" smooth="yes"/>
      <point x="344" y="127" type="line" smooth="yes"/>
      <point x="231" y="190" type="line" smooth="yes"/>
      <point x="204" y="370" type="line" smooth="yes"/>
      <point x="204" y="410" type="line" smooth="yes"/>
      <point x="231" y="590" type="line" smooth="yes"/>
      <point x="338" y="653" type="line" smooth="yes"/>
      <point x="347" y="653" type="line" smooth="yes"/>
      <point x="437" y="609" type="line" smooth="yes"/>
      <point x="460" y="484" type="line" smooth="yes"/>
      <point x="622" y="484" type="line" smooth="yes"/>
      <point x="622" y="520" type="line" smooth="yes"/>
      <point x="550" y="730" type="line" smooth="yes"/>
      <point x="338" y="793" type="line" smooth="yes"/>
      <point x="113" y="703" type="line" smooth="yes"/>
      <point x="39" y="410" type="line" smooth="yes"/>
      <point x="39" y="370" type="line" smooth="yes"/>
      <point x="114" y="77" type="line" smooth="yes"/>
    </contour>
  </outline>
</glyph>
<glyph name="Gcommaaccent" format="1">
  <advance width="673"/>
  <unicode hex="0122"/>
  <outline>
    <contour>
      <point x="419" y="-44" type="line" smooth="yes"/>
      <point x="277" y="-44" type="line" smooth="yes"/>
      <point x="277" y="-136" type="line" smooth="yes"/>
      <point x="356" y="-136" type="line" smooth="yes"/>
      <point x="325" y="-164" type="line" smooth="yes"/>
      <point x="272" y="-172" type="line" smooth="yes"/>
      <point x="272" y="-226" type="line" smooth="yes"/>
      <point x="383" y="-197" type="line" smooth="yes"/>
      <point x="419" y="-101" type="line" smooth="yes"/>
    </contour>
    <contour>
      <point x="348" y="-13" type="line" smooth="yes"/>
      <point x="514" y="15" type="line" smooth="yes"/>
      <point x="621" y="78" type="line" smooth="yes"/>
      <point x="621" y="422" type="line" smooth="yes"/>
      <point x="356" y="422" type="line" smooth="yes"/>
      <point x="356" y="282" type="line" smooth="yes"/>
      <point x="459" y="282" type="line" smooth="yes"/>
      <point x="459" y="157" type="line" smooth="yes"/>
      <point x="414" y="136" type="line" smooth="yes"/>
      <point x="353" y="127" type="line" smooth="yes"/>
      <point x="344" y="127" type="line" smooth="yes"/>
      <point x="231" y="190" type="line" smooth="yes"/>
      <point x="204" y="370" type="line" smooth="yes"/>
      <point x="204" y="410" type="line" smooth="yes"/>
      <point x="231" y="590" type="line" smooth="yes"/>
      <point x="338" y="653" type="line" smooth="yes"/>
      <point x="347" y="653" type="line" smooth="yes"/>
      <point x="437" y="609" type="line" smooth="yes"/>
      <point x="460" y="484" type="line" smooth="yes"/>
      <point x="622" y="484" type="line" smooth="yes"/>
      <point x="622" y="520" type="line" smooth="yes"/>
      <point x="550" y="730" type="line" smooth="yes"/>
      <point x="338" y="793" type="line" smooth="yes"/>
      <point x="113" y="703" type="line" smooth="yes"/>
      <point x="39" y="410" type="line" smooth="yes"/>
      <point x="39" y="370" type="line" smooth="yes"/>
      <point x="114" y="77" type="line" smooth="yes"/>
    </contour>
  </outline>
</glyph>
<glyph name="gcommaaccent" format="1">
  <advance width="574"/>
  <unicode hex="0123"/>
  <outline>
    <contour>
      <point x="206" y="596" type="line" smooth="yes"/>
      <point x="347" y="596" type="line" smooth="yes"/>
      <point x="347" y="696" type="line" smooth="yes"/>
      <point x="266" y="696" type="line" smooth="yes"/>
      <point x="297" y="730" type="line" smooth="yes"/>
      <point x="353" y="739" type="line" smooth="yes"/>
      <point x="353" y="793" type="line" smooth="yes"/>
      <point x="242" y="762" type="line" smooth="yes"/>
      <point x="206" y="661" type="line" smooth="yes"/>
    </contour>
    <contour>
      <point x="273" y="154" type="line" smooth="yes"/>
      <point x="208" y="182" type="line" smooth="yes"/>
      <point x="187" y="267" type="line" smooth="yes"/>
      <point x="187" y="295" type="line" smooth="yes"/>
      <point x="208" y="377" type="line" smooth="yes"/>
      <point x="273" y="408" type="line" smooth="yes"/>
      <point x="332" y="390" type="line" smooth="yes"/>
      <point x="364" y="357" type="line" smooth="yes"/>
      <point x="364" y="205" type="line" smooth="yes"/>
      <point x="332" y="172" type="line" smooth="yes"/>
    </contour>
    <contour>
      <point x="364" y="11" type="line" smooth="yes"/>
      <point x="341" y="-65" type="line" smooth="yes"/>
      <point x="273" y="-86" type="line" smooth="yes"/>
      <point x="206" y="-62" type="line" smooth="yes"/>
      <point x="189" y="0" type="line" smooth="yes"/>
      <point x="41" y="0" type="line" smooth="yes"/>
      <point x="41" y="-21" type="line" smooth="yes"/>
      <point x="93" y="-157" type="line" smooth="yes"/>
      <point x="276" y="-213" type="line" smooth="yes"/>
      <point x="461" y="-156" type="line" smooth="yes"/>
      <point x="521" y="10" type="line" smooth="yes"/>
      <point x="521" y="380" type="line" smooth="yes"/>
      <point x="530" y="530" type="line" smooth="yes"/>
      <point x="389" y="530" type="line" smooth="yes"/>
      <point x="378" y="470" type="line" smooth="yes"/>
      <point x="319" y="523" type="line" smooth="yes"/>
      <point x="227" y="543" type="line" smooth="yes"/>
      <point x="77" y="472" type="line" smooth="yes"/>
      <point x="31" y="295" type="line" smooth="yes"/>
      <point x="31" y="267" type="line" smooth="yes"/>
      <point x="77" y="87" type="line" smooth="yes"/>
      <point x="227" y="19" type="line" smooth="yes"/>
      <point x="308" y="34" type="line" smooth="yes"/>
      <point x="364" y="73" type="line" smooth="yes"/>
    </contour>
  </outline>
</glyph>
<glyph name="hcircumflex" format="1">
  <advance width="579"/>
  <unicode hex="0125"/>
  <outline>
    <contour>
      <point x="70" y="840" type="line" smooth="yes"/>
      <point x="132" y="884" type="line" smooth="yes"/>
      <point x="194" y="840" type="line" smooth="yes"/>
      <point x="336" y="840" type="line" smooth="yes"/>
      <point x="212" y="950" type="line" smooth="yes"/>
      <point x="52" y="950" type="line" smooth="yes"/>
      <point x="-72" y="840" type="line" smooth="yes"/>
    </contour>
    <contour>
      <point x="212" y="800" type="line" smooth="yes"/>
      <point x="54" y="800" type="line" smooth="yes"/>
      <point x="54" y="0" type="line" smooth="yes"/>
      <point x="212" y="0" type="line" smooth="yes"/>
      <point x="212" y="357" type="line" smooth="yes"/>
      <point x="244" y="389" type="line" smooth="yes"/>
      <point x="305" y="407" type="line" smooth="yes"/>
      <point x="360" y="384" type="line" smooth="yes"/>
      <point x="375" y="333" type="line" smooth="yes"/>
      <point x="375" y="0" type="line" smooth="yes"/>
      <point x="532" y="0" type="line" smooth="yes"/>
      <point x="532" y="359" type="line" smooth="yes"/>
      <point x="495" y="487" type="line" smooth="yes"/>
      <point x="368" y="543" type="line" smooth="yes"/>
      <point x="276" y="525" type="line" smooth="yes"/>
      <point x="212" y="479" type="line" smooth="yes"/>
    </contour>
  </outline>
</glyph>
<glyph name="Itilde" format="1">
  <advance width="283"/>
  <unicode hex="0128"/>
  <outline>
    <contour>
      <point x="242" y="947" type="line" smooth="yes"/>
      <point x="232" y="921" type="line" smooth="yes"/>
      <point x="209" y="914" type="line" smooth="yes"/>
      <point x="144" y="938" type="line" smooth="yes"/>
      <point x="60" y="962" type="line" smooth="yes"/>
      <point x="-12" y="936" type="line" smooth="yes"/>
      <point x="-43" y="843" type="line" smooth="yes"/>
      <point x="42" y="843" type="line" smooth="yes"/>
      <point x="52" y="869" type="line" smooth="yes"/>
      <point x="75" y="876" type="line" smooth="yes"/>
      <point x="140" y="852" type="line" smooth="yes"/>
      <point x="224" y="828" type="line" smooth="yes"/>
      <point x="296" y="855" type="line" smooth="yes"/>
      <point x="327" y="947" type="line" smooth="yes"/>
    </contour>
    <contour>
      <point x="223" y="780" type="line" smooth="yes"/>
      <point x="61" y="780" type="line" smooth="yes"/>
      <point x="61" y="0" type="line" smooth="yes"/>
      <point x="223" y="0" type="line" smooth="yes"/>
    </contour>
  </outline>
</glyph>
<glyph name="itilde" format="1">
  <advance width="266"/>
  <unicode hex="0129"/>
  <outline>
    <contour>
      <point x="229" y="772" type="line" smooth="yes"/>
      <point x="220" y="743" type="line" smooth="yes"/>
      <point x="198" y="735" type="line" smooth="yes"/>
      <point x="130" y="761" type="line" smooth="yes"/>
      <point x="43" y="787" type="line" smooth="yes"/>
      <point x="-36" y="750" type="line" smooth="yes"/>
      <point x="-68" y="628" type="line" smooth="yes"/>
      <point x="37" y="628" type="line" smooth="yes"/>
      <point x="46" y="657" type="line" smooth="yes"/>
      <point x="68" y="665" type="line" smooth="yes"/>
      <point x="137" y="639" type="line" smooth="yes"/>
      <point x="223" y="613" type="line" smooth="yes"/>
      <point x="302" y="651" type="line" smooth="yes"/>
      <point x="334" y="772" type="line" smooth="yes"/>
    </contour>
    <contour>
      <point x="54" y="0" type="line" smooth="yes"/>
      <point x="211" y="0" type="line" smooth="yes"/>
      <point x="211" y="530" type="line" smooth="yes"/>
      <point x="54" y="530" type="line" smooth="yes"/>
    </contour>
  </outline>
</glyph>
<glyph name="Ibreve" format="1">
  <advance width="283"/>
  <unicode hex="012C"/>
  <outline>
    <contour>
      <point x="142" y="825" type="line" smooth="yes"/>
      <point x="289" y="862" type="line" smooth="yes"/>
      <point x="325" y="950" type="line" smooth="yes"/>
      <point x="216" y="950" type="line" smooth="yes"/>
      <point x="199" y="920" type="line" smooth="yes"/>
      <point x="142" y="910" type="line" smooth="yes"/>
      <point x="85" y="920" type="line" smooth="yes"/>
      <point x="68" y="950" type="line" smooth="yes"/>
      <point x="-41" y="950" type="line" smooth="yes"/>
      <point x="-5" y="862" type="line" smooth="yes"/>
    </contour>
    <contour>
      <point x="223" y="780" type="line" smooth="yes"/>
      <point x="61" y="780" type="line" smooth="yes"/>
      <point x="61" y="0" type="line" smooth="yes"/>
      <point x="223" y="0" type="line" smooth="yes"/>
    </contour>
  </outline>
</glyph>
<glyph name="ibreve" format="1">
  <advance width="265"/>
  <unicode hex="012D"/>
  <outline>
    <contour>
      <point x="133" y="582" type="line" smooth="yes"/>
      <point x="280" y="638" type="line" smooth="yes"/>
      <point x="320" y="780" type="line" smooth="yes"/>
      <point x="207" y="780" type="line" smooth="yes"/>
      <point x="186" y="719" type="line" smooth="yes"/>
      <point x="133" y="702" type="line" smooth="yes"/>
      <point x="80" y="719" type="line" smooth="yes"/>
      <point x="59" y="780" type="line" smooth="yes"/>
      <point x="-54" y="780" type="line" smooth="yes"/>
      <point x="-14" y="638" type="line" smooth="yes"/>
    </contour>
    <contour>
      <point x="54" y="0" type="line" smooth="yes"/>
      <point x="211" y="0" type="line" smooth="yes"/>
      <point x="211" y="530" type="line" smooth="yes"/>
      <point x="54" y="530" type="line" smooth="yes"/>
    </contour>
  </outline>
</glyph>
<glyph name="Iogonek" format="1">
  <advance width="283"/>
  <unicode hex="012E"/>
  <outline>
    <contour>
      <point x="160" y="-69" type="line" smooth="yes"/>
      <point x="176" y="-30" type="line" smooth="yes"/>
      <point x="222" y="0" type="line" smooth="yes"/>
      <point x="223" y="0" type="line" smooth="yes"/>
      <point x="223" y="780" type="line" smooth="yes"/>
      <point x="61" y="780" type="line" smooth="yes"/>
      <point x="61" y="-35" type="line" smooth="yes"/>
      <point x="48" y="-69" type="line" smooth="yes"/>
      <point x="43" y="-107" type="line" smooth="yes"/>
      <point x="80" y="-188" type="line" smooth="yes"/>
      <point x="178" y="-215" type="line" smooth="yes"/>
      <point x="237" y="-207" type="line" smooth="yes"/>
      <point x="281" y="-190" type="line" smooth="yes"/>
      <point x="245" y="-94" type="line" smooth="yes"/>
      <point x="228" y="-101" type="line" smooth="yes"/>
      <point x="203" y="-105" type="line" smooth="yes"/>
      <point x="172" y="-95" type="line" smooth="yes"/>
    </contour>
  </outline>
</glyph>
<glyph name="iogonek" format="1">
  <advance width="266"/>
  <unicode hex="012F"/>
  <outline>
    <contour>
      <point x="216" y="772" type="line" smooth="yes"/>
      <point x="50" y="772" type="line" smooth="yes"/>
      <point x="50" y="605" type="line" smooth="yes"/>
      <point x="216" y="605" type="line" smooth="yes"/>
    </contour>
    <contour>
      <point x="32" y="-107" type="line" smooth="yes"/>
      <point x="69" y="-188" type="line" smooth="yes"/>
      <point x="167" y="-215" type="line" smooth="yes"/>
      <point x="226" y="-207" type="line" smooth="yes"/>
      <point x="270" y="-190" type="line" smooth="yes"/>
      <point x="234" y="-94" type="line" smooth="yes"/>
      <point x="217" y="-101" type="line" smooth="yes"/>
      <point x="192" y="-105" type="line" smooth="yes"/>
      <point x="161" y="-95" type="line" smooth="yes"/>
      <point x="149" y="-69" type="line" smooth="yes"/>
      <point x="165" y="-30" type="line" smooth="yes"/>
      <point x="211" y="0" type="line" smooth="yes"/>
      <point x="212" y="0" type="line" smooth="yes"/>
      <point x="212" y="530" type="line" smooth="yes"/>
      <point x="54" y="530" type="line" smooth="yes"/>
      <point x="54" y="-28" type="line" smooth="yes"/>
      <point x="38" y="-65" type="line" smooth="yes"/>
    </contour>
  </outline>
</glyph>
<glyph name="IJ" format="1">
  <advance width="607"/>
  <unicode hex="0132"/>
  <outline>
    <contour>
      <point x="223" y="780" type="line" smooth="yes"/>
      <point x="61" y="780" type="line" smooth="yes"/>
      <point x="61" y="0" type="line" smooth="yes"/>
      <point x="223" y="0" type="line" smooth="yes"/>
    </contour>
    <contour>
      <point x="395" y="209" type="line" smooth="yes"/>
      <point x="375" y="143" type="line" smooth="yes"/>
      <point x="318" y="127" type="line" smooth="yes"/>
      <point x="288" y="130" type="line" smooth="yes"/>
      <point x="266" y="136" type="line" smooth="yes"/>
      <point x="266" y="3" type="line" smooth="yes"/>
      <point x="298" y="-8" type="line" smooth="yes"/>
      <point x="361" y="-13" type="line" smooth="yes"/>
      <point x="502" y="33" type="line" smooth="yes"/>
      <point x="557" y="191" type="line" smooth="yes"/>
      <point x="557" y="780" type="line" smooth="yes"/>
      <point x="395" y="780" type="line" smooth="yes"/>
    </contour>
  </outline>
</glyph>
<glyph name="ij" format="1">
  <advance width="481"/>
  <unicode hex="0133"/>
  <outline>
    <contour>
      <point x="432" y="772" type="line" smooth="yes"/>
      <point x="266" y="772" type="line" smooth="yes"/>
      <point x="266" y="605" type="line" smooth="yes"/>
      <point x="432" y="605" type="line" smooth="yes"/>
    </contour>
    <contour>
      <point x="216" y="772" type="line" smooth="yes"/>
      <point x="50" y="772" type="line" smooth="yes"/>
      <point x="50" y="605" type="line" smooth="yes"/>
      <point x="216" y="605" type="line" smooth="yes"/>
    </contour>
    <contour>
      <point x="54" y="0" type="line" smooth="yes"/>
      <point x="212" y="0" type="line" smooth="yes"/>
      <point x="212" y="530" type="line" smooth="yes"/>
      <point x="54" y="530" type="line" smooth="yes"/>
    </contour>
    <contour>
      <point x="270" y="1" type="line" smooth="yes"/>
      <point x="249" y="-62" type="line" smooth="yes"/>
      <point x="192" y="-77" type="line" smooth="yes"/>
      <point x="163" y="-75" type="line" smooth="yes"/>
      <point x="143" y="-70" type="line" smooth="yes"/>
      <point x="143" y="-200" type="line" smooth="yes"/>
      <point x="171" y="-208" type="line" smooth="yes"/>
      <point x="229" y="-213" type="line" smooth="yes"/>
      <point x="373" y="-169" type="line" smooth="yes"/>
      <point x="428" y="-16" type="line" smooth="yes"/>
      <point x="428" y="530" type="line" smooth="yes"/>
      <point x="270" y="530" type="line" smooth="yes"/>
    </contour>
  </outline>
</glyph>
<glyph name="Jcircumflex" format="1">
  <advance width="537"/>
  <unicode hex="0134"/>
  <outline>
    <contour>
      <point x="343" y="840" type="line" smooth="yes"/>
      <point x="405" y="884" type="line" smooth="yes"/>
      <point x="467" y="840" type="line" smooth="yes"/>
      <point x="609" y="840" type="line" smooth="yes"/>
      <point x="485" y="950" type="line" smooth="yes"/>
      <point x="325" y="950" type="line" smooth="yes"/>
      <point x="201" y="840" type="line" smooth="yes"/>
    </contour>
    <contour>
      <point x="324" y="780" type="line" smooth="yes"/>
      <point x="324" y="258" type="line" smooth="yes"/>
      <point x="309" y="161" type="line" smooth="yes"/>
      <point x="250" y="127" type="line" smooth="yes"/>
      <point x="192" y="162" type="line" smooth="yes"/>
      <point x="176" y="266" type="line" smooth="yes"/>
      <point x="23" y="266" type="line" smooth="yes"/>
      <point x="23" y="240" type="line" smooth="yes"/>
      <point x="74" y="53" type="line" smooth="yes"/>
      <point x="254" y="-13" type="line" smooth="yes"/>
      <point x="432" y="53" type="line" smooth="yes"/>
      <point x="486" y="238" type="line" smooth="yes"/>
      <point x="486" y="780" type="line" smooth="yes"/>
    </contour>
  </outline>
</glyph>
<glyph name="Kcommaaccent" format="1">
  <advance width="625"/>
  <unicode hex="0136"/>
  <outline>
    <contour>
      <point x="385" y="-44" type="line" smooth="yes"/>
      <point x="243" y="-44" type="line" smooth="yes"/>
      <point x="243" y="-136" type="line" smooth="yes"/>
      <point x="322" y="-136" type="line" smooth="yes"/>
      <point x="291" y="-164" type="line" smooth="yes"/>
      <point x="238" y="-172" type="line" smooth="yes"/>
      <point x="238" y="-226" type="line" smooth="yes"/>
      <point x="349" y="-197" type="line" smooth="yes"/>
      <point x="385" y="-101" type="line" smooth="yes"/>
    </contour>
    <contour>
      <point x="218" y="780" type="line" smooth="yes"/>
      <point x="56" y="780" type="line" smooth="yes"/>
      <point x="56" y="0" type="line" smooth="yes"/>
      <point x="218" y="0" type="line" smooth="yes"/>
      <point x="218" y="225" type="line" smooth="yes"/>
      <point x="284" y="319" type="line" smooth="yes"/>
      <point x="426" y="0" type="line" smooth="yes"/>
      <point x="606" y="0" type="line" smooth="yes"/>
      <point x="387" y="467" type="line" smooth="yes"/>
      <point x="606" y="780" type="line" smooth="yes"/>
      <point x="410" y="780" type="line" smooth="yes"/>
      <point x="218" y="474" type="line" smooth="yes"/>
    </contour>
  </outline>
</glyph>
<glyph name="kgreenlandic" format="1">
  <advance width="562"/>
  <unicode hex="0138"/>
  <outline>
    <contour>
      <point x="50" y="0" type="line" smooth="yes"/>
      <point x="208" y="0" type="line" smooth="yes"/>
      <point x="208" y="144" type="line" smooth="yes"/>
      <point x="260" y="204" type="line" smooth="yes"/>
      <point x="360" y="0" type="line" smooth="yes"/>
      <point x="544" y="0" type="line" smooth="yes"/>
      <point x="369" y="329" type="line" smooth="yes"/>
      <point x="544" y="530" type="line" smooth="yes"/>
      <point x="355" y="530" type="line" smooth="yes"/>
      <point x="208" y="350" type="line" smooth="yes"/>
      <point x="208" y="530" type="line" smooth="yes"/>
      <point x="50" y="530" type="line" smooth="yes"/>
    </contour>
  </outline>
</glyph>
<glyph name="lacute" format="1">
  <advance width="266"/>
  <unicode hex="013A"/>
  <outline>
    <contour>
      <point x="110" y="950" type="line" smooth="yes"/>
      <point x="55" y="840" type="line" smooth="yes"/>
      <point x="211" y="840" type="line" smooth="yes"/>
      <point x="275" y="950" type="line" smooth="yes"/>
    </contour>
    <contour>
      <point x="54" y="0" type="line" smooth="yes"/>
      <point x="212" y="0" type="line" smooth="yes"/>
      <point x="212" y="800" type="line" smooth="yes"/>
      <point x="54" y="800" type="line" smooth="yes"/>
    </contour>
  </outline>
</glyph>
<glyph name="Lcommaaccent" format="1">
  <advance width="521"/>
  <unicode hex="013B"/>
  <outline>
    <contour>
      <point x="352" y="-44" type="line" smooth="yes"/>
      <point x="210" y="-44" type="line" smooth="yes"/>
      <point x="210" y="-136" type="line" smooth="yes"/>
      <point x="289" y="-136" type="line" smooth="yes"/>
      <point x="258" y="-164" type="line" smooth="yes"/>
      <point x="205" y="-172" type="line" smooth="yes"/>
      <point x="205" y="-226" type="line" smooth="yes"/>
      <point x="316" y="-197" type="line" smooth="yes"/>
      <point x="352" y="-101" type="line" smooth="yes"/>
    </contour>
    <contour>
      <point x="506" y="0" type="line" smooth="yes"/>
      <point x="506" y="140" type="line" smooth="yes"/>
      <point x="218" y="140" type="line" smooth="yes"/>
      <point x="218" y="780" type="line" smooth="yes"/>
      <point x="56" y="780" type="line" smooth="yes"/>
      <point x="56" y="0" type="line" smooth="yes"/>
    </contour>
  </outline>
</glyph>
<glyph name="Lslash" format="1">
  <advance width="581"/>
  <unicode hex="0141"/>
  <outline>
    <contour>
      <point x="12" y="188" type="line" smooth="yes"/>
      <point x="116" y="239" type="line" smooth="yes"/>
      <point x="116" y="0" type="line" smooth="yes"/>
      <point x="566" y="0" type="line" smooth="yes"/>
      <point x="566" y="140" type="line" smooth="yes"/>
      <point x="278" y="140" type="line" smooth="yes"/>
      <point x="278" y="319" type="line" smooth="yes"/>
      <point x="459" y="409" type="line" smooth="yes"/>
      <point x="459" y="543" type="line" smooth="yes"/>
      <point x="278" y="454" type="line" smooth="yes"/>
      <point x="278" y="780" type="line" smooth="yes"/>
      <point x="116" y="780" type="line" smooth="yes"/>
      <point x="116" y="374" type="line" smooth="yes"/>
      <point x="12" y="323" type="line" smooth="yes"/>
    </contour>
  </outline>
</glyph>
<glyph name="Ncommaaccent" format="1">
  <advance width="683"/>
  <unicode hex="0145"/>
  <outline>
    <contour>
      <point x="412" y="-44" type="line" smooth="yes"/>
      <point x="270" y="-44" type="line" smooth="yes"/>
      <point x="270" y="-136" type="line" smooth="yes"/>
      <point x="349" y="-136" type="line" smooth="yes"/>
      <point x="318" y="-164" type="line" smooth="yes"/>
      <point x="265" y="-172" type="line" smooth="yes"/>
      <point x="265" y="-226" type="line" smooth="yes"/>
      <point x="376" y="-197" type="line" smooth="yes"/>
      <point x="412" y="-101" type="line" smooth="yes"/>
    </contour>
    <contour>
      <point x="627" y="780" type="line" smooth="yes"/>
      <point x="473" y="780" type="line" smooth="yes"/>
      <point x="473" y="453" type="line" smooth="yes"/>
      <point x="478" y="296" type="line" smooth="yes"/>
      <point x="227" y="780" type="line" smooth="yes"/>
      <point x="56" y="780" type="line" smooth="yes"/>
      <point x="56" y="0" type="line" smooth="yes"/>
      <point x="209" y="0" type="line" smooth="yes"/>
      <point x="209" y="327" type="line" smooth="yes"/>
      <point x="204" y="484" type="line" smooth="yes"/>
      <point x="456" y="0" type="line" smooth="yes"/>
      <point x="627" y="0" type="line" smooth="yes"/>
    </contour>
  </outline>
</glyph>
<glyph name="Eng" format="1">
  <advance width="683"/>
  <unicode hex="014A"/>
  <outline>
    <contour>
      <point x="627" y="780" type="line" smooth="yes"/>
      <point x="473" y="780" type="line" smooth="yes"/>
      <point x="473" y="453" type="line" smooth="yes"/>
      <point x="478" y="296" type="line" smooth="yes"/>
      <point x="227" y="780" type="line" smooth="yes"/>
      <point x="56" y="780" type="line" smooth="yes"/>
      <point x="56" y="0" type="line" smooth="yes"/>
      <point x="209" y="0" type="line" smooth="yes"/>
      <point x="209" y="327" type="line" smooth="yes"/>
      <point x="204" y="484" type="line" smooth="yes"/>
      <point x="468" y="-24" type="line" smooth="yes"/>
      <point x="442" y="-68" type="line" smooth="yes"/>
      <point x="392" y="-78" type="line" smooth="yes"/>
      <point x="363" y="-75" type="line" smooth="yes"/>
      <point x="343" y="-71" type="line" smooth="yes"/>
      <point x="343" y="-200" type="line" smooth="yes"/>
      <point x="371" y="-208" type="line" smooth="yes"/>
      <point x="428" y="-213" type="line" smooth="yes"/>
      <point x="572" y="-169" type="line" smooth="yes"/>
      <point x="627" y="-16" type="line" smooth="yes"/>
    </contour>
  </outline>
</glyph>
<glyph name="eng" format="1">
  <advance width="580"/>
  <unicode hex="014B"/>
  <outline>
    <contour>
      <point x="374" y="1" type="line" smooth="yes"/>
      <point x="353" y="-62" type="line" smooth="yes"/>
      <point x="296" y="-77" type="line" smooth="yes"/>
      <point x="267" y="-75" type="line" smooth="yes"/>
      <point x="247" y="-70" type="line" smooth="yes"/>
      <point x="247" y="-200" type="line" smooth="yes"/>
      <point x="275" y="-208" type="line" smooth="yes"/>
      <point x="333" y="-213" type="line" smooth="yes"/>
      <point x="477" y="-169" type="line" smooth="yes"/>
      <point x="532" y="-16" type="line" smooth="yes"/>
      <point x="532" y="359" type="line" smooth="yes"/>
      <point x="495" y="487" type="line" smooth="yes"/>
      <point x="368" y="543" type="line" smooth="yes"/>
      <point x="265" y="520" type="line" smooth="yes"/>
      <point x="198" y="462" type="line" smooth="yes"/>
      <point x="186" y="530" type="line" smooth="yes"/>
      <point x="45" y="530" type="line" smooth="yes"/>
      <point x="54" y="380" type="line" smooth="yes"/>
      <point x="54" y="0" type="line" smooth="yes"/>
      <point x="212" y="0" type="line" smooth="yes"/>
      <point x="212" y="357" type="line" smooth="yes"/>
      <point x="244" y="389" type="line" smooth="yes"/>
      <point x="305" y="407" type="line" smooth="yes"/>
      <point x="360" y="384" type="line" smooth="yes"/>
      <point x="374" y="333" type="line" smooth="yes"/>
    </contour>
  </outline>
</glyph>
<glyph name="omacron" format="1">
  <advance width="556"/>
  <unicode hex="014D"/>
  <outline>
    <contour>
      <point x="128" y="619" type="line" smooth="yes"/>
      <point x="428" y="619" type="line" smooth="yes"/>
      <point x="428" y="757" type="line" smooth="yes"/>
      <point x="128" y="757" type="line" smooth="yes"/>
    </contour>
    <contour>
      <point x="278" y="123" type="line" smooth="yes"/>
      <point x="210" y="156" type="line" smooth="yes"/>
      <point x="188" y="247" type="line" smooth="yes"/>
      <point x="188" y="283" type="line" smooth="yes"/>
      <point x="210" y="374" type="line" smooth="yes"/>
      <point x="278" y="407" type="line" smooth="yes"/>
      <point x="347" y="374" type="line" smooth="yes"/>
      <point x="368" y="283" type="line" smooth="yes"/>
      <point x="368" y="247" type="line" smooth="yes"/>
      <point x="347" y="156" type="line" smooth="yes"/>
    </contour>
    <contour>
      <point x="278" y="-13" type="line" smooth="yes"/>
      <point x="466" y="60" type="line" smooth="yes"/>
      <point x="526" y="247" type="line" smooth="yes"/>
      <point x="526" y="283" type="line" smooth="yes"/>
      <point x="466" y="470" type="line" smooth="yes"/>
      <point x="278" y="543" type="line" smooth="yes"/>
      <point x="90" y="470" type="line" smooth="yes"/>
      <point x="30" y="283" type="line" smooth="yes"/>
      <point x="30" y="247" type="line" smooth="yes"/>
      <point x="90" y="60" type="line" smooth="yes"/>
    </contour>
  </outline>
</glyph>
<glyph name="Obreve" format="1">
  <advance width="673"/>
  <unicode hex="014E"/>
  <outline>
    <contour>
      <point x="336" y="825" type="line" smooth="yes"/>
      <point x="483" y="862" type="line" smooth="yes"/>
      <point x="519" y="950" type="line" smooth="yes"/>
      <point x="410" y="950" type="line" smooth="yes"/>
      <point x="393" y="920" type="line" smooth="yes"/>
      <point x="336" y="910" type="line" smooth="yes"/>
      <point x="279" y="920" type="line" smooth="yes"/>
      <point x="262" y="950" type="line" smooth="yes"/>
      <point x="153" y="950" type="line" smooth="yes"/>
      <point x="189" y="862" type="line" smooth="yes"/>
    </contour>
    <contour>
      <point x="332" y="127" type="line" smooth="yes"/>
      <point x="230" y="190" type="line" smooth="yes"/>
      <point x="203" y="370" type="line" smooth="yes"/>
      <point x="203" y="410" type="line" smooth="yes"/>
      <point x="230" y="590" type="line" smooth="yes"/>
      <point x="332" y="653" type="line" smooth="yes"/>
      <point x="341" y="653" type="line" smooth="yes"/>
      <point x="443" y="590" type="line" smooth="yes"/>
      <point x="469" y="410" type="line" smooth="yes"/>
      <point x="469" y="370" type="line" smooth="yes"/>
      <point x="443" y="190" type="line" smooth="yes"/>
      <point x="341" y="127" type="line" smooth="yes"/>
    </contour>
    <contour>
      <point x="336" y="-13" type="line" smooth="yes"/>
      <point x="561" y="77" type="line" smooth="yes"/>
      <point x="634" y="370" type="line" smooth="yes"/>
      <point x="634" y="410" type="line" smooth="yes"/>
      <point x="561" y="703" type="line" smooth="yes"/>
      <point x="336" y="793" type="line" smooth="yes"/>
      <point x="112" y="703" type="line" smooth="yes"/>
      <point x="39" y="410" type="line" smooth="yes"/>
      <point x="39" y="370" type="line" smooth="yes"/>
      <point x="112" y="77" type="line" smooth="yes"/>
    </contour>
  </outline>
</glyph>
<glyph name="obreve" format="1">
  <advance width="556"/>
  <unicode hex="014F"/>
  <outline>
    <contour>
      <point x="278" y="123" type="line" smooth="yes"/>
      <point x="210" y="156" type="line" smooth="yes"/>
      <point x="188" y="247" type="line" smooth="yes"/>
      <point x="188" y="283" type="line" smooth="yes"/>
      <point x="210" y="374" type="line" smooth="yes"/>
      <point x="278" y="407" type="line" smooth="yes"/>
      <point x="347" y="374" type="line" smooth="yes"/>
      <point x="368" y="283" type="line" smooth="yes"/>
      <point x="368" y="247" type="line" smooth="yes"/>
      <point x="347" y="156" type="line" smooth="yes"/>
    </contour>
    <contour>
      <point x="278" y="582" type="line" smooth="yes"/>
      <point x="425" y="638" type="line" smooth="yes"/>
      <point x="465" y="780" type="line" smooth="yes"/>
      <point x="352" y="780" type="line" smooth="yes"/>
      <point x="331" y="719" type="line" smooth="yes"/>
      <point x="278" y="702" type="line" smooth="yes"/>
      <point x="225" y="719" type="line" smooth="yes"/>
      <point x="204" y="780" type="line" smooth="yes"/>
      <point x="91" y="780" type="line" smooth="yes"/>
      <point x="131" y="638" type="line" smooth="yes"/>
    </contour>
    <contour>
      <point x="278" y="-13" type="line" smooth="yes"/>
      <point x="466" y="60" type="line" smooth="yes"/>
      <point x="526" y="247" type="line" smooth="yes"/>
      <point x="526" y="283" type="line" smooth="yes"/>
      <point x="466" y="470" type="line" smooth="yes"/>
      <point x="278" y="543" type="line" smooth="yes"/>
      <point x="90" y="470" type="line" smooth="yes"/>
      <point x="30" y="283" type="line" smooth="yes"/>
      <point x="30" y="247" type="line" smooth="yes"/>
      <point x="90" y="60" type="line" smooth="yes"/>
    </contour>
  </outline>
</glyph>
<glyph name="Ohungarumlaut" format="1">
  <advance width="673"/>
  <unicode hex="0150"/>
  <outline>
    <contour>
      <point x="404" y="950" type="line" smooth="yes"/>
      <point x="350" y="840" type="line" smooth="yes"/>
      <point x="489" y="840" type="line" smooth="yes"/>
      <point x="553" y="950" type="line" smooth="yes"/>
    </contour>
    <contour>
      <point x="229" y="950" type="line" smooth="yes"/>
      <point x="183" y="840" type="line" smooth="yes"/>
      <point x="322" y="840" type="line" smooth="yes"/>
      <point x="378" y="950" type="line" smooth="yes"/>
    </contour>
    <contour>
      <point x="332" y="127" type="line" smooth="yes"/>
      <point x="230" y="190" type="line" smooth="yes"/>
      <point x="203" y="370" type="line" smooth="yes"/>
      <point x="203" y="410" type="line" smooth="yes"/>
      <point x="230" y="590" type="line" smooth="yes"/>
      <point x="332" y="653" type="line" smooth="yes"/>
      <point x="341" y="653" type="line" smooth="yes"/>
      <point x="443" y="590" type="line" smooth="yes"/>
      <point x="469" y="410" type="line" smooth="yes"/>
      <point x="469" y="370" type="line" smooth="yes"/>
      <point x="443" y="190" type="line" smooth="yes"/>
      <point x="341" y="127" type="line" smooth="yes"/>
    </contour>
    <contour>
      <point x="336" y="-13" type="line" smooth="yes"/>
      <point x="561" y="77" type="line" smooth="yes"/>
      <point x="634" y="370" type="line" smooth="yes"/>
      <point x="634" y="410" type="line" smooth="yes"/>
      <point x="561" y="703" type="line" smooth="yes"/>
      <point x="336" y="793" type="line" smooth="yes"/>
      <point x="112" y="703" type="line" smooth="yes"/>
      <point x="39" y="410" type="line" smooth="yes"/>
      <point x="39" y="370" type="line" smooth="yes"/>
      <point x="112" y="77" type="line" smooth="yes"/>
    </contour>
  </outline>
</glyph>
<glyph name="ohungarumlaut" format="1">
  <advance width="556"/>
  <unicode hex="0151"/>
  <outline>
    <contour>
      <point x="387" y="780" type="line" smooth="yes"/>
      <point x="296" y="596" type="line" smooth="yes"/>
      <point x="419" y="596" type="line" smooth="yes"/>
      <point x="526" y="780" type="line" smooth="yes"/>
    </contour>
    <contour>
      <point x="203" y="780" type="line" smooth="yes"/>
      <point x="136" y="596" type="line" smooth="yes"/>
      <point x="259" y="596" type="line" smooth="yes"/>
      <point x="343" y="780" type="line" smooth="yes"/>
    </contour>
    <contour>
      <point x="278" y="123" type="line" smooth="yes"/>
      <point x="210" y="156" type="line" smooth="yes"/>
      <point x="188" y="247" type="line" smooth="yes"/>
      <point x="188" y="283" type="line" smooth="yes"/>
      <point x="210" y="374" type="line" smooth="yes"/>
      <point x="278" y="407" type="line" smooth="yes"/>
      <point x="347" y="374" type="line" smooth="yes"/>
      <point x="368" y="283" type="line" smooth="yes"/>
      <point x="368" y="247" type="line" smooth="yes"/>
      <point x="347" y="156" type="line" smooth="yes"/>
    </contour>
    <contour>
      <point x="278" y="-13" type="line" smooth="yes"/>
      <point x="466" y="60" type="line" smooth="yes"/>
      <point x="526" y="247" type="line" smooth="yes"/>
      <point x="526" y="283" type="line" smooth="yes"/>
      <point x="466" y="470" type="line" smooth="yes"/>
      <point x="278" y="543" type="line" smooth="yes"/>
      <point x="90" y="470" type="line" smooth="yes"/>
      <point x="30" y="283" type="line" smooth="yes"/>
      <point x="30" y="247" type="line" smooth="yes"/>
      <point x="90" y="60" type="line" smooth="yes"/>
    </contour>
  </outline>
</glyph>
<glyph name="oe" format="1">
  <advance width="894"/>
  <unicode hex="0153"/>
  <outline>
    <contour>
      <point x="616" y="423" type="line" smooth="yes"/>
      <point x="680" y="398" type="line" smooth="yes"/>
      <point x="705" y="322" type="line" smooth="yes"/>
      <point x="527" y="322" type="line" smooth="yes"/>
      <point x="552" y="398" type="line" smooth="yes"/>
    </contour>
    <contour>
      <point x="188" y="247" type="line" smooth="yes"/>
      <point x="188" y="283" type="line" smooth="yes"/>
      <point x="210" y="374" type="line" smooth="yes"/>
      <point x="278" y="407" type="line" smooth="yes"/>
      <point x="347" y="374" type="line" smooth="yes"/>
      <point x="368" y="283" type="line" smooth="yes"/>
      <point x="368" y="247" type="line" smooth="yes"/>
      <point x="347" y="156" type="line" smooth="yes"/>
      <point x="278" y="123" type="line" smooth="yes"/>
      <point x="210" y="156" type="line" smooth="yes"/>
    </contour>
    <contour>
      <point x="864" y="208" type="line" smooth="yes"/>
      <point x="864" y="279" type="line" smooth="yes"/>
      <point x="805" y="468" type="line" smooth="yes"/>
      <point x="619" y="543" type="line" smooth="yes"/>
      <point x="519" y="523" type="line" smooth="yes"/>
      <point x="449" y="471" type="line" smooth="yes"/>
      <point x="380" y="523" type="line" smooth="yes"/>
      <point x="278" y="543" type="line" smooth="yes"/>
      <point x="90" y="470" type="line" smooth="yes"/>
      <point x="30" y="283" type="line" smooth="yes"/>
      <point x="30" y="247" type="line" smooth="yes"/>
      <point x="90" y="60" type="line" smooth="yes"/>
      <point x="278" y="-13" type="line" smooth="yes"/>
      <point x="380" y="6" type="line" smooth="yes"/>
      <point x="449" y="58" type="line" smooth="yes"/>
      <point x="521" y="6" type="line" smooth="yes"/>
      <point x="625" y="-13" type="line" smooth="yes"/>
      <point x="802" y="39" type="line" smooth="yes"/>
      <point x="864" y="166" type="line" smooth="yes"/>
      <point x="864" y="170" type="line" smooth="yes"/>
      <point x="715" y="170" type="line" smooth="yes"/>
      <point x="691" y="127" type="line" smooth="yes"/>
      <point x="626" y="107" type="line" smooth="yes"/>
      <point x="556" y="130" type="line" smooth="yes"/>
      <point x="526" y="208" type="line" smooth="yes"/>
    </contour>
  </outline>
</glyph>
<glyph name="rcaron" format="1">
  <advance width="385"/>
  <unicode hex="0159"/>
  <outline>
    <contour>
      <point x="-7" y="780" type="line" smooth="yes"/>
      <point x="127" y="596" type="line" smooth="yes"/>
      <point x="279" y="596" type="line" smooth="yes"/>
      <point x="413" y="780" type="line" smooth="yes"/>
      <point x="275" y="780" type="line" smooth="yes"/>
      <point x="203" y="697" type="line" smooth="yes"/>
      <point x="131" y="780" type="line" smooth="yes"/>
    </contour>
    <contour>
      <point x="338" y="543" type="line" smooth="yes"/>
      <point x="256" y="522" type="line" smooth="yes"/>
      <point x="197" y="468" type="line" smooth="yes"/>
      <point x="186" y="530" type="line" smooth="yes"/>
      <point x="45" y="530" type="line" smooth="yes"/>
      <point x="54" y="380" type="line" smooth="yes"/>
      <point x="54" y="0" type="line" smooth="yes"/>
      <point x="212" y="0" type="line" smooth="yes"/>
      <point x="212" y="344" type="line" smooth="yes"/>
      <point x="250" y="375" type="line" smooth="yes"/>
      <point x="326" y="390" type="line" smooth="yes"/>
      <point x="353" y="390" type="line" smooth="yes"/>
      <point x="353" y="542" type="line" smooth="yes"/>
      <point x="346" y="543" type="line" smooth="yes"/>
    </contour>
  </outline>
</glyph>
<glyph name="Sacute" format="1">
  <advance width="631"/>
  <unicode hex="015A"/>
  <outline>
    <contour>
      <point x="292" y="950" type="line" smooth="yes"/>
      <point x="237" y="840" type="line" smooth="yes"/>
      <point x="393" y="840" type="line" smooth="yes"/>
      <point x="457" y="950" type="line" smooth="yes"/>
    </contour>
    <contour>
      <point x="290" y="326" type="line" smooth="yes"/>
      <point x="403" y="290" type="line" smooth="yes"/>
      <point x="432" y="224" type="line" smooth="yes"/>
      <point x="432" y="219" type="line" smooth="yes"/>
      <point x="404" y="154" type="line" smooth="yes"/>
      <point x="320" y="127" type="line" smooth="yes"/>
      <point x="311" y="127" type="line" smooth="yes"/>
      <point x="225" y="160" type="line" smooth="yes"/>
      <point x="196" y="266" type="line" smooth="yes"/>
      <point x="34" y="266" type="line" smooth="yes"/>
      <point x="34" y="257" type="line" smooth="yes"/>
      <point x="106" y="52" type="line" smooth="yes"/>
      <point x="315" y="-13" type="line" smooth="yes"/>
      <point x="525" y="49" type="line" smooth="yes"/>
      <point x="597" y="224" type="line" smooth="yes"/>
      <point x="597" y="234" type="line" smooth="yes"/>
      <point x="533" y="393" type="line" smooth="yes"/>
      <point x="341" y="460" type="line" smooth="yes"/>
      <point x="230" y="495" type="line" smooth="yes"/>
      <point x="204" y="562" type="line" smooth="yes"/>
      <point x="204" y="567" type="line" smooth="yes"/>
      <point x="231" y="629" type="line" smooth="yes"/>
      <point x="307" y="653" type="line" smooth="yes"/>
      <point x="316" y="653" type="line" smooth="yes"/>
      <point x="403" y="617" type="line" smooth="yes"/>
      <point x="429" y="504" type="line" smooth="yes"/>
      <point x="591" y="504" type="line" smooth="yes"/>
      <point x="591" y="525" type="line" smooth="yes"/>
      <point x="525" y="728" type="line" smooth="yes"/>
      <point x="315" y="793" type="line" smooth="yes"/>
      <point x="111" y="730" type="line" smooth="yes"/>
      <point x="40" y="561" type="line" smooth="yes"/>
      <point x="40" y="550" type="line" smooth="yes"/>
      <point x="101" y="394" type="line" smooth="yes"/>
    </contour>
  </outline>
</glyph>
<glyph name="Scedilla" format="1">
  <advance width="631"/>
  <unicode hex="015E"/>
  <outline>
    <contour>
      <point x="209" y="-190" type="line" smooth="yes"/>
      <point x="251" y="-207" type="line" smooth="yes"/>
      <point x="316" y="-215" type="line" smooth="yes"/>
      <point x="406" y="-192" type="line" smooth="yes"/>
      <point x="436" y="-127" type="line" smooth="yes"/>
      <point x="407" y="-64" type="line" smooth="yes"/>
      <point x="336" y="-40" type="line" smooth="yes"/>
      <point x="346" y="-12" type="line" smooth="yes"/>
      <point x="533" y="57" type="line" smooth="yes"/>
      <point x="597" y="224" type="line" smooth="yes"/>
      <point x="597" y="234" type="line" smooth="yes"/>
      <point x="533" y="393" type="line" smooth="yes"/>
      <point x="341" y="460" type="line" smooth="yes"/>
      <point x="230" y="495" type="line" smooth="yes"/>
      <point x="204" y="562" type="line" smooth="yes"/>
      <point x="204" y="567" type="line" smooth="yes"/>
      <point x="231" y="629" type="line" smooth="yes"/>
      <point x="307" y="653" type="line" smooth="yes"/>
      <point x="316" y="653" type="line" smooth="yes"/>
      <point x="403" y="617" type="line" smooth="yes"/>
      <point x="429" y="504" type="line" smooth="yes"/>
      <point x="591" y="504" type="line" smooth="yes"/>
      <point x="591" y="525" type="line" smooth="yes"/>
      <point x="525" y="728" type="line" smooth="yes"/>
      <point x="315" y="793" type="line" smooth="yes"/>
      <point x="111" y="730" type="line" smooth="yes"/>
      <point x="40" y="561" type="line" smooth="yes"/>
      <point x="40" y="550" type="line" smooth="yes"/>
      <point x="101" y="394" type="line" smooth="yes"/>
      <point x="290" y="326" type="line" smooth="yes"/>
      <point x="403" y="290" type="line" smooth="yes"/>
      <point x="432" y="224" type="line" smooth="yes"/>
      <point x="432" y="219" type="line" smooth="yes"/>
      <point x="404" y="154" type="line" smooth="yes"/>
      <point x="320" y="127" type="line" smooth="yes"/>
      <point x="311" y="127" type="line" smooth="yes"/>
      <point x="225" y="160" type="line" smooth="yes"/>
      <point x="196" y="266" type="line" smooth="yes"/>
      <point x="34" y="266" type="line" smooth="yes"/>
      <point x="34" y="257" type="line" smooth="yes"/>
      <point x="95" y="62" type="line" smooth="yes"/>
      <point x="274" y="-11" type="line" smooth="yes"/>
      <point x="250" y="-72" type="line" smooth="yes"/>
      <point x="265" y="-100" type="line" smooth="yes"/>
      <point x="277" y="-98" type="line" smooth="yes"/>
      <point x="303" y="-95" type="line" smooth="yes"/>
      <point x="339" y="-101" type="line" smooth="yes"/>
      <point x="351" y="-118" type="line" smooth="yes"/>
      <point x="341" y="-135" type="line" smooth="yes"/>
      <point x="304" y="-141" type="line" smooth="yes"/>
      <point x="264" y="-136" type="line" smooth="yes"/>
      <point x="232" y="-124" type="line" smooth="yes"/>
    </contour>
  </outline>
</glyph>
<glyph name="Tcommaaccent" format="1">
  <advance width="557"/>
  <unicode hex="0162"/>
  <outline>
    <contour>
      <point x="349" y="-44" type="line" smooth="yes"/>
      <point x="207" y="-44" type="line" smooth="yes"/>
      <point x="207" y="-136" type="line" smooth="yes"/>
      <point x="286" y="-136" type="line" smooth="yes"/>
      <point x="255" y="-164" type="line" smooth="yes"/>
      <point x="202" y="-172" type="line" smooth="yes"/>
      <point x="202" y="-226" type="line" smooth="yes"/>
      <point x="313" y="-197" type="line" smooth="yes"/>
      <point x="349" y="-101" type="line" smooth="yes"/>
    </contour>
    <contour>
      <point x="359" y="640" type="line" smooth="yes"/>
      <point x="540" y="640" type="line" smooth="yes"/>
      <point x="540" y="780" type="line" smooth="yes"/>
      <point x="17" y="780" type="line" smooth="yes"/>
      <point x="17" y="640" type="line" smooth="yes"/>
      <point x="197" y="640" type="line" smooth="yes"/>
      <point x="197" y="0" type="line" smooth="yes"/>
      <point x="359" y="0" type="line" smooth="yes"/>
    </contour>
  </outline>
</glyph>
<glyph name="tcommaaccent" format="1">
  <advance width="431"/>
  <unicode hex="0163"/>
  <outline>
    <contour>
      <point x="309" y="-44" type="line" smooth="yes"/>
      <point x="167" y="-44" type="line" smooth="yes"/>
      <point x="167" y="-136" type="line" smooth="yes"/>
      <point x="246" y="-136" type="line" smooth="yes"/>
      <point x="215" y="-164" type="line" smooth="yes"/>
      <point x="162" y="-172" type="line" smooth="yes"/>
      <point x="162" y="-226" type="line" smooth="yes"/>
      <point x="273" y="-197" type="line" smooth="yes"/>
      <point x="309" y="-101" type="line" smooth="yes"/>
    </contour>
    <contour>
      <point x="258" y="530" type="line" smooth="yes"/>
      <point x="258" y="680" type="line" smooth="yes"/>
      <point x="100" y="680" type="line" smooth="yes"/>
      <point x="100" y="530" type="line" smooth="yes"/>
      <point x="19" y="530" type="line" smooth="yes"/>
      <point x="19" y="392" type="line" smooth="yes"/>
      <point x="100" y="392" type="line" smooth="yes"/>
      <point x="100" y="184" type="line" smooth="yes"/>
      <point x="155" y="31" type="line" smooth="yes"/>
      <point x="299" y="-13" type="line" smooth="yes"/>
      <point x="356" y="-8" type="line" smooth="yes"/>
      <point x="384" y="0" type="line" smooth="yes"/>
      <point x="384" y="130" type="line" smooth="yes"/>
      <point x="364" y="125" type="line" smooth="yes"/>
      <point x="336" y="123" type="line" smooth="yes"/>
      <point x="279" y="138" type="line" smooth="yes"/>
      <point x="258" y="201" type="line" smooth="yes"/>
      <point x="258" y="392" type="line" smooth="yes"/>
      <point x="394" y="392" type="line" smooth="yes"/>
      <point x="394" y="530" type="line" smooth="yes"/>
    </contour>
  </outline>
</glyph>
<glyph name="tcaron" format="1">
  <advance width="431"/>
  <unicode hex="0165"/>
  <outline>
    <contour>
      <point x="314" y="800" type="line" smooth="yes"/>
      <point x="314" y="596" type="line" smooth="yes"/>
      <point x="384" y="596" type="line" smooth="yes"/>
      <point x="410" y="800" type="line" smooth="yes"/>
    </contour>
    <contour>
      <point x="258" y="530" type="line" smooth="yes"/>
      <point x="258" y="680" type="line" smooth="yes"/>
      <point x="100" y="680" type="line" smooth="yes"/>
      <point x="100" y="530" type="line" smooth="yes"/>
      <point x="19" y="530" type="line" smooth="yes"/>
      <point x="19" y="392" type="line" smooth="yes"/>
      <point x="100" y="392" type="line" smooth="yes"/>
      <point x="100" y="184" type="line" smooth="yes"/>
      <point x="155" y="31" type="line" smooth="yes"/>
      <point x="299" y="-13" type="line" smooth="yes"/>
      <point x="356" y="-8" type="line" smooth="yes"/>
      <point x="384" y="0" type="line" smooth="yes"/>
      <point x="384" y="130" type="line" smooth="yes"/>
      <point x="364" y="125" type="line" smooth="yes"/>
      <point x="336" y="123" type="line" smooth="yes"/>
      <point x="279" y="138" type="line" smooth="yes"/>
      <point x="258" y="201" type="line" smooth="yes"/>
      <point x="258" y="392" type="line" smooth="yes"/>
      <point x="394" y="392" type="line" smooth="yes"/>
      <point x="394" y="530" type="line" smooth="yes"/>
    </contour>
  </outline>
</glyph>
<glyph name="tbar" format="1">
  <advance width="431"/>
  <unicode hex="0167"/>
  <outline>
    <contour>
      <point x="258" y="530" type="line" smooth="yes"/>
      <point x="258" y="680" type="line" smooth="yes"/>
      <point x="100" y="680" type="line" smooth="yes"/>
      <point x="100" y="530" type="line" smooth="yes"/>
      <point x="19" y="530" type="line" smooth="yes"/>
      <point x="19" y="392" type="line" smooth="yes"/>
      <point x="100" y="392" type="line" smooth="yes"/>
      <point x="100" y="322" type="line" smooth="yes"/>
      <point x="35" y="322" type="line" smooth="yes"/>
      <point x="35" y="208" type="line" smooth="yes"/>
      <point x="100" y="208" type="line" smooth="yes"/>
      <point x="100" y="184" type="line" smooth="yes"/>
      <point x="155" y="31" type="line" smooth="yes"/>
      <point x="299" y="-13" type="line" smooth="yes"/>
      <point x="356" y="-8" type="line" smooth="yes"/>
      <point x="384" y="0" type="line" smooth="yes"/>
      <point x="384" y="130" type="line" smooth="yes"/>
      <point x="364" y="125" type="line" smooth="yes"/>
      <point x="336" y="123" type="line" smooth="yes"/>
      <point x="279" y="138" type="line" smooth="yes"/>
      <point x="258" y="201" type="line" smooth="yes"/>
      <point x="258" y="208" type="line" smooth="yes"/>
      <point x="354" y="208" type="line" smooth="yes"/>
      <point x="354" y="322" type="line" smooth="yes"/>
      <point x="258" y="322" type="line" smooth="yes"/>
      <point x="258" y="392" type="line" smooth="yes"/>
      <point x="394" y="392" type="line" smooth="yes"/>
      <point x="394" y="530" type="line" smooth="yes"/>
    </contour>
  </outline>
</glyph>
<glyph name="Utilde" format="1">
  <advance width="663"/>
  <unicode hex="0168"/>
  <outline>
    <contour>
      <point x="331" y="-13" type="line" smooth="yes"/>
      <point x="551" y="53" type="line" smooth="yes"/>
      <point x="612" y="247" type="line" smooth="yes"/>
      <point x="612" y="780" type="line" smooth="yes"/>
      <point x="450" y="780" type="line" smooth="yes"/>
      <point x="450" y="252" type="line" smooth="yes"/>
      <point x="425" y="158" type="line" smooth="yes"/>
      <point x="331" y="127" type="line" smooth="yes"/>
      <point x="238" y="158" type="line" smooth="yes"/>
      <point x="213" y="252" type="line" smooth="yes"/>
      <point x="213" y="780" type="line" smooth="yes"/>
      <point x="51" y="780" type="line" smooth="yes"/>
      <point x="51" y="247" type="line" smooth="yes"/>
      <point x="112" y="53" type="line" smooth="yes"/>
    </contour>
    <contour>
      <point x="431" y="947" type="line" smooth="yes"/>
      <point x="421" y="921" type="line" smooth="yes"/>
      <point x="398" y="914" type="line" smooth="yes"/>
      <point x="333" y="938" type="line" smooth="yes"/>
      <point x="249" y="962" type="line" smooth="yes"/>
      <point x="177" y="936" type="line" smooth="yes"/>
      <point x="146" y="843" type="line" smooth="yes"/>
      <point x="231" y="843" type="line" smooth="yes"/>
      <point x="241" y="869" type="line" smooth="yes"/>
      <point x="264" y="876" type="line" smooth="yes"/>
      <point x="329" y="852" type="line" smooth="yes"/>
      <point x="413" y="828" type="line" smooth="yes"/>
      <point x="485" y="855" type="line" smooth="yes"/>
      <point x="516" y="947" type="line" smooth="yes"/>
    </contour>
  </outline>
</glyph>
<glyph name="utilde" format="1">
  <advance width="580"/>
  <unicode hex="0169"/>
  <outline>
    <contour>
      <point x="382" y="772" type="line" smooth="yes"/>
      <point x="373" y="743" type="line" smooth="yes"/>
      <point x="351" y="735" type="line" smooth="yes"/>
      <point x="283" y="761" type="line" smooth="yes"/>
      <point x="196" y="787" type="line" smooth="yes"/>
      <point x="117" y="750" type="line" smooth="yes"/>
      <point x="85" y="628" type="line" smooth="yes"/>
      <point x="190" y="628" type="line" smooth="yes"/>
      <point x="199" y="657" type="line" smooth="yes"/>
      <point x="221" y="665" type="line" smooth="yes"/>
      <point x="290" y="639" type="line" smooth="yes"/>
      <point x="376" y="613" type="line" smooth="yes"/>
      <point x="455" y="651" type="line" smooth="yes"/>
      <point x="487" y="772" type="line" smooth="yes"/>
    </contour>
    <contour>
      <point x="48" y="530" type="line" smooth="yes"/>
      <point x="48" y="171" type="line" smooth="yes"/>
      <point x="85" y="43" type="line" smooth="yes"/>
      <point x="212" y="-13" type="line" smooth="yes"/>
      <point x="315" y="9" type="line" smooth="yes"/>
      <point x="382" y="67" type="line" smooth="yes"/>
      <point x="394" y="0" type="line" smooth="yes"/>
      <point x="535" y="0" type="line" smooth="yes"/>
      <point x="526" y="150" type="line" smooth="yes"/>
      <point x="526" y="530" type="line" smooth="yes"/>
      <point x="368" y="530" type="line" smooth="yes"/>
      <point x="368" y="173" type="line" smooth="yes"/>
      <point x="335" y="141" type="line" smooth="yes"/>
      <point x="275" y="123" type="line" smooth="yes"/>
      <point x="220" y="146" type="line" smooth="yes"/>
      <point x="205" y="197" type="line" smooth="yes"/>
      <point x="205" y="530" type="line" smooth="yes"/>
    </contour>
  </outline>
</glyph>
